<svg xmlns="http://www.w3.org/2000/svg" xmlns:xlink="http://www.w3.org/1999/xlink" width="203" zoomAndPan="magnify" viewBox="0 0 152.25 140.249994" height="187" preserveAspectRatio="xMidYMid meet" version="1.2"><defs><clipPath id="7384391174"><path d="M 5 46 L 33 46 L 33 59.710938 L 5 59.710938 Z M 5 46 "/></clipPath><clipPath id="a30a291d5f"><path d="M 118 46 L 146 46 L 146 59.710938 L 118 59.710938 Z M 118 46 "/></clipPath><clipPath id="323fd2db47"><path d="M 0.03125 88 L 40 88 L 40 101 L 0.03125 101 Z M 0.03125 88 "/></clipPath><clipPath id="f7b49a5be4"><path d="M 112 88 L 151.472656 88 L 151.472656 101 L 112 101 Z M 112 88 "/></clipPath><clipPath id="bc95e0bd0a"><path d="M 5 75.429688 L 33 75.429688 L 33 91 L 5 91 Z M 5 75.429688 "/></clipPath><clipPath id="3500d20ec8"><path d="M 118 75.429688 L 146 75.429688 L 146 91 L 118 91 Z M 118 75.429688 "/></clipPath><clipPath id="ac2913c7bc"><path d="M 26 101 L 126 101 L 126 138.453125 L 26 138.453125 Z M 26 101 "/></clipPath><clipPath id="4907837cab"><path d="M 19 0 L 44.261719 0 L 44.261719 39 L 19 39 Z M 19 0 "/></clipPath><clipPath id="ea4c99c3a8"><path d="M 0.03125 88 L 40 88 L 40 101 L 0.03125 101 Z M 0.03125 88 "/></clipPath><clipPath id="60b602d20f"><path d="M 15 14 L 44.261719 14 L 44.261719 53 L 15 53 Z M 15 14 "/></clipPath><clipPath id="a797eda6c9"><path d="M 26 101 L 44.261719 101 L 44.261719 139.324219 L 26 139.324219 Z M 26 101 "/></clipPath><clipPath id="01e4330b46"><path d="M 108.902344 0 L 132 0 L 132 39 L 108.902344 39 Z M 108.902344 0 "/></clipPath><clipPath id="84d60a5edb"><path d="M 112 88 L 150.917969 88 L 150.917969 101 L 112 101 Z M 112 88 "/></clipPath><clipPath id="e79cdf1087"><path d="M 108.902344 14 L 136 14 L 136 53 L 108.902344 53 Z M 108.902344 14 "/></clipPath><clipPath id="bb1e3bce91"><path d="M 108.902344 101 L 126 101 L 126 137.109375 L 108.902344 137.109375 Z M 108.902344 101 "/></clipPath></defs><g id="ef26a2ab10"><g style="fill:#ffffff;fill-opacity:1;"><g transform="translate(44.564196, 73.055891)"><path style="stroke:none" d="M 4.390625 0 L 0.515625 0 L 0.515625 -0.125 L 0.671875 -0.125 C 0.960938 -0.125 1.1875 -0.25 1.34375 -0.5 C 1.414062 -0.613281 1.453125 -0.742188 1.453125 -0.890625 L 1.453125 -7.703125 C 1.453125 -7.910156 1.375 -8.085938 1.21875 -8.234375 C 1.070312 -8.390625 0.890625 -8.46875 0.671875 -8.46875 L 0.515625 -8.46875 L 0.515625 -8.59375 L 4.078125 -8.59375 C 5.023438 -8.59375 5.773438 -8.421875 6.328125 -8.078125 C 6.890625 -7.734375 7.175781 -7.203125 7.1875 -6.484375 C 7.175781 -6.128906 7.097656 -5.816406 6.953125 -5.546875 C 6.679688 -5.035156 6.253906 -4.742188 5.671875 -4.671875 C 6.304688 -4.617188 6.828125 -4.382812 7.234375 -3.96875 C 7.640625 -3.550781 7.84375 -3.023438 7.84375 -2.390625 C 7.84375 -1.617188 7.535156 -1.023438 6.921875 -0.609375 C 6.304688 -0.203125 5.460938 0 4.390625 0 Z M 5.21875 -6.328125 C 5.21875 -7.484375 4.695312 -8.0625 3.65625 -8.0625 L 3.296875 -8.0625 L 3.296875 -0.5625 L 3.859375 -0.5625 C 3.867188 -0.5625 3.878906 -0.5625 3.890625 -0.5625 C 4.453125 -0.5625 4.898438 -0.722656 5.234375 -1.046875 C 5.566406 -1.378906 5.734375 -1.878906 5.734375 -2.546875 C 5.734375 -3.222656 5.546875 -3.722656 5.171875 -4.046875 C 4.796875 -4.367188 4.3125 -4.53125 3.71875 -4.53125 L 3.71875 -4.65625 C 4.144531 -4.65625 4.5 -4.789062 4.78125 -5.0625 C 5.070312 -5.332031 5.21875 -5.753906 5.21875 -6.328125 Z M 5.21875 -6.328125 "/></g></g><g style="fill:#ffffff;fill-opacity:1;"><g transform="translate(52.836455, 73.055891)"><path style="stroke:none" d="M 9.0625 -0.125 L 9.171875 -0.125 L 9.171875 0 L 5.25 0 L 5.25 -0.125 L 5.359375 -0.125 C 5.546875 -0.125 5.679688 -0.175781 5.765625 -0.28125 C 5.847656 -0.394531 5.890625 -0.5 5.890625 -0.59375 C 5.890625 -0.695312 5.867188 -0.796875 5.828125 -0.890625 L 5.234375 -2.40625 L 2.359375 -2.40625 L 1.71875 -0.890625 C 1.675781 -0.785156 1.65625 -0.6875 1.65625 -0.59375 C 1.65625 -0.5 1.695312 -0.394531 1.78125 -0.28125 C 1.875 -0.175781 2.015625 -0.125 2.203125 -0.125 L 2.296875 -0.125 L 2.296875 0 L -0.328125 0 L -0.328125 -0.125 L -0.21875 -0.125 C -0.03125 -0.125 0.15625 -0.179688 0.34375 -0.296875 C 0.53125 -0.410156 0.6875 -0.582031 0.8125 -0.8125 L 3.640625 -7.21875 C 4.023438 -8.03125 4.234375 -8.566406 4.265625 -8.828125 L 4.375 -8.828125 L 8.015625 -0.828125 C 8.140625 -0.597656 8.296875 -0.421875 8.484375 -0.296875 C 8.671875 -0.179688 8.863281 -0.125 9.0625 -0.125 Z M 2.5625 -2.921875 L 5.015625 -2.921875 L 3.828125 -5.9375 Z M 2.5625 -2.921875 "/></g></g><g style="fill:#ffffff;fill-opacity:1;"><g transform="translate(61.624196, 73.055891)"><path style="stroke:none" d="M 6.484375 -0.125 C 6.703125 -0.125 6.867188 -0.175781 6.984375 -0.28125 C 7.171875 -0.46875 7.269531 -0.671875 7.28125 -0.890625 L 7.28125 -4.015625 L 3.296875 -4.015625 L 3.296875 -0.890625 C 3.296875 -0.679688 3.375 -0.5 3.53125 -0.34375 C 3.6875 -0.195312 3.867188 -0.125 4.078125 -0.125 L 4.234375 -0.125 L 4.25 0 L 0.515625 0 L 0.515625 -0.125 L 0.671875 -0.125 C 0.890625 -0.125 1.070312 -0.195312 1.21875 -0.34375 C 1.375 -0.5 1.453125 -0.679688 1.453125 -0.890625 L 1.453125 -7.6875 C 1.453125 -7.90625 1.375 -8.085938 1.21875 -8.234375 C 1.070312 -8.390625 0.890625 -8.46875 0.671875 -8.46875 L 0.515625 -8.46875 L 0.515625 -8.59375 L 4.25 -8.59375 L 4.234375 -8.46875 L 4.078125 -8.46875 C 3.867188 -8.46875 3.6875 -8.390625 3.53125 -8.234375 C 3.375 -8.085938 3.296875 -7.90625 3.296875 -7.6875 L 3.296875 -4.53125 L 7.28125 -4.53125 L 7.28125 -7.6875 C 7.269531 -7.90625 7.1875 -8.085938 7.03125 -8.234375 C 6.882812 -8.390625 6.703125 -8.46875 6.484375 -8.46875 L 6.328125 -8.46875 L 6.328125 -8.59375 L 10.0625 -8.59375 L 10.0625 -8.46875 L 9.890625 -8.46875 C 9.679688 -8.46875 9.5 -8.390625 9.34375 -8.234375 C 9.1875 -8.085938 9.109375 -7.90625 9.109375 -7.6875 L 9.109375 -0.890625 C 9.109375 -0.679688 9.1875 -0.5 9.34375 -0.34375 C 9.5 -0.195312 9.679688 -0.125 9.890625 -0.125 L 10.0625 -0.125 L 10.0625 0 L 6.328125 0 L 6.328125 -0.125 Z M 6.484375 -0.125 "/></g></g><g style="fill:#ffffff;fill-opacity:1;"><g transform="translate(72.191578, 73.055891)"><path style="stroke:none" d="M 3.90625 -8.046875 L 3.375 -8.046875 C 3.351562 -8.046875 3.34375 -8.046875 3.34375 -8.046875 L 3.34375 -0.890625 C 3.34375 -0.679688 3.414062 -0.5 3.5625 -0.34375 C 3.71875 -0.195312 3.90625 -0.125 4.125 -0.125 L 4.28125 -0.125 L 4.28125 0 L 0.546875 0 L 0.546875 -0.125 L 0.71875 -0.125 C 1.007812 -0.125 1.234375 -0.25 1.390625 -0.5 C 1.453125 -0.613281 1.488281 -0.742188 1.5 -0.890625 L 1.5 -7.6875 C 1.488281 -7.90625 1.40625 -8.085938 1.25 -8.234375 C 1.101562 -8.390625 0.925781 -8.46875 0.71875 -8.46875 L 0.546875 -8.46875 L 0.546875 -8.59375 L 4.765625 -8.59375 C 5.554688 -8.59375 6.222656 -8.421875 6.765625 -8.078125 C 7.046875 -7.898438 7.265625 -7.65625 7.421875 -7.34375 C 7.585938 -7.039062 7.671875 -6.640625 7.671875 -6.140625 C 7.671875 -5.648438 7.5 -5.175781 7.15625 -4.71875 C 6.8125 -4.257812 6.316406 -4 5.671875 -3.9375 C 6.140625 -3.78125 6.554688 -3.421875 6.921875 -2.859375 C 7.804688 -1.441406 8.457031 -0.597656 8.875 -0.328125 C 9.09375 -0.203125 9.359375 -0.132812 9.671875 -0.125 L 9.671875 0 L 8.46875 0 C 7.757812 0 7.171875 -0.09375 6.703125 -0.28125 C 6.234375 -0.46875 5.863281 -0.800781 5.59375 -1.28125 C 5.4375 -1.550781 5.097656 -2.25 4.578125 -3.375 C 4.347656 -3.875 4.066406 -4.144531 3.734375 -4.1875 L 3.734375 -4.3125 L 4.125 -4.3125 C 4.488281 -4.3125 4.8125 -4.421875 5.09375 -4.640625 C 5.375 -4.867188 5.566406 -5.234375 5.671875 -5.734375 C 5.703125 -5.898438 5.71875 -6.035156 5.71875 -6.140625 C 5.71875 -6.804688 5.582031 -7.285156 5.3125 -7.578125 C 5.039062 -7.878906 4.691406 -8.035156 4.265625 -8.046875 C 4.179688 -8.046875 4.0625 -8.046875 3.90625 -8.046875 Z M 3.90625 -8.046875 "/></g></g><g style="fill:#ffffff;fill-opacity:1;"><g transform="translate(80.991594, 73.055891)"><path style="stroke:none" d="M 1.90625 -7.546875 C 2.78125 -8.347656 3.953125 -8.75 5.421875 -8.75 C 6.898438 -8.75 8.070312 -8.347656 8.9375 -7.546875 C 9.8125 -6.753906 10.25 -5.671875 10.25 -4.296875 C 10.25 -2.921875 9.8125 -1.832031 8.9375 -1.03125 C 8.070312 -0.226562 6.898438 0.171875 5.421875 0.171875 C 3.953125 0.171875 2.78125 -0.226562 1.90625 -1.03125 C 1.03125 -1.832031 0.59375 -2.921875 0.59375 -4.296875 C 0.59375 -5.671875 1.03125 -6.753906 1.90625 -7.546875 Z M 3.359375 -1.40625 C 3.867188 -0.695312 4.554688 -0.34375 5.421875 -0.34375 C 6.285156 -0.34375 6.972656 -0.695312 7.484375 -1.40625 C 7.992188 -2.113281 8.25 -3.078125 8.25 -4.296875 C 8.25 -5.515625 7.992188 -6.476562 7.484375 -7.1875 C 6.972656 -7.894531 6.285156 -8.25 5.421875 -8.25 C 4.554688 -8.25 3.867188 -7.894531 3.359375 -7.1875 C 2.859375 -6.476562 2.609375 -5.515625 2.609375 -4.296875 C 2.609375 -3.078125 2.859375 -2.113281 3.359375 -1.40625 Z M 3.359375 -1.40625 "/></g></g><g style="fill:#ffffff;fill-opacity:1;"><g transform="translate(91.522152, 73.055891)"><path style="stroke:none" d="M 4.96875 -8.59375 C 6.414062 -8.59375 7.5625 -8.207031 8.40625 -7.4375 C 9.25 -6.664062 9.671875 -5.617188 9.671875 -4.296875 C 9.671875 -2.972656 9.25 -1.925781 8.40625 -1.15625 C 7.5625 -0.382812 6.414062 0 4.96875 0 L 0.515625 0 L 0.515625 -0.125 L 0.671875 -0.125 C 0.890625 -0.125 1.070312 -0.195312 1.21875 -0.34375 C 1.375 -0.5 1.453125 -0.679688 1.453125 -0.890625 L 1.453125 -7.765625 C 1.453125 -7.960938 1.375 -8.128906 1.21875 -8.265625 C 1.0625 -8.398438 0.878906 -8.46875 0.671875 -8.46875 L 0.515625 -8.46875 L 0.515625 -8.59375 Z M 4.8125 -0.53125 C 5.394531 -0.53125 5.898438 -0.679688 6.328125 -0.984375 C 6.765625 -1.285156 7.097656 -1.71875 7.328125 -2.28125 C 7.554688 -2.851562 7.671875 -3.472656 7.671875 -4.140625 C 7.671875 -4.816406 7.601562 -5.390625 7.46875 -5.859375 C 7.332031 -6.328125 7.140625 -6.722656 6.890625 -7.046875 C 6.390625 -7.734375 5.695312 -8.078125 4.8125 -8.078125 L 3.296875 -8.078125 L 3.296875 -0.53125 Z M 4.8125 -0.53125 "/></g></g><g style="fill:#ffffff;fill-opacity:1;"><g transform="translate(101.439044, 73.055891)"><path style="stroke:none" d="M 0.671875 -0.125 C 0.890625 -0.125 1.070312 -0.195312 1.21875 -0.34375 C 1.375 -0.5 1.453125 -0.679688 1.453125 -0.890625 L 1.453125 -7.703125 C 1.453125 -7.910156 1.375 -8.085938 1.21875 -8.234375 C 1.070312 -8.390625 0.890625 -8.46875 0.671875 -8.46875 L 0.515625 -8.46875 L 0.515625 -8.59375 L 4.25 -8.59375 L 4.234375 -8.46875 L 4.078125 -8.46875 C 3.867188 -8.46875 3.6875 -8.390625 3.53125 -8.234375 C 3.375 -8.085938 3.296875 -7.910156 3.296875 -7.703125 L 3.296875 -0.890625 C 3.296875 -0.679688 3.375 -0.5 3.53125 -0.34375 C 3.6875 -0.195312 3.867188 -0.125 4.078125 -0.125 L 4.234375 -0.125 L 4.25 0 L 0.515625 0 L 0.515625 -0.125 Z M 0.671875 -0.125 "/></g></g><g style="fill:#ffffff;fill-opacity:1;"><g transform="translate(45.707937, 79.495894)"><path style="stroke:none" d="M 1.78125 -2.890625 L 1.78125 -0.75 C 1.78125 -0.519531 1.707031 -0.332031 1.5625 -0.1875 C 1.414062 -0.0390625 1.222656 0.03125 0.984375 0.03125 C 0.734375 0.03125 0.535156 -0.0390625 0.390625 -0.1875 C 0.242188 -0.332031 0.171875 -0.53125 0.171875 -0.78125 L 0.546875 -0.78125 C 0.546875 -0.644531 0.582031 -0.53125 0.65625 -0.4375 C 0.726562 -0.351562 0.835938 -0.3125 0.984375 -0.3125 C 1.117188 -0.3125 1.21875 -0.351562 1.28125 -0.4375 C 1.351562 -0.519531 1.390625 -0.625 1.390625 -0.75 L 1.390625 -2.890625 Z M 1.78125 -2.890625 "/></g></g><g style="fill:#ffffff;fill-opacity:1;"><g transform="translate(51.234103, 79.495894)"><path style="stroke:none" d="M 0.6875 -2.890625 L 0.6875 -1.0625 C 0.6875 -0.800781 0.75 -0.609375 0.875 -0.484375 C 1 -0.359375 1.175781 -0.296875 1.40625 -0.296875 C 1.625 -0.296875 1.796875 -0.359375 1.921875 -0.484375 C 2.046875 -0.609375 2.109375 -0.800781 2.109375 -1.0625 L 2.109375 -2.890625 L 2.5 -2.890625 L 2.5 -1.0625 C 2.5 -0.820312 2.445312 -0.617188 2.34375 -0.453125 C 2.25 -0.296875 2.117188 -0.175781 1.953125 -0.09375 C 1.785156 -0.0078125 1.601562 0.03125 1.40625 0.03125 C 1.195312 0.03125 1.007812 -0.0078125 0.84375 -0.09375 C 0.675781 -0.175781 0.546875 -0.296875 0.453125 -0.453125 C 0.359375 -0.617188 0.3125 -0.820312 0.3125 -1.0625 L 0.3125 -2.890625 Z M 0.6875 -2.890625 "/></g></g><g style="fill:#ffffff;fill-opacity:1;"><g transform="translate(57.362747, 79.495894)"><path style="stroke:none" d="M 1.234375 0.03125 C 1.046875 0.03125 0.875 0 0.71875 -0.0625 C 0.570312 -0.132812 0.453125 -0.226562 0.359375 -0.34375 C 0.273438 -0.46875 0.234375 -0.609375 0.234375 -0.765625 L 0.640625 -0.765625 C 0.648438 -0.628906 0.703125 -0.515625 0.796875 -0.421875 C 0.898438 -0.335938 1.046875 -0.296875 1.234375 -0.296875 C 1.421875 -0.296875 1.566406 -0.335938 1.671875 -0.421875 C 1.773438 -0.515625 1.828125 -0.628906 1.828125 -0.765625 C 1.828125 -0.878906 1.796875 -0.96875 1.734375 -1.03125 C 1.671875 -1.101562 1.59375 -1.15625 1.5 -1.1875 C 1.40625 -1.226562 1.28125 -1.269531 1.125 -1.3125 C 0.9375 -1.363281 0.785156 -1.414062 0.671875 -1.46875 C 0.554688 -1.519531 0.457031 -1.597656 0.375 -1.703125 C 0.289062 -1.804688 0.25 -1.945312 0.25 -2.125 C 0.25 -2.289062 0.289062 -2.429688 0.375 -2.546875 C 0.457031 -2.671875 0.570312 -2.765625 0.71875 -2.828125 C 0.863281 -2.898438 1.03125 -2.9375 1.21875 -2.9375 C 1.488281 -2.9375 1.707031 -2.867188 1.875 -2.734375 C 2.050781 -2.597656 2.148438 -2.414062 2.171875 -2.1875 L 1.765625 -2.1875 C 1.742188 -2.300781 1.679688 -2.398438 1.578125 -2.484375 C 1.484375 -2.566406 1.347656 -2.609375 1.171875 -2.609375 C 1.015625 -2.609375 0.882812 -2.566406 0.78125 -2.484375 C 0.6875 -2.398438 0.640625 -2.285156 0.640625 -2.140625 C 0.640625 -2.035156 0.664062 -1.945312 0.71875 -1.875 C 0.78125 -1.8125 0.851562 -1.765625 0.9375 -1.734375 C 1.03125 -1.703125 1.15625 -1.660156 1.3125 -1.609375 C 1.507812 -1.554688 1.664062 -1.503906 1.78125 -1.453125 C 1.894531 -1.410156 1.992188 -1.332031 2.078125 -1.21875 C 2.160156 -1.113281 2.203125 -0.972656 2.203125 -0.796875 C 2.203125 -0.648438 2.164062 -0.515625 2.09375 -0.390625 C 2.019531 -0.265625 1.90625 -0.160156 1.75 -0.078125 C 1.601562 -0.00390625 1.429688 0.03125 1.234375 0.03125 Z M 1.234375 0.03125 "/></g></g><g style="fill:#ffffff;fill-opacity:1;"><g transform="translate(63.125751, 79.495894)"><path style="stroke:none" d="M 2.109375 -2.890625 L 2.109375 -2.59375 L 1.3125 -2.59375 L 1.3125 0 L 0.9375 0 L 0.9375 -2.59375 L 0.140625 -2.59375 L 0.140625 -2.890625 Z M 2.109375 -2.890625 "/></g></g><g style="fill:#ffffff;fill-opacity:1;"><g transform="translate(68.697624, 79.495894)"><path style="stroke:none" d="M 0.703125 -2.890625 L 0.703125 0 L 0.3125 0 L 0.3125 -2.890625 Z M 0.703125 -2.890625 "/></g></g><g style="fill:#ffffff;fill-opacity:1;"><g transform="translate(73.043762, 79.495894)"><path style="stroke:none" d="M 0.171875 -1.453125 C 0.171875 -1.734375 0.234375 -1.984375 0.359375 -2.203125 C 0.492188 -2.429688 0.671875 -2.609375 0.890625 -2.734375 C 1.109375 -2.867188 1.351562 -2.9375 1.625 -2.9375 C 1.9375 -2.9375 2.210938 -2.859375 2.453125 -2.703125 C 2.691406 -2.554688 2.863281 -2.34375 2.96875 -2.0625 L 2.515625 -2.0625 C 2.429688 -2.226562 2.3125 -2.359375 2.15625 -2.453125 C 2.007812 -2.554688 1.832031 -2.609375 1.625 -2.609375 C 1.425781 -2.609375 1.242188 -2.554688 1.078125 -2.453125 C 0.921875 -2.359375 0.796875 -2.222656 0.703125 -2.046875 C 0.609375 -1.878906 0.5625 -1.679688 0.5625 -1.453125 C 0.5625 -1.222656 0.609375 -1.019531 0.703125 -0.84375 C 0.796875 -0.675781 0.921875 -0.539062 1.078125 -0.4375 C 1.242188 -0.34375 1.425781 -0.296875 1.625 -0.296875 C 1.832031 -0.296875 2.007812 -0.34375 2.15625 -0.4375 C 2.3125 -0.53125 2.429688 -0.664062 2.515625 -0.84375 L 2.96875 -0.84375 C 2.863281 -0.5625 2.691406 -0.34375 2.453125 -0.1875 C 2.210938 -0.0390625 1.9375 0.03125 1.625 0.03125 C 1.351562 0.03125 1.109375 -0.03125 0.890625 -0.15625 C 0.671875 -0.289062 0.492188 -0.46875 0.359375 -0.6875 C 0.234375 -0.914062 0.171875 -1.171875 0.171875 -1.453125 Z M 0.171875 -1.453125 "/></g></g><g style="fill:#ffffff;fill-opacity:1;"><g transform="translate(79.575447, 79.495894)"><path style="stroke:none" d="M 0.703125 -2.59375 L 0.703125 -1.625 L 1.75 -1.625 L 1.75 -1.3125 L 0.703125 -1.3125 L 0.703125 -0.3125 L 1.875 -0.3125 L 1.875 0 L 0.3125 0 L 0.3125 -2.90625 L 1.875 -2.90625 L 1.875 -2.59375 Z M 0.703125 -2.59375 "/></g></g><g style="fill:#ffffff;fill-opacity:1;"><g transform="translate(85.030975, 79.495894)"><path style="stroke:none" d=""/></g></g><g style="fill:#ffffff;fill-opacity:1;"><g transform="translate(89.464369, 79.495894)"><path style="stroke:none" d="M 0.703125 -0.3125 L 1.71875 -0.3125 L 1.71875 0 L 0.3125 0 L 0.3125 -2.890625 L 0.703125 -2.890625 Z M 0.703125 -0.3125 "/></g></g><g style="fill:#ffffff;fill-opacity:1;"><g transform="translate(94.583341, 79.495894)"><path style="stroke:none" d="M 2.03125 -0.640625 L 0.765625 -0.640625 L 0.53125 0 L 0.140625 0 L 1.1875 -2.875 L 1.625 -2.875 L 2.671875 0 L 2.265625 0 Z M 1.921875 -0.953125 L 1.40625 -2.421875 L 0.875 -0.953125 Z M 1.921875 -0.953125 "/></g></g><g style="fill:#ffffff;fill-opacity:1;"><g transform="translate(100.707832, 79.495894)"><path style="stroke:none" d="M 3.96875 -2.890625 L 3.125 0 L 2.703125 0 L 2.03125 -2.328125 L 1.328125 0 L 0.90625 0 L 0.09375 -2.890625 L 0.5 -2.890625 L 1.125 -0.4375 L 1.828125 -2.890625 L 2.25 -2.890625 L 2.921875 -0.453125 L 3.546875 -2.890625 Z M 3.96875 -2.890625 "/></g></g><path style=" stroke:none;fill-rule:nonzero;fill:#b68c59;fill-opacity:1;" d="M 27.285156 38.089844 C 27.410156 35.605469 27.535156 32.851562 27.707031 30.070312 C 37.617188 26.671875 59.546875 18.554688 75.75 9.199219 C 91.980469 18.554688 114.003906 26.570312 123.816406 30.070312 C 123.964844 32.851562 124.113281 35.53125 124.238281 38.089844 L 131.96875 38.089844 C 131.769531 33.746094 131.523438 29.179688 131.226562 24.414062 C 131.226562 24.414062 95.96875 12.996094 75.75 0.164062 C 55.558594 12.996094 20.300781 24.414062 20.300781 24.414062 C 20.003906 29.179688 19.753906 33.746094 19.554688 38.089844 Z M 27.285156 38.089844 "/><g clip-rule="nonzero" clip-path="url(#7384391174)"><path style=" stroke:none;fill-rule:nonzero;fill:#ffffff;fill-opacity:1;" d="M 20.300781 48.09375 L 20.300781 47.546875 C 20.265625 47.34375 20.167969 47.175781 20.011719 47.042969 C 19.855469 46.914062 19.675781 46.847656 19.46875 46.847656 C 19.265625 46.847656 19.082031 46.914062 18.925781 47.042969 C 18.769531 47.175781 18.675781 47.34375 18.640625 47.546875 L 18.640625 48.214844 L 6.027344 87.679688 C 5.957031 87.894531 5.96875 88.101562 6.074219 88.300781 C 6.175781 88.5 6.332031 88.632812 6.546875 88.699219 C 6.640625 88.722656 6.730469 88.722656 6.820312 88.699219 C 7 88.699219 7.15625 88.648438 7.300781 88.542969 C 7.441406 88.4375 7.539062 88.296875 7.589844 88.128906 L 18.640625 53.625 L 18.640625 90.136719 C 18.675781 90.339844 18.769531 90.507812 18.925781 90.640625 C 19.082031 90.773438 19.265625 90.839844 19.46875 90.839844 C 19.675781 90.839844 19.855469 90.773438 20.011719 90.640625 C 20.167969 90.507812 20.265625 90.339844 20.300781 90.136719 L 20.300781 53.527344 L 31.351562 88.054688 C 31.40625 88.222656 31.507812 88.359375 31.65625 88.464844 C 31.800781 88.570312 31.964844 88.625 32.144531 88.625 L 32.390625 88.625 C 32.601562 88.546875 32.761719 88.410156 32.867188 88.210938 C 32.972656 88.007812 32.992188 87.800781 32.9375 87.582031 Z M 20.300781 48.09375 "/></g><g clip-rule="nonzero" clip-path="url(#a30a291d5f)"><path style=" stroke:none;fill-rule:nonzero;fill:#ffffff;fill-opacity:1;" d="M 145.519531 87.679688 L 132.886719 48.214844 L 132.886719 47.546875 C 132.886719 47.320312 132.808594 47.125 132.648438 46.964844 C 132.488281 46.804688 132.292969 46.722656 132.066406 46.722656 C 131.839844 46.722656 131.648438 46.804688 131.488281 46.964844 C 131.328125 47.125 131.25 47.320312 131.25 47.546875 L 131.25 48.09375 L 118.613281 87.558594 C 118.550781 87.777344 118.570312 87.988281 118.675781 88.1875 C 118.78125 88.390625 118.941406 88.527344 119.160156 88.597656 L 119.40625 88.597656 C 119.585938 88.597656 119.75 88.546875 119.894531 88.441406 C 120.039062 88.335938 120.140625 88.199219 120.199219 88.027344 L 131.347656 53.527344 L 131.347656 90.136719 C 131.347656 90.363281 131.429688 90.558594 131.589844 90.71875 C 131.75 90.878906 131.941406 90.957031 132.167969 90.957031 C 132.390625 90.957031 132.585938 90.878906 132.746094 90.71875 C 132.90625 90.558594 132.984375 90.363281 132.984375 90.136719 L 132.984375 53.625 L 144.035156 88.175781 C 144.09375 88.347656 144.195312 88.484375 144.339844 88.589844 C 144.484375 88.695312 144.648438 88.746094 144.828125 88.75 L 145.074219 88.75 C 145.285156 88.664062 145.433594 88.515625 145.519531 88.308594 C 145.605469 88.097656 145.605469 87.890625 145.519531 87.679688 Z M 145.519531 87.679688 "/></g><path style=" stroke:none;fill-rule:nonzero;fill:#b68c59;fill-opacity:1;" d="M 132.140625 42.359375 C 131.707031 42.351562 131.285156 42.414062 130.871094 42.546875 C 130.460938 42.675781 130.078125 42.871094 129.726562 43.125 C 129.375 43.378906 129.074219 43.683594 128.824219 44.035156 C 128.570312 44.390625 128.378906 44.773438 128.253906 45.1875 C 122.199219 46.054688 116.132812 46.167969 110.054688 45.527344 C 103.972656 44.882812 98.0625 43.503906 92.324219 41.390625 C 88.003906 39.882812 83.585938 38.765625 79.070312 38.039062 C 80.085938 34.339844 81.695312 33.324219 81.695312 29.550781 C 81.695312 24.4375 77.410156 21.609375 77.433594 18.230469 L 77.433594 16.195312 C 77.410156 15.871094 77.335938 15.558594 77.210938 15.253906 C 77.097656 14.953125 76.910156 14.714844 76.648438 14.53125 C 76.386719 14.351562 76.09375 14.257812 75.773438 14.257812 C 75.457031 14.257812 75.164062 14.351562 74.902344 14.53125 C 74.636719 14.714844 74.449219 14.953125 74.335938 15.253906 C 74.214844 15.558594 74.140625 15.871094 74.113281 16.195312 L 74.113281 18.28125 C 74.113281 21.65625 69.851562 24.488281 69.851562 29.601562 C 69.851562 33.375 71.4375 34.390625 72.453125 38.089844 C 67.945312 38.816406 63.535156 39.933594 59.222656 41.441406 C 53.484375 43.554688 47.578125 44.933594 41.496094 45.574219 C 35.414062 46.21875 29.351562 46.105469 23.296875 45.238281 C 23.160156 44.78125 22.949219 44.367188 22.660156 43.988281 C 22.375 43.609375 22.03125 43.292969 21.632812 43.035156 C 21.234375 42.777344 20.804688 42.597656 20.339844 42.496094 C 19.878906 42.394531 19.410156 42.375 18.941406 42.441406 C 18.472656 42.503906 18.027344 42.648438 17.609375 42.871094 C 17.191406 43.09375 16.824219 43.382812 16.507812 43.734375 C 16.191406 44.089844 15.945312 44.488281 15.769531 44.929688 C 15.597656 45.371094 15.503906 45.828125 15.492188 46.304688 C 15.484375 46.789062 15.5625 47.261719 15.726562 47.71875 C 15.890625 48.175781 16.128906 48.589844 16.445312 48.957031 C 16.757812 49.328125 17.128906 49.628906 17.550781 49.863281 C 17.976562 50.101562 18.425781 50.253906 18.90625 50.320312 C 19.386719 50.390625 19.863281 50.375 20.335938 50.269531 C 20.808594 50.167969 21.25 49.984375 21.65625 49.71875 C 22.0625 49.453125 22.410156 49.125 22.695312 48.734375 C 22.980469 48.34375 23.191406 47.914062 23.320312 47.445312 C 26.925781 48.195312 30.570312 48.640625 34.25 48.785156 C 43.152344 48.878906 51.816406 47.480469 60.238281 44.59375 C 61.933594 44.070312 63.660156 43.6875 65.417969 43.449219 C 65.90625 43.386719 66.394531 43.371094 66.882812 43.410156 C 67.371094 43.449219 67.851562 43.539062 68.320312 43.679688 C 68.792969 43.824219 69.242188 44.011719 69.671875 44.25 C 70.101562 44.488281 70.503906 44.765625 70.871094 45.089844 C 71.242188 45.414062 71.574219 45.773438 71.871094 46.164062 C 72.164062 46.558594 72.414062 46.980469 72.617188 47.425781 C 72.824219 47.875 72.976562 48.335938 73.085938 48.816406 C 73.191406 49.296875 73.246094 49.785156 73.246094 50.277344 L 73.246094 50.625 L 43.515625 52.707031 L 107.933594 52.707031 L 78.203125 50.625 L 78.203125 50.277344 C 78.203125 49.785156 78.257812 49.300781 78.359375 48.820312 C 78.464844 48.339844 78.621094 47.875 78.824219 47.429688 C 79.027344 46.980469 79.273438 46.5625 79.566406 46.167969 C 79.859375 45.773438 80.191406 45.414062 80.5625 45.089844 C 80.929688 44.769531 81.328125 44.488281 81.757812 44.25 C 82.1875 44.011719 82.636719 43.824219 83.105469 43.679688 C 83.578125 43.539062 84.054688 43.449219 84.546875 43.410156 C 85.035156 43.371094 85.519531 43.386719 86.007812 43.449219 C 87.773438 43.6875 89.507812 44.070312 91.210938 44.59375 C 99.632812 47.480469 108.296875 48.878906 117.203125 48.785156 C 120.878906 48.636719 124.523438 48.191406 128.128906 47.445312 C 128.257812 47.914062 128.46875 48.34375 128.753906 48.734375 C 129.042969 49.125 129.386719 49.453125 129.792969 49.71875 C 130.203125 49.984375 130.640625 50.167969 131.113281 50.269531 C 131.585938 50.375 132.0625 50.390625 132.542969 50.320312 C 133.023438 50.253906 133.476562 50.101562 133.898438 49.863281 C 134.324219 49.628906 134.691406 49.328125 135.007812 48.957031 C 135.320312 48.589844 135.558594 48.175781 135.722656 47.71875 C 135.886719 47.261719 135.964844 46.789062 135.957031 46.304688 C 135.945312 45.796875 135.84375 45.304688 135.644531 44.835938 C 135.449219 44.367188 135.175781 43.949219 134.820312 43.582031 C 134.46875 43.21875 134.058594 42.929688 133.597656 42.71875 C 133.132812 42.507812 132.648438 42.386719 132.140625 42.359375 Z M 132.140625 42.359375 "/><g clip-rule="nonzero" clip-path="url(#323fd2db47)"><path style=" stroke:none;fill-rule:nonzero;fill:#b68c59;fill-opacity:1;" d="M 37.867188 88.425781 C 32.050781 91.121094 25.9375 92.421875 19.53125 92.324219 C 13.132812 92.417969 7.027344 91.117188 1.222656 88.425781 C 0.882812 88.296875 0.589844 88.363281 0.339844 88.625 C 0.0898438 88.886719 0.0351562 89.183594 0.179688 89.519531 C 1.328125 91.15625 2.679688 92.605469 4.226562 93.871094 C 5.777344 95.136719 7.464844 96.167969 9.296875 96.964844 C 8.753906 97.261719 8.457031 97.609375 8.457031 97.980469 C 8.457031 99.445312 13.410156 100.613281 19.382812 100.613281 C 25.355469 100.613281 30.308594 99.445312 30.308594 97.980469 C 30.308594 97.632812 30.0625 97.335938 29.617188 97.039062 C 31.480469 96.253906 33.203125 95.230469 34.78125 93.964844 C 36.359375 92.699219 37.734375 91.242188 38.90625 89.59375 C 39 89.4375 39.035156 89.273438 39.019531 89.09375 C 39.003906 88.914062 38.933594 88.757812 38.816406 88.625 C 38.695312 88.492188 38.546875 88.40625 38.375 88.371094 C 38.199219 88.332031 38.027344 88.351562 37.867188 88.425781 Z M 37.867188 88.425781 "/></g><g clip-rule="nonzero" clip-path="url(#f7b49a5be4)"><path style=" stroke:none;fill-rule:nonzero;fill:#b68c59;fill-opacity:1;" d="M 150.328125 88.425781 C 147.441406 89.710938 144.453125 90.683594 141.363281 91.339844 C 138.277344 91.996094 135.152344 92.324219 131.992188 92.324219 C 128.835938 92.324219 125.710938 91.996094 122.621094 91.339844 C 119.53125 90.683594 116.542969 89.710938 113.660156 88.425781 C 113.492188 88.355469 113.324219 88.339844 113.148438 88.378906 C 112.972656 88.417969 112.828125 88.507812 112.710938 88.644531 C 112.59375 88.78125 112.527344 88.941406 112.515625 89.121094 C 112.503906 89.300781 112.546875 89.464844 112.644531 89.617188 C 113.792969 91.253906 115.140625 92.707031 116.6875 93.96875 C 118.238281 95.234375 119.929688 96.265625 121.761719 97.0625 C 121.214844 97.363281 120.917969 97.707031 120.917969 98.082031 C 120.917969 99.546875 125.875 100.710938 131.84375 100.710938 C 137.816406 100.710938 142.769531 99.546875 142.769531 98.082031 C 142.769531 97.734375 142.523438 97.4375 142.078125 97.136719 C 143.941406 96.355469 145.664062 95.332031 147.242188 94.066406 C 148.820312 92.800781 150.195312 91.34375 151.367188 89.691406 C 151.542969 89.546875 151.640625 89.363281 151.664062 89.136719 C 151.683594 88.914062 151.625 88.710938 151.480469 88.539062 C 151.335938 88.363281 151.152344 88.265625 150.925781 88.242188 C 150.703125 88.222656 150.503906 88.28125 150.328125 88.425781 Z M 150.328125 88.425781 "/></g><g clip-rule="nonzero" clip-path="url(#bc95e0bd0a)"><path style=" stroke:none;fill-rule:nonzero;fill:#ffffff;fill-opacity:1;" d="M 20.300781 48.09375 L 20.300781 47.546875 C 20.265625 47.34375 20.167969 47.175781 20.011719 47.042969 C 19.855469 46.914062 19.675781 46.847656 19.46875 46.847656 C 19.265625 46.847656 19.082031 46.914062 18.925781 47.042969 C 18.769531 47.175781 18.675781 47.34375 18.640625 47.546875 L 18.640625 48.214844 L 6.027344 87.679688 C 5.957031 87.894531 5.96875 88.101562 6.074219 88.300781 C 6.175781 88.5 6.332031 88.632812 6.546875 88.699219 C 6.640625 88.722656 6.730469 88.722656 6.820312 88.699219 C 7 88.699219 7.15625 88.648438 7.300781 88.542969 C 7.441406 88.4375 7.539062 88.296875 7.589844 88.128906 L 18.640625 53.625 L 18.640625 90.136719 C 18.675781 90.339844 18.769531 90.507812 18.925781 90.640625 C 19.082031 90.773438 19.265625 90.839844 19.46875 90.839844 C 19.675781 90.839844 19.855469 90.773438 20.011719 90.640625 C 20.167969 90.507812 20.265625 90.339844 20.300781 90.136719 L 20.300781 53.527344 L 31.351562 88.054688 C 31.40625 88.222656 31.507812 88.359375 31.65625 88.464844 C 31.800781 88.570312 31.964844 88.625 32.144531 88.625 L 32.390625 88.625 C 32.601562 88.546875 32.761719 88.410156 32.867188 88.210938 C 32.972656 88.007812 32.992188 87.800781 32.9375 87.582031 Z M 20.300781 48.09375 "/></g><g clip-rule="nonzero" clip-path="url(#3500d20ec8)"><path style=" stroke:none;fill-rule:nonzero;fill:#ffffff;fill-opacity:1;" d="M 145.519531 87.679688 L 132.886719 48.214844 L 132.886719 47.546875 C 132.886719 47.320312 132.808594 47.125 132.648438 46.964844 C 132.488281 46.804688 132.292969 46.722656 132.066406 46.722656 C 131.839844 46.722656 131.648438 46.804688 131.488281 46.964844 C 131.328125 47.125 131.25 47.320312 131.25 47.546875 L 131.25 48.09375 L 118.613281 87.558594 C 118.550781 87.777344 118.570312 87.988281 118.675781 88.1875 C 118.78125 88.390625 118.941406 88.527344 119.160156 88.597656 L 119.40625 88.597656 C 119.585938 88.597656 119.75 88.546875 119.894531 88.441406 C 120.039062 88.335938 120.140625 88.199219 120.199219 88.027344 L 131.347656 53.527344 L 131.347656 90.136719 C 131.347656 90.363281 131.429688 90.558594 131.589844 90.71875 C 131.75 90.878906 131.941406 90.957031 132.167969 90.957031 C 132.390625 90.957031 132.585938 90.878906 132.746094 90.71875 C 132.90625 90.558594 132.984375 90.363281 132.984375 90.136719 L 132.984375 53.625 L 144.035156 88.175781 C 144.09375 88.347656 144.195312 88.484375 144.339844 88.589844 C 144.484375 88.695312 144.648438 88.746094 144.828125 88.75 L 145.074219 88.75 C 145.285156 88.664062 145.433594 88.515625 145.519531 88.308594 C 145.605469 88.097656 145.605469 87.890625 145.519531 87.679688 Z M 145.519531 87.679688 "/></g><path style=" stroke:none;fill-rule:nonzero;fill:#b68c59;fill-opacity:1;" d="M 102.535156 110.664062 C 101.171875 109.605469 99.679688 108.796875 98.046875 108.234375 C 96.417969 107.671875 94.742188 107.390625 93.019531 107.390625 L 85.140625 107.390625 C 84.804688 107.410156 84.480469 107.363281 84.167969 107.246094 C 83.851562 107.125 83.578125 106.949219 83.339844 106.710938 C 83.101562 106.472656 82.925781 106.195312 82.804688 105.882812 C 82.6875 105.566406 82.640625 105.242188 82.664062 104.90625 C 82.664062 104.757812 82.609375 104.632812 82.5 104.527344 C 82.394531 104.425781 82.265625 104.378906 82.117188 104.386719 L 80.605469 104.386719 L 79.9375 99.445312 L 78.253906 99.273438 L 78.253906 93.414062 L 103.351562 90.933594 L 48.199219 90.933594 L 73.273438 93.414062 C 73.273438 95.449219 73.273438 97.363281 73.273438 99.148438 L 71.585938 99.320312 L 70.820312 104.410156 L 69.40625 104.410156 C 69.257812 104.402344 69.128906 104.453125 69.023438 104.554688 C 68.914062 104.65625 68.863281 104.78125 68.863281 104.933594 C 68.863281 105.25 68.804688 105.558594 68.6875 105.855469 C 68.566406 106.148438 68.398438 106.414062 68.179688 106.644531 C 67.960938 106.875 67.707031 107.058594 67.417969 107.191406 C 67.128906 107.324219 66.824219 107.398438 66.507812 107.414062 L 58.53125 107.414062 C 56.804688 107.414062 55.121094 107.695312 53.488281 108.257812 C 51.855469 108.820312 50.355469 109.628906 48.992188 110.691406 L 48.023438 111.460938 C 47.898438 111.554688 47.808594 111.679688 47.761719 111.832031 C 47.714844 111.984375 47.714844 112.140625 47.765625 112.289062 C 47.816406 112.441406 47.90625 112.566406 48.035156 112.660156 C 48.164062 112.753906 48.3125 112.800781 48.46875 112.800781 L 102.980469 112.800781 C 103.140625 112.800781 103.285156 112.753906 103.414062 112.660156 C 103.542969 112.566406 103.632812 112.441406 103.683594 112.289062 C 103.734375 112.140625 103.738281 111.984375 103.6875 111.832031 C 103.640625 111.679688 103.554688 111.554688 103.425781 111.460938 Z M 102.535156 110.664062 "/><g clip-rule="nonzero" clip-path="url(#ac2913c7bc)"><path style=" stroke:none;fill-rule:nonzero;fill:#b68c59;fill-opacity:1;" d="M 117.722656 102.078125 C 115.863281 105.851562 113.453125 109.226562 110.488281 112.203125 C 101.816406 120.890625 91.804688 124.613281 82.933594 127.867188 C 80.457031 128.808594 77.980469 129.703125 75.75 130.644531 C 73.46875 129.703125 71.066406 128.808594 68.566406 127.867188 C 59.71875 124.589844 49.683594 120.890625 41.011719 112.203125 C 38.019531 109.179688 35.589844 105.757812 33.726562 101.929688 C 31.460938 103.382812 28.980469 104.210938 26.296875 104.410156 C 28.59375 109.402344 31.683594 113.847656 35.5625 117.738281 C 49.261719 131.414062 65.441406 134.023438 75.75 139.160156 C 86.082031 134.023438 102.261719 131.414062 115.960938 117.664062 C 119.828125 113.796875 122.90625 109.378906 125.203125 104.410156 C 122.519531 104.242188 120.027344 103.464844 117.722656 102.078125 Z M 117.722656 102.078125 "/></g><g clip-rule="nonzero" clip-path="url(#4907837cab)"><path style=" stroke:none;fill-rule:nonzero;fill:#b68c59;fill-opacity:1;" d="M 27.285156 38.089844 C 27.410156 35.605469 27.535156 32.851562 27.707031 30.070312 C 37.617188 26.671875 59.546875 18.554688 75.75 9.199219 C 91.980469 18.554688 114.003906 26.570312 123.816406 30.070312 C 123.964844 32.851562 124.113281 35.53125 124.238281 38.089844 L 131.96875 38.089844 C 131.769531 33.746094 131.523438 29.179688 131.226562 24.414062 C 131.226562 24.414062 95.96875 12.996094 75.75 0.164062 C 55.558594 12.996094 20.300781 24.414062 20.300781 24.414062 C 20.003906 29.179688 19.753906 33.746094 19.554688 38.089844 Z M 27.285156 38.089844 "/></g><g clip-rule="nonzero" clip-path="url(#ea4c99c3a8)"><path style=" stroke:none;fill-rule:nonzero;fill:#b68c59;fill-opacity:1;" d="M 37.867188 88.425781 C 32.050781 91.121094 25.9375 92.421875 19.53125 92.324219 C 13.132812 92.417969 7.027344 91.117188 1.222656 88.425781 C 0.882812 88.296875 0.589844 88.363281 0.339844 88.625 C 0.0898438 88.886719 0.0351562 89.183594 0.179688 89.519531 C 1.328125 91.15625 2.679688 92.605469 4.226562 93.871094 C 5.777344 95.136719 7.464844 96.167969 9.296875 96.964844 C 8.753906 97.261719 8.457031 97.609375 8.457031 97.980469 C 8.457031 99.445312 13.410156 100.613281 19.382812 100.613281 C 25.355469 100.613281 30.308594 99.445312 30.308594 97.980469 C 30.308594 97.632812 30.0625 97.335938 29.617188 97.039062 C 31.480469 96.253906 33.203125 95.230469 34.78125 93.964844 C 36.359375 92.699219 37.734375 91.242188 38.90625 89.59375 C 39 89.4375 39.035156 89.273438 39.019531 89.09375 C 39.003906 88.914062 38.933594 88.757812 38.816406 88.625 C 38.695312 88.492188 38.546875 88.40625 38.375 88.371094 C 38.199219 88.332031 38.027344 88.351562 37.867188 88.425781 Z M 37.867188 88.425781 "/></g><path style=" stroke:none;fill-rule:nonzero;fill:#ffffff;fill-opacity:1;" d="M 20.300781 48.09375 L 20.300781 47.546875 C 20.265625 47.34375 20.167969 47.175781 20.011719 47.042969 C 19.855469 46.914062 19.675781 46.847656 19.46875 46.847656 C 19.265625 46.847656 19.082031 46.914062 18.925781 47.042969 C 18.769531 47.175781 18.675781 47.34375 18.640625 47.546875 L 18.640625 48.214844 L 6.027344 87.679688 C 5.957031 87.894531 5.96875 88.101562 6.074219 88.300781 C 6.175781 88.5 6.332031 88.632812 6.546875 88.699219 C 6.640625 88.722656 6.730469 88.722656 6.820312 88.699219 C 7 88.699219 7.15625 88.648438 7.300781 88.542969 C 7.441406 88.4375 7.539062 88.296875 7.589844 88.128906 L 18.640625 53.625 L 18.640625 90.136719 C 18.675781 90.339844 18.769531 90.507812 18.925781 90.640625 C 19.082031 90.773438 19.265625 90.839844 19.46875 90.839844 C 19.675781 90.839844 19.855469 90.773438 20.011719 90.640625 C 20.167969 90.507812 20.265625 90.339844 20.300781 90.136719 L 20.300781 53.527344 L 31.351562 88.054688 C 31.40625 88.222656 31.507812 88.359375 31.65625 88.464844 C 31.800781 88.570312 31.964844 88.625 32.144531 88.625 L 32.390625 88.625 C 32.601562 88.546875 32.761719 88.410156 32.867188 88.210938 C 32.972656 88.007812 32.992188 87.800781 32.9375 87.582031 Z M 20.300781 48.09375 "/><g clip-rule="nonzero" clip-path="url(#60b602d20f)"><path style=" stroke:none;fill-rule:nonzero;fill:#b68c59;fill-opacity:1;" d="M 132.140625 42.359375 C 131.707031 42.351562 131.285156 42.414062 130.871094 42.546875 C 130.460938 42.675781 130.078125 42.871094 129.726562 43.125 C 129.375 43.378906 129.074219 43.683594 128.824219 44.035156 C 128.570312 44.390625 128.378906 44.773438 128.253906 45.1875 C 122.199219 46.054688 116.132812 46.167969 110.054688 45.527344 C 103.972656 44.882812 98.0625 43.503906 92.324219 41.390625 C 88.003906 39.882812 83.585938 38.765625 79.070312 38.039062 C 80.085938 34.339844 81.695312 33.324219 81.695312 29.550781 C 81.695312 24.4375 77.410156 21.609375 77.433594 18.230469 L 77.433594 16.195312 C 77.410156 15.871094 77.335938 15.558594 77.210938 15.253906 C 77.097656 14.953125 76.910156 14.714844 76.648438 14.53125 C 76.386719 14.351562 76.09375 14.257812 75.773438 14.257812 C 75.457031 14.257812 75.164062 14.351562 74.902344 14.53125 C 74.636719 14.714844 74.449219 14.953125 74.335938 15.253906 C 74.214844 15.558594 74.140625 15.871094 74.113281 16.195312 L 74.113281 18.28125 C 74.113281 21.65625 69.851562 24.488281 69.851562 29.601562 C 69.851562 33.375 71.4375 34.390625 72.453125 38.089844 C 67.945312 38.816406 63.535156 39.933594 59.222656 41.441406 C 53.484375 43.554688 47.578125 44.933594 41.496094 45.574219 C 35.414062 46.21875 29.351562 46.105469 23.296875 45.238281 C 23.160156 44.78125 22.949219 44.367188 22.660156 43.988281 C 22.375 43.609375 22.03125 43.292969 21.632812 43.035156 C 21.234375 42.777344 20.804688 42.597656 20.339844 42.496094 C 19.878906 42.394531 19.410156 42.375 18.941406 42.441406 C 18.472656 42.503906 18.027344 42.648438 17.609375 42.871094 C 17.191406 43.09375 16.824219 43.382812 16.507812 43.734375 C 16.191406 44.089844 15.945312 44.488281 15.769531 44.929688 C 15.597656 45.371094 15.503906 45.828125 15.492188 46.304688 C 15.484375 46.789062 15.5625 47.261719 15.726562 47.71875 C 15.890625 48.175781 16.128906 48.589844 16.445312 48.957031 C 16.757812 49.328125 17.128906 49.628906 17.550781 49.863281 C 17.976562 50.101562 18.425781 50.253906 18.90625 50.320312 C 19.386719 50.390625 19.863281 50.375 20.335938 50.269531 C 20.808594 50.167969 21.25 49.984375 21.65625 49.71875 C 22.0625 49.453125 22.410156 49.125 22.695312 48.734375 C 22.980469 48.34375 23.191406 47.914062 23.320312 47.445312 C 26.925781 48.195312 30.570312 48.640625 34.25 48.785156 C 43.152344 48.878906 51.816406 47.480469 60.238281 44.59375 C 61.933594 44.070312 63.660156 43.6875 65.417969 43.449219 C 65.90625 43.386719 66.394531 43.371094 66.882812 43.410156 C 67.371094 43.449219 67.851562 43.539062 68.320312 43.679688 C 68.792969 43.824219 69.242188 44.011719 69.671875 44.25 C 70.101562 44.488281 70.503906 44.765625 70.871094 45.089844 C 71.242188 45.414062 71.574219 45.773438 71.871094 46.164062 C 72.164062 46.558594 72.414062 46.980469 72.617188 47.425781 C 72.824219 47.875 72.976562 48.335938 73.085938 48.816406 C 73.191406 49.296875 73.246094 49.785156 73.246094 50.277344 L 73.246094 50.625 L 43.515625 52.707031 L 107.933594 52.707031 L 78.203125 50.625 L 78.203125 50.277344 C 78.203125 49.785156 78.257812 49.300781 78.359375 48.820312 C 78.464844 48.339844 78.621094 47.875 78.824219 47.429688 C 79.027344 46.980469 79.273438 46.5625 79.566406 46.167969 C 79.859375 45.773438 80.191406 45.414062 80.5625 45.089844 C 80.929688 44.769531 81.328125 44.488281 81.757812 44.25 C 82.1875 44.011719 82.636719 43.824219 83.105469 43.679688 C 83.578125 43.539062 84.054688 43.449219 84.546875 43.410156 C 85.035156 43.371094 85.519531 43.386719 86.007812 43.449219 C 87.773438 43.6875 89.507812 44.070312 91.210938 44.59375 C 99.632812 47.480469 108.296875 48.878906 117.203125 48.785156 C 120.878906 48.636719 124.523438 48.191406 128.128906 47.445312 C 128.257812 47.914062 128.46875 48.34375 128.753906 48.734375 C 129.042969 49.125 129.386719 49.453125 129.792969 49.71875 C 130.203125 49.984375 130.640625 50.167969 131.113281 50.269531 C 131.585938 50.375 132.0625 50.390625 132.542969 50.320312 C 133.023438 50.253906 133.476562 50.101562 133.898438 49.863281 C 134.324219 49.628906 134.691406 49.328125 135.007812 48.957031 C 135.320312 48.589844 135.558594 48.175781 135.722656 47.71875 C 135.886719 47.261719 135.964844 46.789062 135.957031 46.304688 C 135.945312 45.796875 135.84375 45.304688 135.644531 44.835938 C 135.449219 44.367188 135.175781 43.949219 134.820312 43.582031 C 134.46875 43.21875 134.058594 42.929688 133.597656 42.71875 C 133.132812 42.507812 132.648438 42.386719 132.140625 42.359375 Z M 132.140625 42.359375 "/></g><g clip-rule="nonzero" clip-path="url(#a797eda6c9)"><path style=" stroke:none;fill-rule:nonzero;fill:#b68c59;fill-opacity:1;" d="M 117.722656 102.078125 C 115.863281 105.851562 113.453125 109.226562 110.488281 112.203125 C 101.816406 120.890625 91.804688 124.613281 82.933594 127.867188 C 80.457031 128.808594 77.980469 129.703125 75.75 130.644531 C 73.46875 129.703125 71.066406 128.808594 68.566406 127.867188 C 59.71875 124.589844 49.683594 120.890625 41.011719 112.203125 C 38.019531 109.179688 35.589844 105.757812 33.726562 101.929688 C 31.460938 103.382812 28.980469 104.210938 26.296875 104.410156 C 28.59375 109.402344 31.683594 113.847656 35.5625 117.738281 C 49.261719 131.414062 65.441406 134.023438 75.75 139.160156 C 86.082031 134.023438 102.261719 131.414062 115.960938 117.664062 C 119.828125 113.796875 122.90625 109.378906 125.203125 104.410156 C 122.519531 104.242188 120.027344 103.464844 117.722656 102.078125 Z M 117.722656 102.078125 "/></g><g clip-rule="nonzero" clip-path="url(#01e4330b46)"><path style=" stroke:none;fill-rule:nonzero;fill:#b68c59;fill-opacity:1;" d="M 27.285156 38.089844 C 27.410156 35.605469 27.535156 32.851562 27.707031 30.070312 C 37.617188 26.671875 59.546875 18.554688 75.75 9.199219 C 91.980469 18.554688 114.003906 26.570312 123.816406 30.070312 C 123.964844 32.851562 124.113281 35.53125 124.238281 38.089844 L 131.96875 38.089844 C 131.769531 33.746094 131.523438 29.179688 131.226562 24.414062 C 131.226562 24.414062 95.96875 12.996094 75.75 0.164062 C 55.558594 12.996094 20.300781 24.414062 20.300781 24.414062 C 20.003906 29.179688 19.753906 33.746094 19.554688 38.089844 Z M 27.285156 38.089844 "/></g><g clip-rule="nonzero" clip-path="url(#84d60a5edb)"><path style=" stroke:none;fill-rule:nonzero;fill:#b68c59;fill-opacity:1;" d="M 150.328125 88.425781 C 147.441406 89.710938 144.453125 90.683594 141.363281 91.339844 C 138.277344 91.996094 135.152344 92.324219 131.992188 92.324219 C 128.835938 92.324219 125.710938 91.996094 122.621094 91.339844 C 119.53125 90.683594 116.542969 89.710938 113.660156 88.425781 C 113.492188 88.355469 113.324219 88.339844 113.148438 88.378906 C 112.972656 88.417969 112.828125 88.507812 112.710938 88.644531 C 112.59375 88.78125 112.527344 88.941406 112.515625 89.121094 C 112.503906 89.300781 112.546875 89.464844 112.644531 89.617188 C 113.792969 91.253906 115.140625 92.707031 116.6875 93.96875 C 118.238281 95.234375 119.929688 96.265625 121.761719 97.0625 C 121.214844 97.363281 120.917969 97.707031 120.917969 98.082031 C 120.917969 99.546875 125.875 100.710938 131.84375 100.710938 C 137.816406 100.710938 142.769531 99.546875 142.769531 98.082031 C 142.769531 97.734375 142.523438 97.4375 142.078125 97.136719 C 143.941406 96.355469 145.664062 95.332031 147.242188 94.066406 C 148.820312 92.800781 150.195312 91.34375 151.367188 89.691406 C 151.542969 89.546875 151.640625 89.363281 151.664062 89.136719 C 151.683594 88.914062 151.625 88.710938 151.480469 88.539062 C 151.335938 88.363281 151.152344 88.265625 150.925781 88.242188 C 150.703125 88.222656 150.503906 88.28125 150.328125 88.425781 Z M 150.328125 88.425781 "/></g><path style=" stroke:none;fill-rule:nonzero;fill:#ffffff;fill-opacity:1;" d="M 145.519531 87.679688 L 132.886719 48.214844 L 132.886719 47.546875 C 132.886719 47.320312 132.808594 47.125 132.648438 46.964844 C 132.488281 46.804688 132.292969 46.722656 132.066406 46.722656 C 131.839844 46.722656 131.648438 46.804688 131.488281 46.964844 C 131.328125 47.125 131.25 47.320312 131.25 47.546875 L 131.25 48.09375 L 118.613281 87.558594 C 118.550781 87.777344 118.570312 87.988281 118.675781 88.1875 C 118.78125 88.390625 118.941406 88.527344 119.160156 88.597656 L 119.40625 88.597656 C 119.585938 88.597656 119.75 88.546875 119.894531 88.441406 C 120.039062 88.335938 120.140625 88.199219 120.199219 88.027344 L 131.347656 53.527344 L 131.347656 90.136719 C 131.347656 90.363281 131.429688 90.558594 131.589844 90.71875 C 131.75 90.878906 131.941406 90.957031 132.167969 90.957031 C 132.390625 90.957031 132.585938 90.878906 132.746094 90.71875 C 132.90625 90.558594 132.984375 90.363281 132.984375 90.136719 L 132.984375 53.625 L 144.035156 88.175781 C 144.09375 88.347656 144.195312 88.484375 144.339844 88.589844 C 144.484375 88.695312 144.648438 88.746094 144.828125 88.75 L 145.074219 88.75 C 145.285156 88.664062 145.433594 88.515625 145.519531 88.308594 C 145.605469 88.097656 145.605469 87.890625 145.519531 87.679688 Z M 145.519531 87.679688 "/><g clip-rule="nonzero" clip-path="url(#e79cdf1087)"><path style=" stroke:none;fill-rule:nonzero;fill:#b68c59;fill-opacity:1;" d="M 132.140625 42.359375 C 131.707031 42.351562 131.285156 42.414062 130.871094 42.546875 C 130.460938 42.675781 130.078125 42.871094 129.726562 43.125 C 129.375 43.378906 129.074219 43.683594 128.824219 44.035156 C 128.570312 44.390625 128.378906 44.773438 128.253906 45.1875 C 122.199219 46.054688 116.132812 46.167969 110.054688 45.527344 C 103.972656 44.882812 98.0625 43.503906 92.324219 41.390625 C 88.003906 39.882812 83.585938 38.765625 79.070312 38.039062 C 80.085938 34.339844 81.695312 33.324219 81.695312 29.550781 C 81.695312 24.4375 77.410156 21.609375 77.433594 18.230469 L 77.433594 16.195312 C 77.410156 15.871094 77.335938 15.558594 77.210938 15.253906 C 77.097656 14.953125 76.910156 14.714844 76.648438 14.53125 C 76.386719 14.351562 76.09375 14.257812 75.773438 14.257812 C 75.457031 14.257812 75.164062 14.351562 74.902344 14.53125 C 74.636719 14.714844 74.449219 14.953125 74.335938 15.253906 C 74.214844 15.558594 74.140625 15.871094 74.113281 16.195312 L 74.113281 18.28125 C 74.113281 21.65625 69.851562 24.488281 69.851562 29.601562 C 69.851562 33.375 71.4375 34.390625 72.453125 38.089844 C 67.945312 38.816406 63.535156 39.933594 59.222656 41.441406 C 53.484375 43.554688 47.578125 44.933594 41.496094 45.574219 C 35.414062 46.21875 29.351562 46.105469 23.296875 45.238281 C 23.160156 44.78125 22.949219 44.367188 22.660156 43.988281 C 22.375 43.609375 22.03125 43.292969 21.632812 43.035156 C 21.234375 42.777344 20.804688 42.597656 20.339844 42.496094 C 19.878906 42.394531 19.410156 42.375 18.941406 42.441406 C 18.472656 42.503906 18.027344 42.648438 17.609375 42.871094 C 17.191406 43.09375 16.824219 43.382812 16.507812 43.734375 C 16.191406 44.089844 15.945312 44.488281 15.769531 44.929688 C 15.597656 45.371094 15.503906 45.828125 15.492188 46.304688 C 15.484375 46.789062 15.5625 47.261719 15.726562 47.71875 C 15.890625 48.175781 16.128906 48.589844 16.445312 48.957031 C 16.757812 49.328125 17.128906 49.628906 17.550781 49.863281 C 17.976562 50.101562 18.425781 50.253906 18.90625 50.320312 C 19.386719 50.390625 19.863281 50.375 20.335938 50.269531 C 20.808594 50.167969 21.25 49.984375 21.65625 49.71875 C 22.0625 49.453125 22.410156 49.125 22.695312 48.734375 C 22.980469 48.34375 23.191406 47.914062 23.320312 47.445312 C 26.925781 48.195312 30.570312 48.640625 34.25 48.785156 C 43.152344 48.878906 51.816406 47.480469 60.238281 44.59375 C 61.933594 44.070312 63.660156 43.6875 65.417969 43.449219 C 65.90625 43.386719 66.394531 43.371094 66.882812 43.410156 C 67.371094 43.449219 67.851562 43.539062 68.320312 43.679688 C 68.792969 43.824219 69.242188 44.011719 69.671875 44.25 C 70.101562 44.488281 70.503906 44.765625 70.871094 45.089844 C 71.242188 45.414062 71.574219 45.773438 71.871094 46.164062 C 72.164062 46.558594 72.414062 46.980469 72.617188 47.425781 C 72.824219 47.875 72.976562 48.335938 73.085938 48.816406 C 73.191406 49.296875 73.246094 49.785156 73.246094 50.277344 L 73.246094 50.625 L 43.515625 52.707031 L 107.933594 52.707031 L 78.203125 50.625 L 78.203125 50.277344 C 78.203125 49.785156 78.257812 49.300781 78.359375 48.820312 C 78.464844 48.339844 78.621094 47.875 78.824219 47.429688 C 79.027344 46.980469 79.273438 46.5625 79.566406 46.167969 C 79.859375 45.773438 80.191406 45.414062 80.5625 45.089844 C 80.929688 44.769531 81.328125 44.488281 81.757812 44.25 C 82.1875 44.011719 82.636719 43.824219 83.105469 43.679688 C 83.578125 43.539062 84.054688 43.449219 84.546875 43.410156 C 85.035156 43.371094 85.519531 43.386719 86.007812 43.449219 C 87.773438 43.6875 89.507812 44.070312 91.210938 44.59375 C 99.632812 47.480469 108.296875 48.878906 117.203125 48.785156 C 120.878906 48.636719 124.523438 48.191406 128.128906 47.445312 C 128.257812 47.914062 128.46875 48.34375 128.753906 48.734375 C 129.042969 49.125 129.386719 49.453125 129.792969 49.71875 C 130.203125 49.984375 130.640625 50.167969 131.113281 50.269531 C 131.585938 50.375 132.0625 50.390625 132.542969 50.320312 C 133.023438 50.253906 133.476562 50.101562 133.898438 49.863281 C 134.324219 49.628906 134.691406 49.328125 135.007812 48.957031 C 135.320312 48.589844 135.558594 48.175781 135.722656 47.71875 C 135.886719 47.261719 135.964844 46.789062 135.957031 46.304688 C 135.945312 45.796875 135.84375 45.304688 135.644531 44.835938 C 135.449219 44.367188 135.175781 43.949219 134.820312 43.582031 C 134.46875 43.21875 134.058594 42.929688 133.597656 42.71875 C 133.132812 42.507812 132.648438 42.386719 132.140625 42.359375 Z M 132.140625 42.359375 "/></g><g clip-rule="nonzero" clip-path="url(#bb1e3bce91)"><path style=" stroke:none;fill-rule:nonzero;fill:#b68c59;fill-opacity:1;" d="M 117.722656 102.078125 C 115.863281 105.851562 113.453125 109.226562 110.488281 112.203125 C 101.816406 120.890625 91.804688 124.613281 82.933594 127.867188 C 80.457031 128.808594 77.980469 129.703125 75.75 130.644531 C 73.46875 129.703125 71.066406 128.808594 68.566406 127.867188 C 59.71875 124.589844 49.683594 120.890625 41.011719 112.203125 C 38.019531 109.179688 35.589844 105.757812 33.726562 101.929688 C 31.460938 103.382812 28.980469 104.210938 26.296875 104.410156 C 28.59375 109.402344 31.683594 113.847656 35.5625 117.738281 C 49.261719 131.414062 65.441406 134.023438 75.75 139.160156 C 86.082031 134.023438 102.261719 131.414062 115.960938 117.664062 C 119.828125 113.796875 122.90625 109.378906 125.203125 104.410156 C 122.519531 104.242188 120.027344 103.464844 117.722656 102.078125 Z M 117.722656 102.078125 "/></g></g></svg>