<svg xmlns="http://www.w3.org/2000/svg" xmlns:xlink="http://www.w3.org/1999/xlink" width="262" zoomAndPan="magnify" viewBox="0 0 196.5 48" height="64" preserveAspectRatio="xMidYMid meet" version="1.2"><defs><clipPath id="fc41354dbf"><path d="M 8 0.894531 L 45 0.894531 L 45 14 L 8 14 Z M 8 0.894531 "/></clipPath><clipPath id="533ef68a89"><path d="M 1.761719 29 L 15 29 L 15 34 L 1.761719 34 Z M 1.761719 29 "/></clipPath><clipPath id="6640847b90"><path d="M 38 29 L 51.71875 29 L 51.71875 34 L 38 34 Z M 38 29 "/></clipPath><clipPath id="84672b7289"><path d="M 10 34 L 43 34 L 43 46.445312 L 10 46.445312 Z M 10 34 "/></clipPath></defs><g id="b825c144c0"><g style="fill:#868686;fill-opacity:1;"><g transform="translate(22.437133, 27.65764)"><path style="stroke:none" d="M 0.15625 -0.171875 C 0.550781 -0.460938 0.851562 -0.722656 1.0625 -0.953125 C 1.28125 -1.191406 1.390625 -1.421875 1.390625 -1.640625 C 1.390625 -1.785156 1.351562 -1.898438 1.28125 -1.984375 C 1.207031 -2.078125 1.085938 -2.125 0.921875 -2.125 C 0.753906 -2.125 0.625 -2.070312 0.53125 -1.96875 C 0.445312 -1.875 0.398438 -1.738281 0.390625 -1.5625 L 0.1875 -1.5625 C 0.195312 -1.800781 0.265625 -1.984375 0.390625 -2.109375 C 0.523438 -2.242188 0.703125 -2.3125 0.921875 -2.3125 C 1.117188 -2.3125 1.28125 -2.253906 1.40625 -2.140625 C 1.539062 -2.023438 1.609375 -1.863281 1.609375 -1.65625 C 1.609375 -1.394531 1.5 -1.144531 1.28125 -0.90625 C 1.070312 -0.664062 0.8125 -0.429688 0.5 -0.203125 L 1.671875 -0.203125 L 1.671875 -0.015625 L 0.15625 -0.015625 Z M 0.15625 -0.171875 "/></g></g><g style="fill:#868686;fill-opacity:1;"><g transform="translate(24.873134, 27.65764)"><path style="stroke:none" d="M 0.203125 -1.15625 C 0.203125 -1.519531 0.257812 -1.800781 0.375 -2 C 0.488281 -2.207031 0.691406 -2.3125 0.984375 -2.3125 C 1.265625 -2.3125 1.460938 -2.207031 1.578125 -2 C 1.691406 -1.800781 1.75 -1.519531 1.75 -1.15625 C 1.75 -0.789062 1.691406 -0.503906 1.578125 -0.296875 C 1.460938 -0.0976562 1.265625 0 0.984375 0 C 0.691406 0 0.488281 -0.0976562 0.375 -0.296875 C 0.257812 -0.503906 0.203125 -0.789062 0.203125 -1.15625 Z M 1.53125 -1.15625 C 1.53125 -1.351562 1.515625 -1.519531 1.484375 -1.65625 C 1.460938 -1.789062 1.410156 -1.898438 1.328125 -1.984375 C 1.242188 -2.066406 1.128906 -2.109375 0.984375 -2.109375 C 0.828125 -2.109375 0.707031 -2.066406 0.625 -1.984375 C 0.539062 -1.898438 0.484375 -1.789062 0.453125 -1.65625 C 0.429688 -1.519531 0.421875 -1.351562 0.421875 -1.15625 C 0.421875 -0.957031 0.429688 -0.785156 0.453125 -0.640625 C 0.484375 -0.503906 0.539062 -0.394531 0.625 -0.3125 C 0.707031 -0.238281 0.828125 -0.203125 0.984375 -0.203125 C 1.128906 -0.203125 1.242188 -0.238281 1.328125 -0.3125 C 1.410156 -0.394531 1.460938 -0.503906 1.484375 -0.640625 C 1.515625 -0.785156 1.53125 -0.957031 1.53125 -1.15625 Z M 1.53125 -1.15625 "/></g></g><g style="fill:#868686;fill-opacity:1;"><g transform="translate(27.448884, 27.65764)"><path style="stroke:none" d="M 0.09375 -2.078125 L 0.09375 -2.28125 L 0.640625 -2.28125 L 0.640625 0 L 0.40625 0 L 0.40625 -2.078125 Z M 0.09375 -2.078125 "/></g></g><g style="fill:#868686;fill-opacity:1;"><g transform="translate(28.995601, 27.65764)"><path style="stroke:none" d="M 0.640625 -1.1875 C 0.515625 -1.226562 0.414062 -1.289062 0.34375 -1.375 C 0.28125 -1.46875 0.25 -1.578125 0.25 -1.703125 C 0.25 -1.816406 0.273438 -1.921875 0.328125 -2.015625 C 0.390625 -2.109375 0.472656 -2.179688 0.578125 -2.234375 C 0.691406 -2.285156 0.828125 -2.3125 0.984375 -2.3125 C 1.140625 -2.3125 1.273438 -2.285156 1.390625 -2.234375 C 1.503906 -2.179688 1.585938 -2.109375 1.640625 -2.015625 C 1.703125 -1.921875 1.734375 -1.816406 1.734375 -1.703125 C 1.734375 -1.578125 1.695312 -1.46875 1.625 -1.375 C 1.5625 -1.28125 1.460938 -1.21875 1.328125 -1.1875 C 1.472656 -1.144531 1.585938 -1.070312 1.671875 -0.96875 C 1.753906 -0.875 1.796875 -0.753906 1.796875 -0.609375 C 1.796875 -0.472656 1.757812 -0.351562 1.6875 -0.25 C 1.625 -0.144531 1.53125 -0.0664062 1.40625 -0.015625 C 1.289062 0.0351562 1.148438 0.0625 0.984375 0.0625 C 0.828125 0.0625 0.6875 0.0351562 0.5625 -0.015625 C 0.445312 -0.0664062 0.351562 -0.144531 0.28125 -0.25 C 0.21875 -0.351562 0.1875 -0.472656 0.1875 -0.609375 C 0.1875 -0.753906 0.226562 -0.875 0.3125 -0.96875 C 0.394531 -1.070312 0.503906 -1.144531 0.640625 -1.1875 Z M 1.515625 -1.6875 C 1.515625 -1.820312 1.46875 -1.925781 1.375 -2 C 1.28125 -2.082031 1.148438 -2.125 0.984375 -2.125 C 0.828125 -2.125 0.695312 -2.082031 0.59375 -2 C 0.5 -1.925781 0.453125 -1.820312 0.453125 -1.6875 C 0.453125 -1.550781 0.5 -1.441406 0.59375 -1.359375 C 0.695312 -1.285156 0.828125 -1.25 0.984375 -1.25 C 1.148438 -1.25 1.28125 -1.285156 1.375 -1.359375 C 1.46875 -1.441406 1.515625 -1.550781 1.515625 -1.6875 Z M 0.984375 -1.078125 C 0.816406 -1.078125 0.675781 -1.035156 0.5625 -0.953125 C 0.457031 -0.878906 0.40625 -0.765625 0.40625 -0.609375 C 0.40625 -0.453125 0.457031 -0.332031 0.5625 -0.25 C 0.664062 -0.164062 0.804688 -0.125 0.984375 -0.125 C 1.171875 -0.125 1.316406 -0.164062 1.421875 -0.25 C 1.523438 -0.34375 1.578125 -0.460938 1.578125 -0.609375 C 1.578125 -0.765625 1.519531 -0.878906 1.40625 -0.953125 C 1.300781 -1.035156 1.160156 -1.078125 0.984375 -1.078125 Z M 0.984375 -1.078125 "/></g></g><g clip-rule="nonzero" clip-path="url(#fc41354dbf)"><path style=" stroke:none;fill-rule:nonzero;fill:#314e52;fill-opacity:1;" d="M 10.6875 13.347656 C 10.726562 12.539062 10.769531 11.636719 10.824219 10.726562 C 14.070312 9.617188 21.253906 6.960938 26.558594 3.902344 C 31.875 6.960938 39.089844 9.582031 42.304688 10.726562 C 42.351562 11.636719 42.398438 12.511719 42.441406 13.347656 L 44.972656 13.347656 C 44.90625 11.929688 44.828125 10.433594 44.730469 8.878906 C 44.730469 8.878906 33.179688 5.144531 26.558594 0.949219 C 19.945312 5.144531 8.398438 8.878906 8.398438 8.878906 C 8.300781 10.433594 8.21875 11.929688 8.15625 13.347656 Z M 10.6875 13.347656 "/></g><g clip-rule="nonzero" clip-path="url(#533ef68a89)"><path style=" stroke:none;fill-rule:nonzero;fill:#314e52;fill-opacity:1;" d="M 14.152344 29.804688 C 12.246094 30.6875 10.246094 31.113281 8.148438 31.082031 C 6.050781 31.109375 4.050781 30.6875 2.148438 29.804688 C 2.039062 29.765625 1.941406 29.785156 1.859375 29.871094 C 1.777344 29.957031 1.761719 30.054688 1.808594 30.164062 C 2.574219 31.253906 3.570312 32.066406 4.796875 32.597656 C 4.617188 32.695312 4.519531 32.808594 4.519531 32.929688 C 4.519531 33.410156 6.140625 33.789062 8.097656 33.789062 C 10.054688 33.789062 11.675781 33.410156 11.675781 32.929688 C 11.675781 32.816406 11.59375 32.71875 11.449219 32.621094 C 12.695312 32.097656 13.710938 31.289062 14.492188 30.1875 C 14.558594 30.074219 14.550781 29.96875 14.460938 29.871094 C 14.375 29.773438 14.269531 29.75 14.152344 29.804688 Z M 14.152344 29.804688 "/></g><g clip-rule="nonzero" clip-path="url(#6640847b90)"><path style=" stroke:none;fill-rule:nonzero;fill:#314e52;fill-opacity:1;" d="M 50.984375 29.804688 C 50.039062 30.226562 49.0625 30.542969 48.050781 30.757812 C 47.039062 30.972656 46.015625 31.082031 44.980469 31.082031 C 43.945312 31.082031 42.921875 30.972656 41.910156 30.757812 C 40.898438 30.542969 39.921875 30.226562 38.976562 29.804688 C 38.855469 29.753906 38.75 29.777344 38.664062 29.878906 C 38.578125 29.976562 38.570312 30.085938 38.644531 30.195312 C 39.410156 31.285156 40.40625 32.097656 41.628906 32.628906 C 41.449219 32.726562 41.351562 32.839844 41.351562 32.960938 C 41.351562 33.441406 42.976562 33.824219 44.933594 33.824219 C 46.886719 33.824219 48.511719 33.441406 48.511719 32.960938 C 48.511719 32.847656 48.429688 32.75 48.285156 32.65625 C 49.527344 32.132812 50.542969 31.320312 51.328125 30.21875 C 51.382812 30.171875 51.414062 30.113281 51.421875 30.039062 C 51.429688 29.964844 51.410156 29.898438 51.363281 29.84375 C 51.316406 29.785156 51.253906 29.753906 51.183594 29.746094 C 51.109375 29.738281 51.042969 29.757812 50.984375 29.804688 Z M 50.984375 29.804688 "/></g><path style=" stroke:none;fill-rule:nonzero;fill:#868686;fill-opacity:1;" d="M 8.398438 16.617188 L 8.398438 16.441406 C 8.371094 16.289062 8.28125 16.210938 8.125 16.210938 C 7.972656 16.210938 7.882812 16.289062 7.855469 16.441406 L 7.855469 16.660156 L 3.722656 29.5625 C 3.699219 29.632812 3.703125 29.699219 3.738281 29.765625 C 3.773438 29.832031 3.824219 29.875 3.894531 29.894531 C 3.925781 29.902344 3.953125 29.902344 3.984375 29.894531 C 4.113281 29.898438 4.199219 29.835938 4.234375 29.707031 L 7.855469 18.429688 L 7.855469 30.367188 C 7.882812 30.519531 7.972656 30.59375 8.125 30.59375 C 8.28125 30.59375 8.371094 30.519531 8.398438 30.367188 L 8.398438 18.394531 L 12.019531 29.683594 C 12.058594 29.808594 12.144531 29.871094 12.277344 29.871094 L 12.359375 29.871094 C 12.523438 29.8125 12.582031 29.699219 12.535156 29.53125 Z M 8.398438 16.617188 "/><path style=" stroke:none;fill-rule:nonzero;fill:#868686;fill-opacity:1;" d="M 49.410156 29.5625 L 45.273438 16.660156 L 45.273438 16.441406 C 45.273438 16.367188 45.246094 16.304688 45.195312 16.25 C 45.140625 16.199219 45.078125 16.171875 45.003906 16.171875 C 44.929688 16.171875 44.867188 16.199219 44.816406 16.25 C 44.761719 16.304688 44.738281 16.367188 44.738281 16.441406 L 44.738281 16.617188 L 40.597656 29.523438 C 40.578125 29.59375 40.585938 29.664062 40.617188 29.730469 C 40.652344 29.792969 40.707031 29.839844 40.777344 29.863281 L 40.859375 29.863281 C 40.988281 29.863281 41.074219 29.800781 41.117188 29.675781 L 44.769531 18.394531 L 44.769531 30.367188 C 44.769531 30.441406 44.796875 30.503906 44.847656 30.554688 C 44.902344 30.609375 44.964844 30.632812 45.039062 30.632812 C 45.113281 30.632812 45.175781 30.609375 45.226562 30.554688 C 45.277344 30.503906 45.304688 30.441406 45.304688 30.367188 L 45.304688 18.429688 L 48.925781 29.726562 C 48.96875 29.847656 49.054688 29.910156 49.183594 29.910156 L 49.265625 29.910156 C 49.332031 29.882812 49.382812 29.835938 49.410156 29.765625 C 49.4375 29.699219 49.441406 29.632812 49.410156 29.5625 Z M 49.410156 29.5625 "/><path style=" stroke:none;fill-rule:nonzero;fill:#314e52;fill-opacity:1;" d="M 35.332031 37.078125 C 34.414062 36.363281 33.375 36.007812 32.214844 36.007812 L 29.636719 36.007812 C 29.527344 36.011719 29.417969 35.996094 29.316406 35.957031 C 29.214844 35.921875 29.125 35.863281 29.046875 35.785156 C 28.96875 35.707031 28.910156 35.617188 28.871094 35.511719 C 28.832031 35.410156 28.816406 35.304688 28.824219 35.195312 C 28.824219 35.074219 28.765625 35.019531 28.644531 35.023438 L 28.148438 35.023438 L 27.929688 33.410156 L 27.378906 33.351562 L 27.378906 31.4375 L 35.601562 30.625 L 17.535156 30.625 L 25.75 31.4375 C 25.75 32.101562 25.75 32.726562 25.75 33.3125 L 25.195312 33.367188 L 24.945312 35.03125 L 24.480469 35.03125 C 24.363281 35.027344 24.304688 35.082031 24.304688 35.203125 C 24.304688 35.417969 24.230469 35.605469 24.082031 35.761719 C 23.929688 35.917969 23.75 36.003906 23.53125 36.015625 L 20.917969 36.015625 C 19.757812 36.015625 18.714844 36.371094 17.796875 37.085938 L 17.480469 37.335938 C 17.386719 37.40625 17.355469 37.496094 17.394531 37.609375 C 17.429688 37.71875 17.507812 37.773438 17.625 37.773438 L 35.476562 37.773438 C 35.59375 37.773438 35.671875 37.71875 35.710938 37.609375 C 35.746094 37.496094 35.71875 37.40625 35.625 37.335938 Z M 35.332031 37.078125 "/><path style=" stroke:none;fill-rule:nonzero;fill:#314e52;fill-opacity:1;" d="M 45.03125 14.746094 C 44.738281 14.742188 44.472656 14.824219 44.238281 14.996094 C 44.003906 15.167969 43.839844 15.390625 43.753906 15.667969 C 39.730469 16.246094 35.804688 15.832031 31.988281 14.429688 C 30.574219 13.9375 29.125 13.570312 27.648438 13.332031 C 27.980469 12.125 28.507812 11.789062 28.507812 10.558594 C 28.507812 8.886719 27.101562 7.960938 27.113281 6.855469 L 27.113281 6.191406 C 27.101562 6.085938 27.078125 5.980469 27.039062 5.882812 C 26.957031 5.667969 26.800781 5.558594 26.566406 5.558594 C 26.335938 5.558594 26.179688 5.667969 26.097656 5.882812 C 26.058594 5.980469 26.03125 6.085938 26.023438 6.191406 L 26.023438 6.871094 C 26.023438 7.976562 24.628906 8.902344 24.628906 10.574219 C 24.628906 11.808594 25.148438 12.140625 25.480469 13.347656 C 24.003906 13.585938 22.558594 13.953125 21.148438 14.445312 C 17.328125 15.847656 13.40625 16.261719 9.378906 15.6875 C 9.285156 15.378906 9.105469 15.140625 8.835938 14.964844 C 8.566406 14.792969 8.269531 14.726562 7.953125 14.769531 C 7.636719 14.816406 7.371094 14.957031 7.15625 15.195312 C 6.941406 15.433594 6.832031 15.714844 6.824219 16.035156 C 6.820312 16.363281 6.921875 16.652344 7.136719 16.902344 C 7.347656 17.152344 7.617188 17.300781 7.941406 17.347656 C 8.265625 17.394531 8.566406 17.328125 8.84375 17.152344 C 9.117188 16.972656 9.300781 16.722656 9.386719 16.40625 C 10.570312 16.652344 11.761719 16.796875 12.96875 16.847656 C 15.882812 16.875 18.71875 16.417969 21.480469 15.476562 C 22.035156 15.304688 22.601562 15.179688 23.175781 15.101562 C 23.5 15.058594 23.816406 15.082031 24.125 15.175781 C 24.4375 15.269531 24.71875 15.425781 24.960938 15.636719 C 25.207031 15.851562 25.398438 16.105469 25.535156 16.402344 C 25.667969 16.699219 25.738281 17.007812 25.738281 17.332031 L 25.738281 17.445312 L 16.003906 18.128906 L 37.101562 18.128906 L 27.363281 17.445312 L 27.363281 17.332031 C 27.363281 17.007812 27.429688 16.699219 27.566406 16.402344 C 27.699219 16.105469 27.890625 15.851562 28.136719 15.636719 C 28.378906 15.425781 28.65625 15.269531 28.96875 15.175781 C 29.28125 15.082031 29.597656 15.058594 29.917969 15.101562 C 30.496094 15.179688 31.066406 15.304688 31.625 15.476562 C 34.382812 16.417969 37.21875 16.875 40.136719 16.847656 C 41.339844 16.796875 42.535156 16.652344 43.714844 16.40625 C 43.804688 16.722656 43.984375 16.972656 44.261719 17.152344 C 44.535156 17.328125 44.835938 17.394531 45.160156 17.347656 C 45.484375 17.300781 45.753906 17.152344 45.96875 16.902344 C 46.179688 16.652344 46.285156 16.363281 46.277344 16.035156 C 46.273438 15.867188 46.242188 15.707031 46.175781 15.554688 C 46.113281 15.402344 46.023438 15.265625 45.90625 15.144531 C 45.792969 15.027344 45.65625 14.929688 45.507812 14.863281 C 45.355469 14.792969 45.195312 14.753906 45.03125 14.746094 Z M 45.03125 14.746094 "/><path style=" stroke:none;fill-rule:nonzero;fill:#868686;fill-opacity:1;" d="M 19.816406 23.671875 C 19.671875 23.671875 19.53125 23.644531 19.394531 23.589844 C 19.269531 23.542969 19.171875 23.460938 19.09375 23.355469 C 19.015625 23.246094 18.980469 23.128906 18.980469 22.996094 L 19.46875 22.996094 C 19.472656 23.082031 19.503906 23.15625 19.566406 23.214844 C 19.636719 23.273438 19.714844 23.300781 19.808594 23.296875 C 19.902344 23.304688 19.984375 23.277344 20.058594 23.226562 C 20.121094 23.171875 20.152344 23.105469 20.148438 23.023438 C 20.152344 22.957031 20.132812 22.902344 20.09375 22.851562 C 20.042969 22.808594 19.992188 22.773438 19.929688 22.753906 C 19.847656 22.71875 19.765625 22.691406 19.679688 22.671875 C 19.53125 22.625 19.410156 22.582031 19.320312 22.542969 C 19.226562 22.5 19.148438 22.433594 19.085938 22.347656 C 19.011719 22.246094 18.980469 22.132812 18.988281 22.007812 C 18.976562 21.722656 19.105469 21.53125 19.371094 21.429688 C 19.5 21.375 19.640625 21.347656 19.785156 21.351562 C 19.992188 21.339844 20.183594 21.398438 20.351562 21.519531 C 20.507812 21.640625 20.585938 21.796875 20.59375 21.992188 L 20.09375 21.992188 C 20.09375 21.910156 20.058594 21.851562 19.996094 21.804688 C 19.925781 21.742188 19.84375 21.714844 19.75 21.722656 C 19.671875 21.71875 19.601562 21.742188 19.539062 21.796875 C 19.476562 21.847656 19.449219 21.910156 19.460938 21.992188 C 19.457031 22.050781 19.476562 22.101562 19.515625 22.144531 C 19.558594 22.1875 19.613281 22.222656 19.671875 22.242188 L 19.921875 22.324219 C 20.066406 22.371094 20.1875 22.414062 20.277344 22.453125 C 20.375 22.5 20.457031 22.566406 20.523438 22.648438 C 20.59375 22.75 20.625 22.863281 20.621094 22.988281 C 20.617188 23.109375 20.589844 23.222656 20.53125 23.332031 C 20.460938 23.441406 20.371094 23.523438 20.253906 23.582031 C 20.113281 23.644531 19.96875 23.671875 19.816406 23.671875 Z M 23.355469 21.382812 L 23.355469 23.671875 L 22.898438 23.671875 L 22.898438 21.40625 Z M 27.621094 23.671875 L 27.167969 23.671875 L 26.105469 22.113281 L 26.105469 23.671875 L 25.652344 23.671875 L 25.652344 21.398438 L 26.105469 21.398438 L 27.136719 22.957031 L 27.136719 21.398438 L 27.589844 21.398438 Z M 29.847656 22.535156 C 29.84375 22.324219 29.890625 22.121094 29.992188 21.933594 C 30.09375 21.765625 30.234375 21.628906 30.40625 21.527344 C 30.585938 21.421875 30.78125 21.371094 30.992188 21.375 C 31.234375 21.367188 31.453125 21.433594 31.65625 21.570312 C 31.855469 21.703125 31.988281 21.882812 32.054688 22.113281 L 31.535156 22.113281 C 31.492188 22.003906 31.417969 21.921875 31.316406 21.871094 C 31.214844 21.8125 31.105469 21.785156 30.992188 21.789062 C 30.714844 21.773438 30.515625 21.886719 30.398438 22.136719 C 30.335938 22.261719 30.304688 22.394531 30.308594 22.535156 C 30.308594 22.675781 30.335938 22.808594 30.398438 22.933594 C 30.515625 23.179688 30.714844 23.296875 30.992188 23.28125 C 31.105469 23.285156 31.214844 23.257812 31.316406 23.199219 C 31.414062 23.144531 31.488281 23.0625 31.535156 22.957031 L 32.054688 22.957031 C 31.988281 23.1875 31.855469 23.367188 31.65625 23.5 C 31.449219 23.632812 31.21875 23.6875 30.972656 23.671875 C 30.765625 23.675781 30.570312 23.625 30.390625 23.523438 C 30.21875 23.425781 30.078125 23.289062 29.976562 23.121094 C 29.882812 22.933594 29.839844 22.742188 29.847656 22.535156 Z M 34.78125 21.773438 L 34.78125 22.339844 L 35.542969 22.339844 L 35.542969 22.699219 L 34.78125 22.699219 L 34.78125 23.296875 L 35.640625 23.296875 L 35.640625 23.671875 L 34.324219 23.671875 L 34.324219 21.398438 L 35.640625 21.398438 L 35.640625 21.773438 Z M 34.78125 21.773438 "/><g clip-rule="nonzero" clip-path="url(#84672b7289)"><path style=" stroke:none;fill-rule:nonzero;fill:#314e52;fill-opacity:1;" d="M 40.304688 34.269531 C 39.699219 35.503906 38.910156 36.605469 37.9375 37.582031 C 35.097656 40.421875 31.816406 41.636719 28.914062 42.699219 C 28.101562 43.007812 27.289062 43.300781 26.558594 43.609375 C 25.8125 43.300781 25.027344 43.007812 24.207031 42.699219 C 21.308594 41.628906 18.023438 40.421875 15.183594 37.582031 C 14.203125 36.59375 13.40625 35.472656 12.796875 34.21875 C 12.054688 34.695312 11.242188 34.96875 10.363281 35.03125 C 11.117188 36.664062 12.128906 38.117188 13.398438 39.390625 C 17.882812 43.859375 23.183594 44.714844 26.558594 46.394531 C 29.945312 44.714844 35.242188 43.859375 39.730469 39.367188 C 40.996094 38.101562 42.003906 36.65625 42.757812 35.03125 C 41.878906 34.976562 41.0625 34.722656 40.304688 34.269531 Z M 40.304688 34.269531 "/></g><g style="fill:#011c1a;fill-opacity:1;"><g transform="translate(61.193883, 27.189199)"><path style="stroke:none" d="M 8.984375 0 L 1.046875 0 L 1.046875 -0.25 L 1.375 -0.25 C 1.976562 -0.25 2.441406 -0.507812 2.765625 -1.03125 C 2.890625 -1.257812 2.960938 -1.519531 2.984375 -1.8125 L 2.984375 -15.75 C 2.960938 -16.1875 2.796875 -16.550781 2.484375 -16.84375 C 2.179688 -17.144531 1.8125 -17.296875 1.375 -17.296875 L 1.046875 -17.296875 L 1.046875 -17.546875 L 8.328125 -17.546875 C 10.265625 -17.546875 11.804688 -17.195312 12.953125 -16.5 C 14.097656 -15.800781 14.679688 -14.722656 14.703125 -13.265625 C 14.679688 -12.523438 14.519531 -11.878906 14.21875 -11.328125 C 13.664062 -10.296875 12.796875 -9.707031 11.609375 -9.5625 C 12.898438 -9.4375 13.960938 -8.953125 14.796875 -8.109375 C 15.628906 -7.265625 16.046875 -6.191406 16.046875 -4.890625 C 16.046875 -3.316406 15.414062 -2.109375 14.15625 -1.265625 C 12.894531 -0.421875 11.171875 0 8.984375 0 Z M 10.6875 -12.9375 C 10.664062 -15.289062 9.59375 -16.46875 7.46875 -16.46875 L 6.75 -16.46875 L 6.75 -1.15625 L 7.90625 -1.15625 C 7.914062 -1.15625 7.929688 -1.15625 7.953125 -1.15625 C 9.109375 -1.15625 10.023438 -1.488281 10.703125 -2.15625 C 11.390625 -2.820312 11.734375 -3.835938 11.734375 -5.203125 C 11.734375 -6.578125 11.347656 -7.597656 10.578125 -8.265625 C 9.804688 -8.941406 8.8125 -9.28125 7.59375 -9.28125 L 7.59375 -9.5 C 8.46875 -9.5 9.195312 -9.78125 9.78125 -10.34375 C 10.363281 -10.90625 10.664062 -11.769531 10.6875 -12.9375 Z M 10.6875 -12.9375 "/></g></g><g style="fill:#011c1a;fill-opacity:1;"><g transform="translate(78.091524, 27.189199)"><path style="stroke:none" d="M 18.515625 -0.25 L 18.734375 -0.25 L 18.734375 0 L 10.734375 0 L 10.734375 -0.25 L 10.96875 -0.25 C 11.332031 -0.25 11.601562 -0.359375 11.78125 -0.578125 C 11.957031 -0.804688 12.046875 -1.019531 12.046875 -1.21875 C 12.046875 -1.425781 12.003906 -1.628906 11.921875 -1.828125 L 10.6875 -4.921875 L 4.828125 -4.921875 L 3.515625 -1.828125 C 3.429688 -1.609375 3.390625 -1.398438 3.390625 -1.203125 C 3.390625 -1.015625 3.476562 -0.804688 3.65625 -0.578125 C 3.84375 -0.359375 4.125 -0.25 4.5 -0.25 L 4.703125 -0.25 L 4.703125 0 L -0.671875 0 L -0.671875 -0.25 L -0.4375 -0.25 C -0.0625 -0.25 0.316406 -0.363281 0.703125 -0.59375 C 1.085938 -0.832031 1.40625 -1.1875 1.65625 -1.65625 L 7.453125 -14.765625 C 8.242188 -16.421875 8.660156 -17.519531 8.703125 -18.0625 L 8.9375 -18.0625 L 16.375 -1.703125 C 16.632812 -1.222656 16.953125 -0.859375 17.328125 -0.609375 C 17.710938 -0.367188 18.109375 -0.25 18.515625 -0.25 Z M 5.25 -5.96875 L 10.265625 -5.96875 L 7.828125 -12.140625 Z M 5.25 -5.96875 "/></g></g><g style="fill:#011c1a;fill-opacity:1;"><g transform="translate(96.042136, 27.189199)"><path style="stroke:none" d="M 13.265625 -0.25 C 13.703125 -0.25 14.035156 -0.359375 14.265625 -0.578125 C 14.648438 -0.960938 14.851562 -1.375 14.875 -1.8125 L 14.875 -8.203125 L 6.75 -8.203125 L 6.75 -1.828125 C 6.75 -1.390625 6.90625 -1.015625 7.21875 -0.703125 C 7.539062 -0.398438 7.914062 -0.25 8.34375 -0.25 L 8.65625 -0.25 L 8.671875 0 L 1.046875 0 L 1.046875 -0.25 L 1.375 -0.25 C 1.8125 -0.25 2.179688 -0.398438 2.484375 -0.703125 C 2.796875 -1.015625 2.960938 -1.390625 2.984375 -1.828125 L 2.984375 -15.71875 C 2.960938 -16.15625 2.796875 -16.523438 2.484375 -16.828125 C 2.179688 -17.140625 1.8125 -17.296875 1.375 -17.296875 L 1.046875 -17.296875 L 1.046875 -17.546875 L 8.671875 -17.546875 L 8.65625 -17.296875 L 8.34375 -17.296875 C 7.914062 -17.296875 7.539062 -17.140625 7.21875 -16.828125 C 6.90625 -16.523438 6.75 -16.15625 6.75 -15.71875 L 6.75 -9.28125 L 14.875 -9.28125 L 14.875 -15.71875 C 14.851562 -16.15625 14.6875 -16.523438 14.375 -16.828125 C 14.070312 -17.140625 13.703125 -17.296875 13.265625 -17.296875 L 12.9375 -17.296875 L 12.9375 -17.546875 L 20.5625 -17.546875 L 20.5625 -17.296875 L 20.234375 -17.296875 C 19.804688 -17.296875 19.429688 -17.140625 19.109375 -16.828125 C 18.796875 -16.523438 18.640625 -16.15625 18.640625 -15.71875 L 18.640625 -1.828125 C 18.640625 -1.390625 18.796875 -1.015625 19.109375 -0.703125 C 19.429688 -0.398438 19.804688 -0.25 20.234375 -0.25 L 20.5625 -0.25 L 20.5625 0 L 12.9375 0 L 12.9375 -0.25 Z M 13.265625 -0.25 "/></g></g><g style="fill:#011c1a;fill-opacity:1;"><g transform="translate(117.627997, 27.189199)"><path style="stroke:none" d="M 7.96875 -16.453125 L 6.890625 -16.453125 C 6.859375 -16.453125 6.835938 -16.453125 6.828125 -16.453125 L 6.828125 -1.828125 C 6.835938 -1.390625 7 -1.015625 7.3125 -0.703125 C 7.625 -0.398438 7.992188 -0.25 8.421875 -0.25 L 8.75 -0.25 L 8.75 0 L 1.125 0 L 1.125 -0.25 L 1.453125 -0.25 C 2.054688 -0.25 2.515625 -0.507812 2.828125 -1.03125 C 2.960938 -1.257812 3.039062 -1.519531 3.0625 -1.8125 L 3.0625 -15.71875 C 3.039062 -16.15625 2.875 -16.523438 2.5625 -16.828125 C 2.257812 -17.140625 1.890625 -17.296875 1.453125 -17.296875 L 1.125 -17.296875 L 1.125 -17.546875 L 9.734375 -17.546875 C 11.347656 -17.546875 12.71875 -17.195312 13.84375 -16.5 C 14.414062 -16.144531 14.867188 -15.65625 15.203125 -15.03125 C 15.535156 -14.40625 15.703125 -13.585938 15.703125 -12.578125 C 15.703125 -11.566406 15.347656 -10.59375 14.640625 -9.65625 C 13.941406 -8.71875 12.925781 -8.179688 11.59375 -8.046875 C 12.5625 -7.734375 13.410156 -7 14.140625 -5.84375 C 15.953125 -2.945312 17.289062 -1.222656 18.15625 -0.671875 C 18.59375 -0.410156 19.132812 -0.269531 19.78125 -0.25 L 19.78125 0 L 17.328125 0 C 15.867188 0 14.660156 -0.191406 13.703125 -0.578125 C 12.742188 -0.960938 11.988281 -1.640625 11.4375 -2.609375 C 11.113281 -3.160156 10.421875 -4.585938 9.359375 -6.890625 C 8.890625 -7.910156 8.320312 -8.472656 7.65625 -8.578125 L 7.65625 -8.828125 L 8.421875 -8.828125 C 9.179688 -8.828125 9.847656 -9.050781 10.421875 -9.5 C 10.992188 -9.957031 11.382812 -10.695312 11.59375 -11.71875 C 11.65625 -12.0625 11.6875 -12.332031 11.6875 -12.53125 C 11.6875 -13.90625 11.410156 -14.894531 10.859375 -15.5 C 10.304688 -16.113281 9.597656 -16.429688 8.734375 -16.453125 C 8.554688 -16.453125 8.300781 -16.453125 7.96875 -16.453125 Z M 7.96875 -16.453125 "/></g></g><g style="fill:#011c1a;fill-opacity:1;"><g transform="translate(135.603681, 27.189199)"><path style="stroke:none" d="M 3.90625 -15.4375 C 5.6875 -17.082031 8.082031 -17.90625 11.09375 -17.90625 C 14.113281 -17.90625 16.515625 -17.082031 18.296875 -15.4375 C 20.078125 -13.800781 20.96875 -11.578125 20.96875 -8.765625 C 20.96875 -5.960938 20.078125 -3.742188 18.296875 -2.109375 C 16.515625 -0.472656 14.113281 0.34375 11.09375 0.34375 C 8.082031 0.34375 5.6875 -0.472656 3.90625 -2.109375 C 2.125 -3.742188 1.234375 -5.960938 1.234375 -8.765625 C 1.234375 -11.578125 2.125 -13.800781 3.90625 -15.4375 Z M 6.875 -2.875 C 7.90625 -1.425781 9.304688 -0.703125 11.078125 -0.703125 C 12.859375 -0.703125 14.265625 -1.425781 15.296875 -2.875 C 16.335938 -4.320312 16.859375 -6.289062 16.859375 -8.78125 C 16.859375 -11.269531 16.335938 -13.238281 15.296875 -14.6875 C 14.265625 -16.132812 12.859375 -16.859375 11.078125 -16.859375 C 9.304688 -16.859375 7.90625 -16.132812 6.875 -14.6875 C 5.851562 -13.238281 5.34375 -11.269531 5.34375 -8.78125 C 5.34375 -6.289062 5.851562 -4.320312 6.875 -2.875 Z M 6.875 -2.875 "/></g></g><g style="fill:#011c1a;fill-opacity:1;"><g transform="translate(157.114324, 27.189199)"><path style="stroke:none" d="M 10.15625 -17.546875 C 13.113281 -17.546875 15.453125 -16.757812 17.171875 -15.1875 C 18.898438 -13.625 19.765625 -11.488281 19.765625 -8.78125 C 19.765625 -6.070312 18.898438 -3.929688 17.171875 -2.359375 C 15.453125 -0.785156 13.113281 0 10.15625 0 L 1.046875 0 L 1.046875 -0.25 L 1.375 -0.25 C 1.8125 -0.25 2.179688 -0.398438 2.484375 -0.703125 C 2.796875 -1.015625 2.960938 -1.390625 2.984375 -1.828125 L 2.984375 -15.875 C 2.984375 -16.269531 2.816406 -16.601562 2.484375 -16.875 C 2.160156 -17.15625 1.789062 -17.296875 1.375 -17.296875 L 1.046875 -17.296875 L 1.046875 -17.546875 Z M 9.828125 -1.078125 C 11.035156 -1.078125 12.078125 -1.382812 12.953125 -2 C 13.828125 -2.625 14.5 -3.515625 14.96875 -4.671875 C 15.4375 -5.835938 15.671875 -7.101562 15.671875 -8.46875 C 15.671875 -9.84375 15.53125 -11.007812 15.25 -11.96875 C 14.976562 -12.9375 14.59375 -13.753906 14.09375 -14.421875 C 13.050781 -15.804688 11.628906 -16.5 9.828125 -16.5 L 6.75 -16.5 L 6.75 -1.078125 Z M 9.828125 -1.078125 "/></g></g><g style="fill:#011c1a;fill-opacity:1;"><g transform="translate(177.371437, 27.189199)"><path style="stroke:none" d="M 1.375 -0.25 C 1.8125 -0.25 2.179688 -0.398438 2.484375 -0.703125 C 2.796875 -1.015625 2.960938 -1.390625 2.984375 -1.828125 L 2.984375 -15.75 C 2.960938 -16.1875 2.796875 -16.550781 2.484375 -16.84375 C 2.179688 -17.144531 1.8125 -17.296875 1.375 -17.296875 L 1.046875 -17.296875 L 1.046875 -17.546875 L 8.671875 -17.546875 L 8.65625 -17.296875 L 8.34375 -17.296875 C 7.914062 -17.296875 7.539062 -17.144531 7.21875 -16.84375 C 6.90625 -16.550781 6.75 -16.1875 6.75 -15.75 L 6.75 -1.828125 C 6.75 -1.390625 6.90625 -1.015625 7.21875 -0.703125 C 7.539062 -0.398438 7.914062 -0.25 8.34375 -0.25 L 8.65625 -0.25 L 8.671875 0 L 1.046875 0 L 1.046875 -0.25 Z M 1.375 -0.25 "/></g></g><g style="fill:#868686;fill-opacity:1;"><g transform="translate(63.530191, 37.080159)"><path style="stroke:none" d="M 3.625 -5.90625 L 3.625 -1.546875 C 3.625 -1.054688 3.472656 -0.664062 3.171875 -0.375 C 2.878906 -0.0820312 2.488281 0.0625 2 0.0625 C 1.5 0.0625 1.097656 -0.0820312 0.796875 -0.375 C 0.492188 -0.675781 0.34375 -1.085938 0.34375 -1.609375 L 1.125 -1.609375 C 1.125 -1.316406 1.195312 -1.078125 1.34375 -0.890625 C 1.488281 -0.710938 1.707031 -0.625 2 -0.625 C 2.28125 -0.625 2.488281 -0.707031 2.625 -0.875 C 2.769531 -1.050781 2.84375 -1.273438 2.84375 -1.546875 L 2.84375 -5.90625 Z M 3.625 -5.90625 "/></g></g><g style="fill:#868686;fill-opacity:1;"><g transform="translate(74.818424, 37.080159)"><path style="stroke:none" d="M 1.40625 -5.90625 L 1.40625 -2.171875 C 1.40625 -1.648438 1.535156 -1.257812 1.796875 -1 C 2.054688 -0.75 2.414062 -0.625 2.875 -0.625 C 3.320312 -0.625 3.671875 -0.75 3.921875 -1 C 4.179688 -1.257812 4.3125 -1.648438 4.3125 -2.171875 L 4.3125 -5.90625 L 5.09375 -5.90625 L 5.09375 -2.1875 C 5.09375 -1.6875 4.992188 -1.269531 4.796875 -0.9375 C 4.597656 -0.601562 4.328125 -0.351562 3.984375 -0.1875 C 3.648438 -0.0195312 3.273438 0.0625 2.859375 0.0625 C 2.441406 0.0625 2.0625 -0.0195312 1.71875 -0.1875 C 1.382812 -0.351562 1.117188 -0.601562 0.921875 -0.9375 C 0.734375 -1.269531 0.640625 -1.6875 0.640625 -2.1875 L 0.640625 -5.90625 Z M 1.40625 -5.90625 "/></g></g><g style="fill:#868686;fill-opacity:1;"><g transform="translate(87.337331, 37.080159)"><path style="stroke:none" d="M 2.53125 0.0625 C 2.132812 0.0625 1.78125 -0.00390625 1.46875 -0.140625 C 1.164062 -0.285156 0.925781 -0.476562 0.75 -0.71875 C 0.570312 -0.96875 0.484375 -1.253906 0.484375 -1.578125 L 1.3125 -1.578125 C 1.332031 -1.296875 1.441406 -1.0625 1.640625 -0.875 C 1.847656 -0.6875 2.144531 -0.59375 2.53125 -0.59375 C 2.894531 -0.59375 3.179688 -0.679688 3.390625 -0.859375 C 3.609375 -1.046875 3.71875 -1.285156 3.71875 -1.578125 C 3.71875 -1.804688 3.65625 -1.988281 3.53125 -2.125 C 3.40625 -2.269531 3.25 -2.378906 3.0625 -2.453125 C 2.875 -2.523438 2.625 -2.601562 2.3125 -2.6875 C 1.914062 -2.789062 1.597656 -2.890625 1.359375 -2.984375 C 1.128906 -3.085938 0.929688 -3.25 0.765625 -3.46875 C 0.597656 -3.6875 0.515625 -3.984375 0.515625 -4.359375 C 0.515625 -4.679688 0.597656 -4.960938 0.765625 -5.203125 C 0.929688 -5.453125 1.160156 -5.644531 1.453125 -5.78125 C 1.753906 -5.914062 2.097656 -5.984375 2.484375 -5.984375 C 3.035156 -5.984375 3.488281 -5.84375 3.84375 -5.5625 C 4.195312 -5.289062 4.394531 -4.925781 4.4375 -4.46875 L 3.59375 -4.46875 C 3.5625 -4.695312 3.441406 -4.894531 3.234375 -5.0625 C 3.023438 -5.238281 2.75 -5.328125 2.40625 -5.328125 C 2.082031 -5.328125 1.816406 -5.242188 1.609375 -5.078125 C 1.410156 -4.910156 1.3125 -4.675781 1.3125 -4.375 C 1.3125 -4.164062 1.367188 -3.988281 1.484375 -3.84375 C 1.609375 -3.707031 1.757812 -3.601562 1.9375 -3.53125 C 2.113281 -3.46875 2.363281 -3.390625 2.6875 -3.296875 C 3.082031 -3.191406 3.394531 -3.085938 3.625 -2.984375 C 3.863281 -2.878906 4.066406 -2.71875 4.234375 -2.5 C 4.410156 -2.28125 4.5 -1.984375 4.5 -1.609375 C 4.5 -1.316406 4.421875 -1.046875 4.265625 -0.796875 C 4.109375 -0.546875 3.878906 -0.335938 3.578125 -0.171875 C 3.285156 -0.015625 2.9375 0.0625 2.53125 0.0625 Z M 2.53125 0.0625 "/></g></g><g style="fill:#868686;fill-opacity:1;"><g transform="translate(99.10935, 37.080159)"><path style="stroke:none" d="M 4.296875 -5.90625 L 4.296875 -5.28125 L 2.6875 -5.28125 L 2.6875 0 L 1.90625 0 L 1.90625 -5.28125 L 0.28125 -5.28125 L 0.28125 -5.90625 Z M 4.296875 -5.90625 "/></g></g><g style="fill:#868686;fill-opacity:1;"><g transform="translate(110.490947, 37.080159)"><path style="stroke:none" d="M 1.421875 -5.90625 L 1.421875 0 L 0.65625 0 L 0.65625 -5.90625 Z M 1.421875 -5.90625 "/></g></g><g style="fill:#868686;fill-opacity:1;"><g transform="translate(119.368753, 37.080159)"><path style="stroke:none" d="M 0.359375 -2.96875 C 0.359375 -3.539062 0.488281 -4.054688 0.75 -4.515625 C 1.007812 -4.972656 1.363281 -5.332031 1.8125 -5.59375 C 2.269531 -5.851562 2.769531 -5.984375 3.3125 -5.984375 C 3.957031 -5.984375 4.519531 -5.828125 5 -5.515625 C 5.488281 -5.210938 5.84375 -4.773438 6.0625 -4.203125 L 5.140625 -4.203125 C 4.972656 -4.554688 4.734375 -4.828125 4.421875 -5.015625 C 4.117188 -5.210938 3.75 -5.3125 3.3125 -5.3125 C 2.90625 -5.3125 2.535156 -5.210938 2.203125 -5.015625 C 1.878906 -4.828125 1.625 -4.554688 1.4375 -4.203125 C 1.25 -3.847656 1.15625 -3.4375 1.15625 -2.96875 C 1.15625 -2.488281 1.25 -2.070312 1.4375 -1.71875 C 1.625 -1.375 1.878906 -1.101562 2.203125 -0.90625 C 2.535156 -0.71875 2.90625 -0.625 3.3125 -0.625 C 3.75 -0.625 4.117188 -0.71875 4.421875 -0.90625 C 4.734375 -1.09375 4.972656 -1.363281 5.140625 -1.71875 L 6.0625 -1.71875 C 5.84375 -1.15625 5.488281 -0.71875 5 -0.40625 C 4.519531 -0.101562 3.957031 0.046875 3.3125 0.046875 C 2.769531 0.046875 2.269531 -0.078125 1.8125 -0.328125 C 1.363281 -0.585938 1.007812 -0.945312 0.75 -1.40625 C 0.488281 -1.863281 0.359375 -2.382812 0.359375 -2.96875 Z M 0.359375 -2.96875 "/></g></g><g style="fill:#868686;fill-opacity:1;"><g transform="translate(132.710946, 37.080159)"><path style="stroke:none" d="M 1.421875 -5.28125 L 1.421875 -3.3125 L 3.578125 -3.3125 L 3.578125 -2.671875 L 1.421875 -2.671875 L 1.421875 -0.640625 L 3.828125 -0.640625 L 3.828125 0 L 0.65625 0 L 0.65625 -5.921875 L 3.828125 -5.921875 L 3.828125 -5.28125 Z M 1.421875 -5.28125 "/></g></g><g style="fill:#868686;fill-opacity:1;"><g transform="translate(143.854888, 37.080159)"><path style="stroke:none" d=""/></g></g><g style="fill:#868686;fill-opacity:1;"><g transform="translate(152.910927, 37.080159)"><path style="stroke:none" d="M 1.421875 -0.625 L 3.5 -0.625 L 3.5 0 L 0.65625 0 L 0.65625 -5.90625 L 1.421875 -5.90625 Z M 1.421875 -0.625 "/></g></g><g style="fill:#868686;fill-opacity:1;"><g transform="translate(163.367391, 37.080159)"><path style="stroke:none" d="M 4.15625 -1.3125 L 1.5625 -1.3125 L 1.09375 0 L 0.28125 0 L 2.421875 -5.875 L 3.3125 -5.875 L 5.4375 0 L 4.625 0 Z M 3.921875 -1.9375 L 2.859375 -4.921875 L 1.796875 -1.9375 Z M 3.921875 -1.9375 "/></g></g><g style="fill:#868686;fill-opacity:1;"><g transform="translate(175.877815, 37.080159)"><path style="stroke:none" d="M 8.078125 -5.90625 L 6.375 0 L 5.5 0 L 4.125 -4.765625 L 2.703125 0 L 1.84375 0.015625 L 0.1875 -5.90625 L 1.015625 -5.90625 L 2.3125 -0.90625 L 3.734375 -5.90625 L 4.59375 -5.90625 L 5.953125 -0.921875 L 7.25 -5.90625 Z M 8.078125 -5.90625 "/></g></g></g></svg>