<svg xmlns="http://www.w3.org/2000/svg" xmlns:xlink="http://www.w3.org/1999/xlink" width="424" zoomAndPan="magnify" viewBox="0 0 318 49.499998" height="66" preserveAspectRatio="xMidYMid meet" version="1.2"><defs><clipPath id="e34abcf379"><path d="M 8 2.457031 L 46 2.457031 L 46 16 L 8 16 Z M 8 2.457031 "/></clipPath><clipPath id="4f1643405b"><path d="M 1.589844 31 L 15 31 L 15 36 L 1.589844 36 Z M 1.589844 31 "/></clipPath><clipPath id="76b6e3b0a2"><path d="M 10 36 L 44 36 L 44 48.492188 L 10 48.492188 Z M 10 36 "/></clipPath></defs><g id="4a0459b3e7"><g clip-rule="nonzero" clip-path="url(#e34abcf379)"><path style=" stroke:none;fill-rule:nonzero;fill:#314e52;fill-opacity:1;" d="M 10.613281 15.042969 C 10.652344 14.222656 10.695312 13.3125 10.75 12.394531 C 14.03125 11.269531 21.289062 8.589844 26.652344 5.496094 C 32.023438 8.589844 39.316406 11.238281 42.5625 12.394531 C 42.613281 13.3125 42.660156 14.199219 42.703125 15.042969 L 45.261719 15.042969 C 45.195312 13.609375 45.113281 12.097656 45.015625 10.523438 C 45.015625 10.523438 33.34375 6.75 26.652344 2.511719 C 19.96875 6.75 8.296875 10.523438 8.296875 10.523438 C 8.199219 12.097656 8.117188 13.609375 8.050781 15.042969 Z M 10.613281 15.042969 "/></g><g clip-rule="nonzero" clip-path="url(#4f1643405b)"><path style=" stroke:none;fill-rule:nonzero;fill:#314e52;fill-opacity:1;" d="M 14.113281 31.675781 C 12.1875 32.566406 10.164062 32.996094 8.042969 32.960938 C 5.925781 32.992188 3.90625 32.5625 1.984375 31.675781 C 1.871094 31.632812 1.773438 31.652344 1.691406 31.742188 C 1.609375 31.828125 1.589844 31.925781 1.640625 32.035156 C 2.414062 33.136719 3.421875 33.957031 4.65625 34.496094 C 4.476562 34.59375 4.378906 34.710938 4.378906 34.832031 C 4.378906 35.316406 6.019531 35.703125 7.996094 35.703125 C 9.972656 35.703125 11.613281 35.316406 11.613281 34.832031 C 11.613281 34.71875 11.53125 34.617188 11.382812 34.519531 C 12.640625 33.992188 13.667969 33.171875 14.457031 32.058594 C 14.527344 31.945312 14.515625 31.839844 14.425781 31.742188 C 14.339844 31.640625 14.234375 31.621094 14.113281 31.675781 Z M 14.113281 31.675781 "/></g><path style=" stroke:none;fill-rule:nonzero;fill:#314e52;fill-opacity:1;" d="M 51.339844 31.675781 C 50.382812 32.097656 49.394531 32.421875 48.371094 32.636719 C 47.347656 32.855469 46.316406 32.960938 45.269531 32.960938 C 44.222656 32.960938 43.191406 32.855469 42.167969 32.636719 C 41.144531 32.421875 40.15625 32.097656 39.199219 31.675781 C 39.078125 31.621094 38.972656 31.644531 38.886719 31.746094 C 38.800781 31.847656 38.792969 31.957031 38.863281 32.070312 C 39.640625 33.171875 40.644531 33.992188 41.882812 34.527344 C 41.703125 34.628906 41.605469 34.742188 41.605469 34.863281 C 41.605469 35.347656 43.242188 35.734375 45.21875 35.734375 C 47.195312 35.734375 48.835938 35.347656 48.835938 34.863281 C 48.835938 34.75 48.753906 34.652344 48.609375 34.554688 C 49.867188 34.027344 50.890625 33.207031 51.683594 32.09375 C 51.742188 32.046875 51.773438 31.984375 51.78125 31.910156 C 51.789062 31.835938 51.769531 31.769531 51.71875 31.710938 C 51.671875 31.652344 51.613281 31.621094 51.535156 31.613281 C 51.460938 31.605469 51.394531 31.628906 51.339844 31.675781 Z M 51.339844 31.675781 "/><path style=" stroke:none;fill-rule:nonzero;fill:#868686;fill-opacity:1;" d="M 8.296875 18.347656 L 8.296875 18.167969 C 8.273438 18.011719 8.179688 17.9375 8.023438 17.9375 C 7.867188 17.9375 7.777344 18.011719 7.75 18.167969 L 7.75 18.390625 L 3.574219 31.429688 C 3.550781 31.5 3.554688 31.566406 3.589844 31.632812 C 3.625 31.699219 3.675781 31.742188 3.746094 31.765625 C 3.777344 31.773438 3.808594 31.773438 3.835938 31.765625 C 3.96875 31.765625 4.054688 31.703125 4.089844 31.578125 L 7.75 20.175781 L 7.75 32.242188 C 7.777344 32.394531 7.867188 32.472656 8.023438 32.472656 C 8.179688 32.472656 8.273438 32.394531 8.296875 32.242188 L 8.296875 20.144531 L 11.957031 31.550781 C 12 31.675781 12.085938 31.738281 12.21875 31.742188 L 12.300781 31.742188 C 12.464844 31.679688 12.527344 31.566406 12.480469 31.394531 Z M 8.296875 18.347656 "/><path style=" stroke:none;fill-rule:nonzero;fill:#868686;fill-opacity:1;" d="M 49.746094 31.429688 L 45.566406 18.390625 L 45.566406 18.167969 C 45.566406 18.09375 45.539062 18.027344 45.484375 17.976562 C 45.433594 17.921875 45.371094 17.894531 45.292969 17.894531 C 45.21875 17.894531 45.15625 17.921875 45.101562 17.976562 C 45.050781 18.027344 45.023438 18.09375 45.023438 18.167969 L 45.023438 18.347656 L 40.839844 31.386719 C 40.820312 31.460938 40.828125 31.53125 40.863281 31.597656 C 40.894531 31.664062 40.949219 31.707031 41.023438 31.730469 L 41.105469 31.730469 C 41.234375 31.730469 41.324219 31.667969 41.367188 31.542969 L 45.054688 20.144531 L 45.054688 32.242188 C 45.054688 32.316406 45.082031 32.378906 45.136719 32.433594 C 45.1875 32.484375 45.253906 32.511719 45.328125 32.511719 C 45.402344 32.511719 45.464844 32.484375 45.519531 32.433594 C 45.570312 32.378906 45.597656 32.316406 45.597656 32.242188 L 45.597656 20.175781 L 49.253906 31.59375 C 49.296875 31.71875 49.386719 31.78125 49.519531 31.78125 L 49.601562 31.78125 C 49.667969 31.753906 49.71875 31.703125 49.746094 31.636719 C 49.777344 31.566406 49.777344 31.496094 49.746094 31.429688 Z M 49.746094 31.429688 "/><path style=" stroke:none;fill-rule:nonzero;fill:#314e52;fill-opacity:1;" d="M 35.519531 39.023438 C 34.59375 38.304688 33.542969 37.941406 32.371094 37.941406 L 29.761719 37.941406 C 29.652344 37.949219 29.542969 37.933594 29.4375 37.894531 C 29.335938 37.855469 29.242188 37.796875 29.164062 37.714844 C 29.085938 37.636719 29.027344 37.546875 28.988281 37.441406 C 28.949219 37.339844 28.933594 37.230469 28.941406 37.121094 C 28.941406 37 28.882812 36.941406 28.761719 36.949219 L 28.261719 36.949219 L 28.039062 35.316406 L 27.480469 35.257812 L 27.480469 33.324219 L 35.789062 32.503906 L 17.535156 32.503906 L 25.832031 33.324219 C 25.832031 33.996094 25.832031 34.628906 25.832031 35.21875 L 25.273438 35.273438 L 25.019531 36.957031 L 24.554688 36.957031 C 24.433594 36.949219 24.371094 37.007812 24.375 37.128906 C 24.375 37.347656 24.296875 37.535156 24.148438 37.695312 C 23.996094 37.851562 23.8125 37.9375 23.59375 37.949219 L 20.953125 37.949219 C 19.777344 37.949219 18.726562 38.3125 17.796875 39.03125 L 17.476562 39.285156 C 17.382812 39.355469 17.351562 39.449219 17.390625 39.558594 C 17.425781 39.671875 17.503906 39.726562 17.625 39.726562 L 35.667969 39.726562 C 35.785156 39.726562 35.863281 39.671875 35.898438 39.558594 C 35.9375 39.449219 35.910156 39.355469 35.8125 39.285156 Z M 35.519531 39.023438 "/><path style=" stroke:none;fill-rule:nonzero;fill:#314e52;fill-opacity:1;" d="M 45.320312 16.453125 C 45.023438 16.449219 44.757812 16.535156 44.519531 16.707031 C 44.28125 16.878906 44.117188 17.105469 44.03125 17.386719 C 39.960938 17.972656 35.996094 17.554688 32.140625 16.132812 C 30.710938 15.636719 29.246094 15.265625 27.753906 15.027344 C 28.089844 13.804688 28.621094 13.46875 28.621094 12.222656 C 28.621094 10.53125 27.203125 9.597656 27.210938 8.480469 L 27.210938 7.808594 C 27.203125 7.703125 27.175781 7.597656 27.136719 7.496094 C 27.054688 7.277344 26.894531 7.167969 26.660156 7.167969 C 26.425781 7.167969 26.269531 7.277344 26.183594 7.496094 C 26.144531 7.597656 26.121094 7.703125 26.113281 7.808594 L 26.113281 8.5 C 26.113281 9.613281 24.699219 10.546875 24.699219 12.238281 C 24.699219 13.484375 25.226562 13.820312 25.5625 15.042969 C 24.070312 15.28125 22.609375 15.652344 21.183594 16.148438 C 17.324219 17.570312 13.359375 17.988281 9.289062 17.40625 C 9.195312 17.09375 9.011719 16.851562 8.738281 16.675781 C 8.46875 16.5 8.171875 16.4375 7.847656 16.480469 C 7.527344 16.523438 7.257812 16.667969 7.042969 16.910156 C 6.828125 17.148438 6.714844 17.433594 6.707031 17.757812 C 6.703125 18.089844 6.808594 18.382812 7.023438 18.632812 C 7.238281 18.886719 7.507812 19.035156 7.835938 19.085938 C 8.164062 19.132812 8.46875 19.066406 8.746094 18.886719 C 9.027344 18.703125 9.210938 18.453125 9.300781 18.132812 C 10.492188 18.382812 11.699219 18.527344 12.914062 18.578125 C 15.863281 18.605469 18.730469 18.144531 21.519531 17.191406 C 22.078125 17.019531 22.652344 16.894531 23.234375 16.8125 C 23.558594 16.769531 23.878906 16.796875 24.195312 16.890625 C 24.507812 16.984375 24.789062 17.140625 25.039062 17.355469 C 25.285156 17.570312 25.480469 17.828125 25.617188 18.128906 C 25.753906 18.425781 25.824219 18.742188 25.824219 19.070312 L 25.824219 19.183594 L 15.984375 19.875 L 37.304688 19.875 L 27.464844 19.183594 L 27.464844 19.070312 C 27.464844 18.742188 27.535156 18.425781 27.671875 18.128906 C 27.804688 17.828125 27.996094 17.570312 28.246094 17.355469 C 28.492188 17.140625 28.773438 16.984375 29.089844 16.890625 C 29.402344 16.796875 29.722656 16.769531 30.046875 16.8125 C 30.632812 16.894531 31.207031 17.019531 31.769531 17.191406 C 34.558594 18.144531 37.425781 18.609375 40.375 18.578125 C 41.589844 18.527344 42.796875 18.378906 43.992188 18.132812 C 44.078125 18.453125 44.265625 18.703125 44.542969 18.886719 C 44.820312 19.066406 45.125 19.132812 45.453125 19.085938 C 45.78125 19.035156 46.050781 18.886719 46.265625 18.632812 C 46.480469 18.382812 46.585938 18.089844 46.582031 17.757812 C 46.578125 17.589844 46.542969 17.425781 46.480469 17.273438 C 46.414062 17.117188 46.324219 16.980469 46.207031 16.859375 C 46.089844 16.738281 45.953125 16.640625 45.800781 16.570312 C 45.648438 16.503906 45.488281 16.460938 45.320312 16.453125 Z M 45.320312 16.453125 "/><path style=" stroke:none;fill-rule:nonzero;fill:#868686;fill-opacity:1;" d="M 19.835938 25.476562 C 19.691406 25.472656 19.546875 25.445312 19.410156 25.394531 C 19.285156 25.34375 19.1875 25.265625 19.109375 25.15625 C 19.03125 25.046875 18.992188 24.925781 18.992188 24.792969 L 19.484375 24.792969 C 19.488281 24.878906 19.523438 24.953125 19.582031 25.015625 C 19.65625 25.074219 19.738281 25.101562 19.828125 25.097656 C 19.921875 25.101562 20.007812 25.078125 20.082031 25.023438 C 20.148438 24.96875 20.175781 24.902344 20.175781 24.820312 C 20.175781 24.753906 20.15625 24.695312 20.117188 24.644531 C 20.070312 24.601562 20.015625 24.570312 19.953125 24.546875 C 19.871094 24.511719 19.785156 24.484375 19.699219 24.464844 C 19.550781 24.417969 19.425781 24.375 19.335938 24.335938 C 19.242188 24.289062 19.160156 24.222656 19.101562 24.136719 C 19.027344 24.035156 18.992188 23.917969 19 23.792969 C 18.992188 23.507812 19.117188 23.3125 19.386719 23.210938 C 19.519531 23.152344 19.660156 23.125 19.804688 23.128906 C 20.015625 23.117188 20.207031 23.175781 20.378906 23.300781 C 20.535156 23.421875 20.617188 23.578125 20.625 23.777344 L 20.117188 23.777344 C 20.117188 23.695312 20.082031 23.632812 20.019531 23.589844 C 19.949219 23.527344 19.867188 23.5 19.773438 23.507812 C 19.691406 23.5 19.621094 23.527344 19.558594 23.582031 C 19.496094 23.628906 19.46875 23.695312 19.476562 23.777344 C 19.472656 23.835938 19.492188 23.890625 19.535156 23.933594 C 19.578125 23.976562 19.632812 24.011719 19.691406 24.03125 L 19.945312 24.113281 C 20.09375 24.164062 20.214844 24.203125 20.304688 24.246094 C 20.402344 24.292969 20.484375 24.359375 20.550781 24.441406 C 20.621094 24.546875 20.65625 24.660156 20.648438 24.785156 C 20.648438 24.90625 20.617188 25.023438 20.558594 25.128906 C 20.492188 25.242188 20.398438 25.324219 20.28125 25.382812 C 20.140625 25.449219 19.992188 25.476562 19.835938 25.476562 Z M 23.414062 23.160156 L 23.414062 25.476562 L 22.953125 25.476562 L 22.953125 23.1875 Z M 27.726562 25.476562 L 27.269531 25.476562 L 26.195312 23.898438 L 26.195312 25.476562 L 25.734375 25.476562 L 25.734375 23.179688 L 26.195312 23.179688 L 27.234375 24.753906 L 27.234375 23.179688 L 27.695312 23.179688 Z M 29.972656 24.328125 C 29.972656 24.113281 30.019531 23.910156 30.121094 23.71875 C 30.226562 23.546875 30.367188 23.410156 30.539062 23.308594 C 30.722656 23.203125 30.917969 23.148438 31.132812 23.152344 C 31.375 23.148438 31.601562 23.214844 31.804688 23.351562 C 32.003906 23.484375 32.140625 23.667969 32.207031 23.898438 L 31.679688 23.898438 C 31.636719 23.789062 31.5625 23.707031 31.457031 23.652344 C 31.355469 23.597656 31.246094 23.570312 31.132812 23.570312 C 30.851562 23.554688 30.652344 23.671875 30.53125 23.925781 C 30.46875 24.050781 30.441406 24.183594 30.441406 24.328125 C 30.441406 24.46875 30.46875 24.601562 30.53125 24.726562 C 30.652344 24.980469 30.851562 25.097656 31.132812 25.082031 C 31.246094 25.085938 31.355469 25.058594 31.457031 25 C 31.558594 24.941406 31.632812 24.859375 31.679688 24.753906 L 32.207031 24.753906 C 32.140625 24.984375 32.003906 25.167969 31.804688 25.300781 C 31.59375 25.433594 31.363281 25.492188 31.113281 25.476562 C 30.90625 25.476562 30.707031 25.429688 30.523438 25.328125 C 30.347656 25.226562 30.210938 25.089844 30.105469 24.917969 C 30.011719 24.730469 29.96875 24.535156 29.972656 24.328125 Z M 34.960938 23.554688 L 34.960938 24.128906 L 35.730469 24.128906 L 35.730469 24.492188 L 34.960938 24.492188 L 34.960938 25.097656 L 35.832031 25.097656 L 35.832031 25.476562 L 34.5 25.476562 L 34.5 23.179688 L 35.832031 23.179688 L 35.832031 23.554688 Z M 34.960938 23.554688 "/><g clip-rule="nonzero" clip-path="url(#76b6e3b0a2)"><path style=" stroke:none;fill-rule:nonzero;fill:#314e52;fill-opacity:1;" d="M 40.546875 36.183594 C 39.929688 37.433594 39.132812 38.546875 38.152344 39.53125 C 35.28125 42.402344 31.96875 43.632812 29.03125 44.707031 C 28.210938 45.019531 27.390625 45.3125 26.652344 45.625 C 25.898438 45.3125 25.101562 45.019531 24.273438 44.707031 C 21.347656 43.625 18.023438 42.402344 15.15625 39.53125 C 14.164062 38.53125 13.359375 37.402344 12.742188 36.136719 C 11.992188 36.617188 11.171875 36.890625 10.285156 36.957031 C 11.042969 38.605469 12.066406 40.074219 13.351562 41.359375 C 17.886719 45.878906 23.242188 46.742188 26.652344 48.4375 C 30.074219 46.742188 35.429688 45.878906 39.964844 41.335938 C 41.242188 40.058594 42.261719 38.597656 43.023438 36.957031 C 42.132812 36.898438 41.308594 36.644531 40.546875 36.183594 Z M 40.546875 36.183594 "/></g><g style="fill:#868686;fill-opacity:1;"><g transform="translate(22.486627, 29.503538)"><path style="stroke:none" d="M 0.15625 -0.171875 C 0.550781 -0.472656 0.851562 -0.738281 1.0625 -0.96875 C 1.28125 -1.195312 1.390625 -1.425781 1.390625 -1.65625 C 1.390625 -1.800781 1.351562 -1.914062 1.28125 -2 C 1.207031 -2.09375 1.085938 -2.140625 0.921875 -2.140625 C 0.765625 -2.140625 0.640625 -2.085938 0.546875 -1.984375 C 0.460938 -1.890625 0.414062 -1.753906 0.40625 -1.578125 L 0.1875 -1.578125 C 0.195312 -1.816406 0.269531 -2 0.40625 -2.125 C 0.539062 -2.257812 0.710938 -2.328125 0.921875 -2.328125 C 1.128906 -2.328125 1.296875 -2.269531 1.421875 -2.15625 C 1.554688 -2.039062 1.625 -1.878906 1.625 -1.671875 C 1.625 -1.410156 1.515625 -1.15625 1.296875 -0.90625 C 1.085938 -0.664062 0.820312 -0.429688 0.5 -0.203125 L 1.6875 -0.203125 L 1.6875 -0.015625 L 0.15625 -0.015625 Z M 0.15625 -0.171875 "/></g></g><g style="fill:#868686;fill-opacity:1;"><g transform="translate(24.94851, 29.503538)"><path style="stroke:none" d="M 0.203125 -1.171875 C 0.203125 -1.535156 0.257812 -1.816406 0.375 -2.015625 C 0.488281 -2.222656 0.691406 -2.328125 0.984375 -2.328125 C 1.273438 -2.328125 1.476562 -2.222656 1.59375 -2.015625 C 1.707031 -1.816406 1.765625 -1.535156 1.765625 -1.171875 C 1.765625 -0.796875 1.707031 -0.503906 1.59375 -0.296875 C 1.476562 -0.0976562 1.273438 0 0.984375 0 C 0.691406 0 0.488281 -0.0976562 0.375 -0.296875 C 0.257812 -0.503906 0.203125 -0.796875 0.203125 -1.171875 Z M 1.546875 -1.171875 C 1.546875 -1.367188 1.53125 -1.535156 1.5 -1.671875 C 1.46875 -1.804688 1.410156 -1.914062 1.328125 -2 C 1.253906 -2.082031 1.140625 -2.125 0.984375 -2.125 C 0.828125 -2.125 0.707031 -2.082031 0.625 -2 C 0.550781 -1.914062 0.5 -1.804688 0.46875 -1.671875 C 0.4375 -1.535156 0.421875 -1.367188 0.421875 -1.171875 C 0.421875 -0.960938 0.4375 -0.789062 0.46875 -0.65625 C 0.5 -0.519531 0.550781 -0.410156 0.625 -0.328125 C 0.707031 -0.242188 0.828125 -0.203125 0.984375 -0.203125 C 1.140625 -0.203125 1.253906 -0.242188 1.328125 -0.328125 C 1.410156 -0.410156 1.46875 -0.519531 1.5 -0.65625 C 1.53125 -0.789062 1.546875 -0.960938 1.546875 -1.171875 Z M 1.546875 -1.171875 "/></g></g><g style="fill:#868686;fill-opacity:1;"><g transform="translate(27.551627, 29.503538)"><path style="stroke:none" d="M 0.09375 -2.09375 L 0.09375 -2.296875 L 0.640625 -2.296875 L 0.640625 0 L 0.421875 0 L 0.421875 -2.09375 Z M 0.09375 -2.09375 "/></g></g><g style="fill:#868686;fill-opacity:1;"><g transform="translate(29.114778, 29.503538)"><path style="stroke:none" d="M 0.65625 -1.1875 C 0.519531 -1.226562 0.414062 -1.296875 0.34375 -1.390625 C 0.28125 -1.484375 0.25 -1.59375 0.25 -1.71875 C 0.25 -1.84375 0.273438 -1.945312 0.328125 -2.03125 C 0.390625 -2.125 0.476562 -2.195312 0.59375 -2.25 C 0.707031 -2.300781 0.84375 -2.328125 1 -2.328125 C 1.15625 -2.328125 1.289062 -2.300781 1.40625 -2.25 C 1.519531 -2.195312 1.601562 -2.125 1.65625 -2.03125 C 1.71875 -1.945312 1.75 -1.84375 1.75 -1.71875 C 1.75 -1.59375 1.710938 -1.484375 1.640625 -1.390625 C 1.578125 -1.296875 1.476562 -1.226562 1.34375 -1.1875 C 1.488281 -1.15625 1.601562 -1.085938 1.6875 -0.984375 C 1.769531 -0.878906 1.8125 -0.753906 1.8125 -0.609375 C 1.8125 -0.472656 1.773438 -0.351562 1.703125 -0.25 C 1.640625 -0.144531 1.546875 -0.0664062 1.421875 -0.015625 C 1.304688 0.0351562 1.164062 0.0625 1 0.0625 C 0.832031 0.0625 0.6875 0.0351562 0.5625 -0.015625 C 0.445312 -0.0664062 0.351562 -0.144531 0.28125 -0.25 C 0.21875 -0.351562 0.1875 -0.472656 0.1875 -0.609375 C 0.1875 -0.753906 0.226562 -0.878906 0.3125 -0.984375 C 0.394531 -1.085938 0.507812 -1.15625 0.65625 -1.1875 Z M 1.53125 -1.703125 C 1.53125 -1.835938 1.484375 -1.941406 1.390625 -2.015625 C 1.296875 -2.097656 1.164062 -2.140625 1 -2.140625 C 0.832031 -2.140625 0.703125 -2.101562 0.609375 -2.03125 C 0.515625 -1.957031 0.46875 -1.847656 0.46875 -1.703125 C 0.46875 -1.566406 0.515625 -1.457031 0.609375 -1.375 C 0.710938 -1.300781 0.84375 -1.265625 1 -1.265625 C 1.15625 -1.265625 1.28125 -1.300781 1.375 -1.375 C 1.476562 -1.457031 1.53125 -1.566406 1.53125 -1.703125 Z M 1 -1.09375 C 0.820312 -1.09375 0.675781 -1.050781 0.5625 -0.96875 C 0.457031 -0.894531 0.40625 -0.773438 0.40625 -0.609375 C 0.40625 -0.460938 0.457031 -0.34375 0.5625 -0.25 C 0.664062 -0.164062 0.8125 -0.125 1 -0.125 C 1.175781 -0.125 1.316406 -0.164062 1.421875 -0.25 C 1.535156 -0.34375 1.59375 -0.460938 1.59375 -0.609375 C 1.59375 -0.773438 1.535156 -0.894531 1.421875 -0.96875 C 1.316406 -1.050781 1.175781 -1.09375 1 -1.09375 Z M 1 -1.09375 "/></g></g><g style="fill:#011c1a;fill-opacity:1;"><g transform="translate(57.184655, 27.523918)"><path style="stroke:none" d="M 10.28125 -17.765625 C 13.269531 -17.765625 15.632812 -16.96875 17.375 -15.375 C 19.125 -13.78125 20 -11.613281 20 -8.875 C 20 -6.132812 19.125 -3.96875 17.375 -2.375 C 15.632812 -0.789062 13.269531 0 10.28125 0 L 1.0625 0 L 1.0625 -0.25 L 1.390625 -0.25 C 1.835938 -0.25 2.21875 -0.40625 2.53125 -0.71875 C 2.84375 -1.03125 3.003906 -1.410156 3.015625 -1.859375 L 3.015625 -16.0625 C 3.015625 -16.46875 2.847656 -16.8125 2.515625 -17.09375 C 2.191406 -17.375 1.816406 -17.515625 1.390625 -17.515625 L 1.0625 -17.515625 L 1.0625 -17.765625 Z M 9.953125 -1.09375 C 11.171875 -1.09375 12.222656 -1.40625 13.109375 -2.03125 C 13.992188 -2.65625 14.671875 -3.554688 15.140625 -4.734375 C 15.617188 -5.910156 15.859375 -7.191406 15.859375 -8.578125 C 15.859375 -9.960938 15.71875 -11.140625 15.4375 -12.109375 C 15.15625 -13.085938 14.765625 -13.914062 14.265625 -14.59375 C 13.210938 -16 11.773438 -16.703125 9.953125 -16.703125 L 6.828125 -16.703125 L 6.828125 -1.09375 Z M 9.953125 -1.09375 "/></g></g><g style="fill:#011c1a;fill-opacity:1;"><g transform="translate(77.691149, 27.523918)"><path style="stroke:none" d="M 13.421875 -0.25 C 13.859375 -0.25 14.195312 -0.359375 14.4375 -0.578125 C 14.820312 -0.972656 15.023438 -1.390625 15.046875 -1.828125 L 15.046875 -8.296875 L 6.828125 -8.296875 L 6.828125 -1.859375 C 6.828125 -1.410156 6.988281 -1.03125 7.3125 -0.71875 C 7.632812 -0.40625 8.015625 -0.25 8.453125 -0.25 L 8.75 -0.25 L 8.78125 0 L 1.0625 0 L 1.0625 -0.25 L 1.390625 -0.25 C 1.835938 -0.25 2.21875 -0.40625 2.53125 -0.71875 C 2.84375 -1.03125 3.003906 -1.410156 3.015625 -1.859375 L 3.015625 -15.90625 C 3.003906 -16.34375 2.84375 -16.71875 2.53125 -17.03125 C 2.21875 -17.351562 1.835938 -17.515625 1.390625 -17.515625 L 1.0625 -17.515625 L 1.0625 -17.765625 L 8.78125 -17.765625 L 8.75 -17.515625 L 8.453125 -17.515625 C 8.015625 -17.515625 7.632812 -17.351562 7.3125 -17.03125 C 6.988281 -16.71875 6.828125 -16.34375 6.828125 -15.90625 L 6.828125 -9.390625 L 15.046875 -9.390625 L 15.046875 -15.90625 C 15.023438 -16.34375 14.859375 -16.71875 14.546875 -17.03125 C 14.234375 -17.351562 13.859375 -17.515625 13.421875 -17.515625 L 13.09375 -17.515625 L 13.09375 -17.765625 L 20.8125 -17.765625 L 20.8125 -17.515625 L 20.484375 -17.515625 C 20.035156 -17.515625 19.648438 -17.351562 19.328125 -17.03125 C 19.015625 -16.71875 18.859375 -16.34375 18.859375 -15.90625 L 18.859375 -1.859375 C 18.859375 -1.410156 19.015625 -1.03125 19.328125 -0.71875 C 19.648438 -0.40625 20.035156 -0.25 20.484375 -0.25 L 20.8125 -0.25 L 20.8125 0 L 13.09375 0 L 13.09375 -0.25 Z M 13.421875 -0.25 "/></g></g><g style="fill:#011c1a;fill-opacity:1;"><g transform="translate(99.390473, 27.523918)"><path style="stroke:none" d="M 18.734375 -0.25 L 18.953125 -0.25 L 18.953125 0 L 10.859375 0 L 10.859375 -0.25 L 11.09375 -0.25 C 11.46875 -0.25 11.742188 -0.363281 11.921875 -0.59375 C 12.097656 -0.820312 12.1875 -1.035156 12.1875 -1.234375 C 12.1875 -1.441406 12.144531 -1.648438 12.0625 -1.859375 L 10.8125 -4.96875 L 4.875 -4.96875 L 3.5625 -1.859375 C 3.476562 -1.628906 3.4375 -1.414062 3.4375 -1.21875 C 3.4375 -1.03125 3.523438 -0.820312 3.703125 -0.59375 C 3.890625 -0.363281 4.171875 -0.25 4.546875 -0.25 L 4.75 -0.25 L 4.75 0 L -0.671875 0 L -0.671875 -0.25 L -0.453125 -0.25 C -0.0664062 -0.25 0.316406 -0.367188 0.703125 -0.609375 C 1.097656 -0.847656 1.425781 -1.203125 1.6875 -1.671875 L 7.546875 -14.953125 C 8.335938 -16.617188 8.757812 -17.722656 8.8125 -18.265625 L 9.046875 -18.265625 L 16.578125 -1.71875 C 16.828125 -1.226562 17.144531 -0.859375 17.53125 -0.609375 C 17.925781 -0.367188 18.328125 -0.25 18.734375 -0.25 Z M 5.3125 -6.046875 L 10.390625 -6.046875 L 7.921875 -12.28125 Z M 5.3125 -6.046875 "/></g></g><g style="fill:#011c1a;fill-opacity:1;"><g transform="translate(117.562071, 27.523918)"><path style="stroke:none" d="M 8.0625 -16.640625 L 6.984375 -16.640625 C 6.941406 -16.640625 6.914062 -16.640625 6.90625 -16.640625 L 6.90625 -1.859375 C 6.914062 -1.410156 7.078125 -1.03125 7.390625 -0.71875 C 7.703125 -0.40625 8.082031 -0.25 8.53125 -0.25 L 8.859375 -0.25 L 8.859375 0 L 1.140625 0 L 1.140625 -0.25 L 1.46875 -0.25 C 2.082031 -0.25 2.550781 -0.515625 2.875 -1.046875 C 3.007812 -1.273438 3.082031 -1.535156 3.09375 -1.828125 L 3.09375 -15.90625 C 3.082031 -16.34375 2.914062 -16.71875 2.59375 -17.03125 C 2.28125 -17.351562 1.90625 -17.515625 1.46875 -17.515625 L 1.140625 -17.515625 L 1.140625 -17.765625 L 9.84375 -17.765625 C 11.488281 -17.765625 12.875 -17.410156 14 -16.703125 C 14.582031 -16.335938 15.039062 -15.835938 15.375 -15.203125 C 15.71875 -14.578125 15.890625 -13.75 15.890625 -12.71875 C 15.890625 -11.695312 15.53125 -10.710938 14.8125 -9.765625 C 14.101562 -8.816406 13.070312 -8.273438 11.71875 -8.140625 C 12.695312 -7.816406 13.5625 -7.070312 14.3125 -5.90625 C 16.132812 -2.976562 17.488281 -1.238281 18.375 -0.6875 C 18.8125 -0.414062 19.359375 -0.269531 20.015625 -0.25 L 20.015625 0 L 17.53125 0 C 16.0625 0 14.835938 -0.191406 13.859375 -0.578125 C 12.890625 -0.972656 12.128906 -1.660156 11.578125 -2.640625 C 11.253906 -3.191406 10.550781 -4.640625 9.46875 -6.984375 C 8.988281 -8.015625 8.410156 -8.578125 7.734375 -8.671875 L 7.734375 -8.9375 L 8.53125 -8.9375 C 9.289062 -8.9375 9.960938 -9.160156 10.546875 -9.609375 C 11.128906 -10.066406 11.519531 -10.8125 11.71875 -11.84375 C 11.789062 -12.207031 11.828125 -12.488281 11.828125 -12.6875 C 11.828125 -14.070312 11.546875 -15.070312 10.984375 -15.6875 C 10.429688 -16.3125 9.710938 -16.628906 8.828125 -16.640625 C 8.660156 -16.640625 8.40625 -16.640625 8.0625 -16.640625 Z M 8.0625 -16.640625 "/></g></g><g style="fill:#011c1a;fill-opacity:1;"><g transform="translate(136.418918, 27.523918)"><path style="stroke:none" d="M 24.03125 -0.25 L 24.4375 -0.25 L 24.4375 0 L 16.828125 0 L 16.828125 -0.234375 L 17.203125 -0.234375 C 17.492188 -0.242188 17.738281 -0.359375 17.9375 -0.578125 C 18.144531 -0.796875 18.226562 -1.039062 18.1875 -1.3125 L 17.203125 -10.53125 L 12.4375 -2.3125 C 11.8125 -1.257812 11.488281 -0.320312 11.46875 0.5 L 11.21875 0.5 L 4.6875 -10.453125 L 3.703125 -1.3125 C 3.671875 -1.039062 3.753906 -0.789062 3.953125 -0.5625 C 4.160156 -0.34375 4.40625 -0.234375 4.6875 -0.234375 L 5.078125 -0.234375 L 5.078125 0 L -0.234375 0 L -0.234375 -0.25 L 0.171875 -0.25 C 0.648438 -0.25 1.0625 -0.390625 1.40625 -0.671875 C 1.75 -0.960938 1.957031 -1.359375 2.03125 -1.859375 L 4.140625 -18.125 L 4.359375 -18.125 L 12.234375 -5.171875 L 19.796875 -18.125 L 20.015625 -18.125 L 22.171875 -1.859375 C 22.253906 -1.359375 22.46875 -0.960938 22.8125 -0.671875 C 23.164062 -0.390625 23.570312 -0.25 24.03125 -0.25 Z M 24.03125 -0.25 "/></g></g><g style="fill:#011c1a;fill-opacity:1;"><g transform="translate(160.605415, 27.523918)"><path style="stroke:none" d="M 18.734375 -0.25 L 18.953125 -0.25 L 18.953125 0 L 10.859375 0 L 10.859375 -0.25 L 11.09375 -0.25 C 11.46875 -0.25 11.742188 -0.363281 11.921875 -0.59375 C 12.097656 -0.820312 12.1875 -1.035156 12.1875 -1.234375 C 12.1875 -1.441406 12.144531 -1.648438 12.0625 -1.859375 L 10.8125 -4.96875 L 4.875 -4.96875 L 3.5625 -1.859375 C 3.476562 -1.628906 3.4375 -1.414062 3.4375 -1.21875 C 3.4375 -1.03125 3.523438 -0.820312 3.703125 -0.59375 C 3.890625 -0.363281 4.171875 -0.25 4.546875 -0.25 L 4.75 -0.25 L 4.75 0 L -0.671875 0 L -0.671875 -0.25 L -0.453125 -0.25 C -0.0664062 -0.25 0.316406 -0.367188 0.703125 -0.609375 C 1.097656 -0.847656 1.425781 -1.203125 1.6875 -1.671875 L 7.546875 -14.953125 C 8.335938 -16.617188 8.757812 -17.722656 8.8125 -18.265625 L 9.046875 -18.265625 L 16.578125 -1.71875 C 16.828125 -1.226562 17.144531 -0.859375 17.53125 -0.609375 C 17.925781 -0.367188 18.328125 -0.25 18.734375 -0.25 Z M 5.3125 -6.046875 L 10.390625 -6.046875 L 7.921875 -12.28125 Z M 5.3125 -6.046875 "/></g></g><g style="fill:#011c1a;fill-opacity:1;"><g transform="translate(178.777013, 27.523918)"><path style="stroke:none" d=""/></g></g><g style="fill:#011c1a;fill-opacity:1;"><g transform="translate(185.121844, 27.523918)"><path style="stroke:none" d="M 18.734375 -0.25 L 18.953125 -0.25 L 18.953125 0 L 10.859375 0 L 10.859375 -0.25 L 11.09375 -0.25 C 11.46875 -0.25 11.742188 -0.363281 11.921875 -0.59375 C 12.097656 -0.820312 12.1875 -1.035156 12.1875 -1.234375 C 12.1875 -1.441406 12.144531 -1.648438 12.0625 -1.859375 L 10.8125 -4.96875 L 4.875 -4.96875 L 3.5625 -1.859375 C 3.476562 -1.628906 3.4375 -1.414062 3.4375 -1.21875 C 3.4375 -1.03125 3.523438 -0.820312 3.703125 -0.59375 C 3.890625 -0.363281 4.171875 -0.25 4.546875 -0.25 L 4.75 -0.25 L 4.75 0 L -0.671875 0 L -0.671875 -0.25 L -0.453125 -0.25 C -0.0664062 -0.25 0.316406 -0.367188 0.703125 -0.609375 C 1.097656 -0.847656 1.425781 -1.203125 1.6875 -1.671875 L 7.546875 -14.953125 C 8.335938 -16.617188 8.757812 -17.722656 8.8125 -18.265625 L 9.046875 -18.265625 L 16.578125 -1.71875 C 16.828125 -1.226562 17.144531 -0.859375 17.53125 -0.609375 C 17.925781 -0.367188 18.328125 -0.25 18.734375 -0.25 Z M 5.3125 -6.046875 L 10.390625 -6.046875 L 7.921875 -12.28125 Z M 5.3125 -6.046875 "/></g></g><g style="fill:#011c1a;fill-opacity:1;"><g transform="translate(202.481299, 27.523918)"><path style="stroke:none" d="M 10.734375 0.359375 C 7.835938 0.359375 5.515625 -0.472656 3.765625 -2.140625 C 2.015625 -3.804688 1.140625 -6.054688 1.140625 -8.890625 C 1.140625 -11.722656 2.015625 -13.96875 3.765625 -15.625 C 5.515625 -17.289062 7.890625 -18.125 10.890625 -18.125 C 12.242188 -18.125 13.550781 -17.988281 14.8125 -17.71875 C 16.082031 -17.457031 17.109375 -17.132812 17.890625 -16.75 L 17.9375 -12.390625 L 17.71875 -12.390625 C 17.269531 -14.023438 16.515625 -15.207031 15.453125 -15.9375 C 14.390625 -16.675781 13.117188 -17.046875 11.640625 -17.046875 C 9.597656 -17.046875 8.023438 -16.3125 6.921875 -14.84375 C 5.828125 -13.382812 5.28125 -11.382812 5.28125 -8.84375 C 5.28125 -6.300781 5.78125 -4.304688 6.78125 -2.859375 C 7.789062 -1.421875 9.21875 -0.703125 11.0625 -0.703125 C 12.394531 -0.703125 13.507812 -1.085938 14.40625 -1.859375 C 14.851562 -2.242188 15.175781 -2.695312 15.375 -3.21875 L 15.375 -7.109375 C 15.375 -7.472656 15.257812 -7.753906 15.03125 -7.953125 C 14.800781 -8.148438 14.476562 -8.25 14.0625 -8.25 L 13.65625 -8.25 L 13.65625 -8.5 L 20.78125 -8.5 L 20.78125 -8.25 L 20.40625 -8.25 C 20 -8.25 19.679688 -8.148438 19.453125 -7.953125 C 19.234375 -7.753906 19.125 -7.472656 19.125 -7.109375 L 19.125 -2.921875 C 18.46875 -2.054688 17.378906 -1.289062 15.859375 -0.625 C 14.335938 0.03125 12.628906 0.359375 10.734375 0.359375 Z M 10.734375 0.359375 "/></g></g><g style="fill:#011c1a;fill-opacity:1;"><g transform="translate(223.317727, 27.523918)"><path style="stroke:none" d="M 20.046875 -17.515625 L 19.609375 -17.515625 C 19.253906 -17.515625 18.953125 -17.398438 18.703125 -17.171875 C 18.453125 -16.941406 18.316406 -16.65625 18.296875 -16.3125 L 18.296875 -6.421875 C 18.296875 -4.335938 17.644531 -2.6875 16.34375 -1.46875 C 15.039062 -0.25 13.253906 0.359375 10.984375 0.359375 C 8.316406 0.359375 6.269531 -0.234375 4.84375 -1.421875 C 3.425781 -2.617188 2.71875 -4.273438 2.71875 -6.390625 L 2.71875 -16.234375 C 2.695312 -16.742188 2.46875 -17.117188 2.03125 -17.359375 C 1.820312 -17.460938 1.601562 -17.515625 1.375 -17.515625 L 0.96875 -17.515625 L 0.96875 -17.765625 L 8.265625 -17.765625 L 8.265625 -17.515625 L 7.859375 -17.515625 C 7.492188 -17.515625 7.179688 -17.398438 6.921875 -17.171875 C 6.671875 -16.941406 6.535156 -16.648438 6.515625 -16.296875 L 6.515625 -6.59375 C 6.515625 -4.800781 6.953125 -3.378906 7.828125 -2.328125 C 8.710938 -1.285156 9.925781 -0.765625 11.46875 -0.765625 C 13.007812 -0.765625 14.226562 -1.257812 15.125 -2.25 C 16.019531 -3.238281 16.476562 -4.578125 16.5 -6.265625 L 16.5 -16.296875 C 16.457031 -16.785156 16.226562 -17.140625 15.8125 -17.359375 C 15.601562 -17.460938 15.382812 -17.515625 15.15625 -17.515625 L 14.75 -17.515625 L 14.75 -17.765625 L 20.046875 -17.765625 Z M 20.046875 -17.515625 "/></g></g><g style="fill:#011c1a;fill-opacity:1;"><g transform="translate(243.79883, 27.523918)"><path style="stroke:none" d="M 20.734375 -17.515625 C 20.140625 -17.515625 19.691406 -17.257812 19.390625 -16.75 C 19.253906 -16.53125 19.175781 -16.273438 19.15625 -15.984375 L 19.15625 -2.890625 C 19.15625 -1.753906 19.234375 -0.800781 19.390625 -0.03125 L 19.46875 0.359375 L 19.234375 0.359375 L 6.421875 -11.84375 L 6.421875 -1.78125 C 6.421875 -1.351562 6.570312 -0.988281 6.875 -0.6875 C 7.175781 -0.394531 7.539062 -0.25 7.96875 -0.25 L 8.453125 -0.25 L 8.453125 0 L 0.765625 0 L 0.765625 -0.25 L 1.21875 -0.25 C 1.65625 -0.25 2.023438 -0.394531 2.328125 -0.6875 C 2.640625 -0.988281 2.796875 -1.359375 2.796875 -1.796875 L 2.796875 -14.96875 C 2.796875 -16.082031 2.71875 -17.015625 2.5625 -17.765625 L 2.515625 -18.140625 L 2.734375 -18.140625 L 15.5625 -5.9375 L 15.5625 -15.953125 C 15.539062 -16.398438 15.375 -16.769531 15.0625 -17.0625 C 14.757812 -17.363281 14.398438 -17.515625 13.984375 -17.515625 L 13.53125 -17.515625 L 13.53125 -17.765625 L 21.21875 -17.765625 L 21.21875 -17.515625 Z M 20.734375 -17.515625 "/></g></g><g style="fill:#011c1a;fill-opacity:1;"><g transform="translate(265.320517, 27.523918)"><path style="stroke:none" d="M 10.734375 0.359375 C 7.835938 0.359375 5.515625 -0.472656 3.765625 -2.140625 C 2.015625 -3.804688 1.140625 -6.054688 1.140625 -8.890625 C 1.140625 -11.722656 2.015625 -13.96875 3.765625 -15.625 C 5.515625 -17.289062 7.890625 -18.125 10.890625 -18.125 C 12.242188 -18.125 13.550781 -17.988281 14.8125 -17.71875 C 16.082031 -17.457031 17.109375 -17.132812 17.890625 -16.75 L 17.9375 -12.390625 L 17.71875 -12.390625 C 17.269531 -14.023438 16.515625 -15.207031 15.453125 -15.9375 C 14.390625 -16.675781 13.117188 -17.046875 11.640625 -17.046875 C 9.597656 -17.046875 8.023438 -16.3125 6.921875 -14.84375 C 5.828125 -13.382812 5.28125 -11.382812 5.28125 -8.84375 C 5.28125 -6.300781 5.78125 -4.304688 6.78125 -2.859375 C 7.789062 -1.421875 9.21875 -0.703125 11.0625 -0.703125 C 12.394531 -0.703125 13.507812 -1.085938 14.40625 -1.859375 C 14.851562 -2.242188 15.175781 -2.695312 15.375 -3.21875 L 15.375 -7.109375 C 15.375 -7.472656 15.257812 -7.753906 15.03125 -7.953125 C 14.800781 -8.148438 14.476562 -8.25 14.0625 -8.25 L 13.65625 -8.25 L 13.65625 -8.5 L 20.78125 -8.5 L 20.78125 -8.25 L 20.40625 -8.25 C 20 -8.25 19.679688 -8.148438 19.453125 -7.953125 C 19.234375 -7.753906 19.125 -7.472656 19.125 -7.109375 L 19.125 -2.921875 C 18.46875 -2.054688 17.378906 -1.289062 15.859375 -0.625 C 14.335938 0.03125 12.628906 0.359375 10.734375 0.359375 Z M 10.734375 0.359375 "/></g></g><g style="fill:#011c1a;fill-opacity:1;"><g transform="translate(286.537631, 27.523918)"><path style="stroke:none" d=""/></g></g><g style="fill:#011c1a;fill-opacity:1;"><g transform="translate(292.882452, 27.523918)"><path style="stroke:none" d="M 7.65625 -8.171875 C 8.351562 -8.171875 8.945312 -8.414062 9.4375 -8.90625 L 9.609375 -8.671875 C 9.304688 -8.171875 8.882812 -7.75 8.34375 -7.40625 C 7.570312 -6.914062 6.742188 -6.671875 5.859375 -6.671875 C 4.773438 -6.671875 3.796875 -7.007812 2.921875 -7.6875 C 2.390625 -8.070312 1.960938 -8.632812 1.640625 -9.375 C 1.328125 -10.113281 1.171875 -10.957031 1.171875 -11.90625 C 1.171875 -13.75 1.742188 -15.226562 2.890625 -16.34375 C 4.078125 -17.476562 5.753906 -18.046875 7.921875 -18.046875 C 10.828125 -18.046875 12.8125 -16.882812 13.875 -14.5625 C 14.4375 -13.363281 14.71875 -11.910156 14.71875 -10.203125 C 14.71875 -8.503906 14.476562 -6.972656 14 -5.609375 C 12.988281 -2.648438 11.113281 -0.671875 8.375 0.328125 C 7.132812 0.765625 5.765625 0.984375 4.265625 0.984375 C 3.972656 0.984375 3.675781 0.976562 3.375 0.96875 L 3.265625 0.78125 C 5.617188 0.0703125 7.375 -0.984375 8.53125 -2.390625 C 9.507812 -3.585938 10.117188 -5.21875 10.359375 -7.28125 C 10.453125 -8.164062 10.5 -9.191406 10.5 -10.359375 C 10.5 -12.585938 10.304688 -14.222656 9.921875 -15.265625 C 9.535156 -16.304688 8.828125 -16.828125 7.796875 -16.828125 C 7.128906 -16.828125 6.585938 -16.601562 6.171875 -16.15625 C 5.441406 -15.414062 5.078125 -14.164062 5.078125 -12.40625 C 5.078125 -9.78125 5.785156 -8.382812 7.203125 -8.21875 C 7.359375 -8.1875 7.507812 -8.171875 7.65625 -8.171875 Z M 7.65625 -8.171875 "/></g></g><g style="fill:#868686;fill-opacity:1;"><g transform="translate(57.694712, 40.838134)"><path style="stroke:none" d="M 1.4375 -0.640625 L 3.546875 -0.640625 L 3.546875 0 L 0.65625 0 L 0.65625 -5.984375 L 1.4375 -5.984375 Z M 1.4375 -0.640625 "/></g></g><g style="fill:#868686;fill-opacity:1;"><g transform="translate(68.279902, 40.838134)"><path style="stroke:none" d="M 1.4375 -5.359375 L 1.4375 -3.359375 L 3.625 -3.359375 L 3.625 -2.703125 L 1.4375 -2.703125 L 1.4375 -0.640625 L 3.890625 -0.640625 L 3.890625 0 L 0.65625 0 L 0.65625 -6 L 3.890625 -6 L 3.890625 -5.359375 Z M 1.4375 -5.359375 "/></g></g><g style="fill:#868686;fill-opacity:1;"><g transform="translate(79.561033, 40.838134)"><path style="stroke:none" d="M 6.734375 -5.953125 L 6.734375 0 L 5.953125 0 L 5.953125 -4.4375 L 3.984375 0 L 3.421875 0 L 1.4375 -4.4375 L 1.4375 0 L 0.65625 0 L 0.65625 -5.953125 L 1.5 -5.953125 L 3.703125 -1.03125 L 5.90625 -5.953125 Z M 6.734375 -5.953125 "/></g></g><g style="fill:#868686;fill-opacity:1;"><g transform="translate(93.83216, 40.838134)"><path style="stroke:none" d="M 3.65625 -3.078125 C 3.875 -3.046875 4.070312 -2.957031 4.25 -2.8125 C 4.4375 -2.675781 4.582031 -2.5 4.6875 -2.28125 C 4.789062 -2.070312 4.84375 -1.847656 4.84375 -1.609375 C 4.84375 -1.304688 4.765625 -1.03125 4.609375 -0.78125 C 4.460938 -0.539062 4.238281 -0.347656 3.9375 -0.203125 C 3.644531 -0.0664062 3.296875 0 2.890625 0 L 0.65625 0 L 0.65625 -5.984375 L 2.8125 -5.984375 C 3.21875 -5.984375 3.5625 -5.914062 3.84375 -5.78125 C 4.132812 -5.65625 4.347656 -5.476562 4.484375 -5.25 C 4.628906 -5.019531 4.703125 -4.757812 4.703125 -4.46875 C 4.703125 -4.113281 4.609375 -3.816406 4.421875 -3.578125 C 4.234375 -3.347656 3.976562 -3.179688 3.65625 -3.078125 Z M 1.4375 -3.40625 L 2.765625 -3.40625 C 3.128906 -3.40625 3.410156 -3.488281 3.609375 -3.65625 C 3.804688 -3.832031 3.90625 -4.070312 3.90625 -4.375 C 3.90625 -4.675781 3.804688 -4.910156 3.609375 -5.078125 C 3.410156 -5.253906 3.117188 -5.34375 2.734375 -5.34375 L 1.4375 -5.34375 Z M 2.828125 -0.640625 C 3.210938 -0.640625 3.515625 -0.726562 3.734375 -0.90625 C 3.953125 -1.09375 4.0625 -1.351562 4.0625 -1.6875 C 4.0625 -2.019531 3.945312 -2.28125 3.71875 -2.46875 C 3.488281 -2.664062 3.179688 -2.765625 2.796875 -2.765625 L 1.4375 -2.765625 L 1.4375 -0.640625 Z M 2.828125 -0.640625 "/></g></g><g style="fill:#868686;fill-opacity:1;"><g transform="translate(105.972485, 40.838134)"><path style="stroke:none" d="M 4.203125 -1.328125 L 1.59375 -1.328125 L 1.109375 0 L 0.28125 0 L 2.453125 -5.953125 L 3.359375 -5.953125 L 5.515625 0 L 4.6875 0 Z M 3.984375 -1.96875 L 2.890625 -5 L 1.8125 -1.96875 Z M 3.984375 -1.96875 "/></g></g><g style="fill:#868686;fill-opacity:1;"><g transform="translate(118.636921, 40.838134)"><path style="stroke:none" d="M 5.203125 -4.25 C 5.035156 -4.601562 4.789062 -4.875 4.46875 -5.0625 C 4.15625 -5.257812 3.789062 -5.359375 3.375 -5.359375 C 2.957031 -5.359375 2.582031 -5.257812 2.25 -5.0625 C 1.914062 -4.875 1.648438 -4.597656 1.453125 -4.234375 C 1.265625 -3.878906 1.171875 -3.46875 1.171875 -3 C 1.171875 -2.53125 1.265625 -2.117188 1.453125 -1.765625 C 1.648438 -1.410156 1.914062 -1.132812 2.25 -0.9375 C 2.582031 -0.75 2.957031 -0.65625 3.375 -0.65625 C 3.957031 -0.65625 4.4375 -0.828125 4.8125 -1.171875 C 5.195312 -1.523438 5.421875 -2 5.484375 -2.59375 L 3.09375 -2.59375 L 3.09375 -3.234375 L 6.3125 -3.234375 L 6.3125 -2.625 C 6.269531 -2.132812 6.113281 -1.679688 5.84375 -1.265625 C 5.582031 -0.859375 5.238281 -0.535156 4.8125 -0.296875 C 4.382812 -0.0664062 3.90625 0.046875 3.375 0.046875 C 2.820312 0.046875 2.316406 -0.0820312 1.859375 -0.34375 C 1.398438 -0.601562 1.035156 -0.960938 0.765625 -1.421875 C 0.503906 -1.890625 0.375 -2.414062 0.375 -3 C 0.375 -3.582031 0.503906 -4.109375 0.765625 -4.578125 C 1.035156 -5.046875 1.398438 -5.410156 1.859375 -5.671875 C 2.316406 -5.929688 2.820312 -6.0625 3.375 -6.0625 C 4.007812 -6.0625 4.570312 -5.898438 5.0625 -5.578125 C 5.550781 -5.265625 5.910156 -4.820312 6.140625 -4.25 Z M 5.203125 -4.25 "/></g></g><g style="fill:#868686;fill-opacity:1;"><g transform="translate(132.19491, 40.838134)"><path style="stroke:none" d="M 4.203125 -1.328125 L 1.59375 -1.328125 L 1.109375 0 L 0.28125 0 L 2.453125 -5.953125 L 3.359375 -5.953125 L 5.515625 0 L 4.6875 0 Z M 3.984375 -1.96875 L 2.890625 -5 L 1.8125 -1.96875 Z M 3.984375 -1.96875 "/></g></g><g style="fill:#868686;fill-opacity:1;"><g transform="translate(144.859346, 40.838134)"><path style="stroke:none" d=""/></g></g><g style="fill:#868686;fill-opacity:1;"><g transform="translate(154.026871, 40.838134)"><path style="stroke:none" d="M 3.65625 -3.078125 C 3.875 -3.046875 4.070312 -2.957031 4.25 -2.8125 C 4.4375 -2.675781 4.582031 -2.5 4.6875 -2.28125 C 4.789062 -2.070312 4.84375 -1.847656 4.84375 -1.609375 C 4.84375 -1.304688 4.765625 -1.03125 4.609375 -0.78125 C 4.460938 -0.539062 4.238281 -0.347656 3.9375 -0.203125 C 3.644531 -0.0664062 3.296875 0 2.890625 0 L 0.65625 0 L 0.65625 -5.984375 L 2.8125 -5.984375 C 3.21875 -5.984375 3.5625 -5.914062 3.84375 -5.78125 C 4.132812 -5.65625 4.347656 -5.476562 4.484375 -5.25 C 4.628906 -5.019531 4.703125 -4.757812 4.703125 -4.46875 C 4.703125 -4.113281 4.609375 -3.816406 4.421875 -3.578125 C 4.234375 -3.347656 3.976562 -3.179688 3.65625 -3.078125 Z M 1.4375 -3.40625 L 2.765625 -3.40625 C 3.128906 -3.40625 3.410156 -3.488281 3.609375 -3.65625 C 3.804688 -3.832031 3.90625 -4.070312 3.90625 -4.375 C 3.90625 -4.675781 3.804688 -4.910156 3.609375 -5.078125 C 3.410156 -5.253906 3.117188 -5.34375 2.734375 -5.34375 L 1.4375 -5.34375 Z M 2.828125 -0.640625 C 3.210938 -0.640625 3.515625 -0.726562 3.734375 -0.90625 C 3.953125 -1.09375 4.0625 -1.351562 4.0625 -1.6875 C 4.0625 -2.019531 3.945312 -2.28125 3.71875 -2.46875 C 3.488281 -2.664062 3.179688 -2.765625 2.796875 -2.765625 L 1.4375 -2.765625 L 1.4375 -0.640625 Z M 2.828125 -0.640625 "/></g></g><g style="fill:#868686;fill-opacity:1;"><g transform="translate(166.167197, 40.838134)"><path style="stroke:none" d="M 4.203125 -1.328125 L 1.59375 -1.328125 L 1.109375 0 L 0.28125 0 L 2.453125 -5.953125 L 3.359375 -5.953125 L 5.515625 0 L 4.6875 0 Z M 3.984375 -1.96875 L 2.890625 -5 L 1.8125 -1.96875 Z M 3.984375 -1.96875 "/></g></g><g style="fill:#868686;fill-opacity:1;"><g transform="translate(178.831632, 40.838134)"><path style="stroke:none" d="M 5.375 0 L 4.59375 0 L 1.4375 -4.765625 L 1.4375 0 L 0.65625 0 L 0.65625 -6 L 1.4375 -6 L 4.59375 -1.234375 L 4.59375 -6 L 5.375 -6 Z M 5.375 0 "/></g></g><g style="fill:#868686;fill-opacity:1;"><g transform="translate(191.745238, 40.838134)"><path style="stroke:none" d="M 4.34375 -5.984375 L 4.34375 -5.359375 L 2.71875 -5.359375 L 2.71875 0 L 1.9375 0 L 1.9375 -5.359375 L 0.296875 -5.359375 L 0.296875 -5.984375 Z M 4.34375 -5.984375 "/></g></g><g style="fill:#868686;fill-opacity:1;"><g transform="translate(203.26695, 40.838134)"><path style="stroke:none" d="M 1.421875 -5.984375 L 1.421875 -2.203125 C 1.421875 -1.671875 1.550781 -1.273438 1.8125 -1.015625 C 2.070312 -0.753906 2.4375 -0.625 2.90625 -0.625 C 3.363281 -0.625 3.722656 -0.753906 3.984375 -1.015625 C 4.242188 -1.273438 4.375 -1.671875 4.375 -2.203125 L 4.375 -5.984375 L 5.15625 -5.984375 L 5.15625 -2.203125 C 5.15625 -1.710938 5.054688 -1.296875 4.859375 -0.953125 C 4.660156 -0.609375 4.390625 -0.351562 4.046875 -0.1875 C 3.703125 -0.0195312 3.316406 0.0625 2.890625 0.0625 C 2.472656 0.0625 2.09375 -0.0195312 1.75 -0.1875 C 1.40625 -0.351562 1.132812 -0.609375 0.9375 -0.953125 C 0.738281 -1.296875 0.640625 -1.710938 0.640625 -2.203125 L 0.640625 -5.984375 Z M 1.421875 -5.984375 "/></g></g><g style="fill:#868686;fill-opacity:1;"><g transform="translate(215.939974, 40.838134)"><path style="stroke:none" d="M 4.203125 -1.328125 L 1.59375 -1.328125 L 1.109375 0 L 0.28125 0 L 2.453125 -5.953125 L 3.359375 -5.953125 L 5.515625 0 L 4.6875 0 Z M 3.984375 -1.96875 L 2.890625 -5 L 1.8125 -1.96875 Z M 3.984375 -1.96875 "/></g></g><g style="fill:#868686;fill-opacity:1;"><g transform="translate(228.604409, 40.838134)"><path style="stroke:none" d="M 5.375 0 L 4.59375 0 L 1.4375 -4.765625 L 1.4375 0 L 0.65625 0 L 0.65625 -6 L 1.4375 -6 L 4.59375 -1.234375 L 4.59375 -6 L 5.375 -6 Z M 5.375 0 "/></g></g><g style="fill:#868686;fill-opacity:1;"><g transform="translate(241.518015, 40.838134)"><path style="stroke:none" d=""/></g></g><g style="fill:#868686;fill-opacity:1;"><g transform="translate(250.68554, 40.838134)"><path style="stroke:none" d="M 5.28125 -5.984375 L 5.28125 0 L 4.5 0 L 4.5 -2.71875 L 1.4375 -2.71875 L 1.4375 0 L 0.65625 0 L 0.65625 -5.984375 L 1.4375 -5.984375 L 1.4375 -3.359375 L 4.5 -3.359375 L 4.5 -5.984375 Z M 5.28125 -5.984375 "/></g></g><g style="fill:#868686;fill-opacity:1;"><g transform="translate(263.504632, 40.838134)"><path style="stroke:none" d="M 1.421875 -5.984375 L 1.421875 -2.203125 C 1.421875 -1.671875 1.550781 -1.273438 1.8125 -1.015625 C 2.070312 -0.753906 2.4375 -0.625 2.90625 -0.625 C 3.363281 -0.625 3.722656 -0.753906 3.984375 -1.015625 C 4.242188 -1.273438 4.375 -1.671875 4.375 -2.203125 L 4.375 -5.984375 L 5.15625 -5.984375 L 5.15625 -2.203125 C 5.15625 -1.710938 5.054688 -1.296875 4.859375 -0.953125 C 4.660156 -0.609375 4.390625 -0.351562 4.046875 -0.1875 C 3.703125 -0.0195312 3.316406 0.0625 2.890625 0.0625 C 2.472656 0.0625 2.09375 -0.0195312 1.75 -0.1875 C 1.40625 -0.351562 1.132812 -0.609375 0.9375 -0.953125 C 0.738281 -1.296875 0.640625 -1.710938 0.640625 -2.203125 L 0.640625 -5.984375 Z M 1.421875 -5.984375 "/></g></g><g style="fill:#868686;fill-opacity:1;"><g transform="translate(276.177655, 40.838134)"><path style="stroke:none" d="M 3.90625 0 L 1.4375 -2.734375 L 1.4375 0 L 0.65625 0 L 0.65625 -5.984375 L 1.4375 -5.984375 L 1.4375 -3.21875 L 3.921875 -5.984375 L 4.90625 -5.984375 L 2.1875 -2.984375 L 4.9375 0 Z M 3.90625 0 "/></g></g><g style="fill:#868686;fill-opacity:1;"><g transform="translate(288.197706, 40.838134)"><path style="stroke:none" d="M 1.421875 -5.984375 L 1.421875 -2.203125 C 1.421875 -1.671875 1.550781 -1.273438 1.8125 -1.015625 C 2.070312 -0.753906 2.4375 -0.625 2.90625 -0.625 C 3.363281 -0.625 3.722656 -0.753906 3.984375 -1.015625 C 4.242188 -1.273438 4.375 -1.671875 4.375 -2.203125 L 4.375 -5.984375 L 5.15625 -5.984375 L 5.15625 -2.203125 C 5.15625 -1.710938 5.054688 -1.296875 4.859375 -0.953125 C 4.660156 -0.609375 4.390625 -0.351562 4.046875 -0.1875 C 3.703125 -0.0195312 3.316406 0.0625 2.890625 0.0625 C 2.472656 0.0625 2.09375 -0.0195312 1.75 -0.1875 C 1.40625 -0.351562 1.132812 -0.609375 0.9375 -0.953125 C 0.738281 -1.296875 0.640625 -1.710938 0.640625 -2.203125 L 0.640625 -5.984375 Z M 1.421875 -5.984375 "/></g></g><g style="fill:#868686;fill-opacity:1;"><g transform="translate(300.870707, 40.838134)"><path style="stroke:none" d="M 6.734375 -5.953125 L 6.734375 0 L 5.953125 0 L 5.953125 -4.4375 L 3.984375 0 L 3.421875 0 L 1.4375 -4.4375 L 1.4375 0 L 0.65625 0 L 0.65625 -5.953125 L 1.5 -5.953125 L 3.703125 -1.03125 L 5.90625 -5.953125 Z M 6.734375 -5.953125 "/></g></g></g></svg>