<svg xmlns="http://www.w3.org/2000/svg" xmlns:xlink="http://www.w3.org/1999/xlink" width="262" zoomAndPan="magnify" viewBox="0 0 196.5 48" height="64" preserveAspectRatio="xMidYMid meet" version="1.2"><defs><clipPath id="5527377661"><path d="M 8 0.894531 L 46 0.894531 L 46 14 L 8 14 Z M 8 0.894531 "/></clipPath><clipPath id="9d70e97a09"><path d="M 1.761719 29 L 15 29 L 15 34 L 1.761719 34 Z M 1.761719 29 "/></clipPath><clipPath id="6676432760"><path d="M 38 29 L 51.71875 29 L 51.71875 34 L 38 34 Z M 38 29 "/></clipPath><clipPath id="b7533a9edb"><path d="M 10 34 L 44 34 L 44 46.445312 L 10 46.445312 Z M 10 34 "/></clipPath></defs><g id="9451561954"><g clip-rule="nonzero" clip-path="url(#5527377661)"><path style=" stroke:none;fill-rule:nonzero;fill:#b68c59;fill-opacity:1;" d="M 10.75 13.347656 C 10.789062 12.539062 10.832031 11.636719 10.886719 10.726562 C 14.15625 9.617188 21.386719 6.960938 26.730469 3.902344 C 32.082031 6.960938 39.347656 9.582031 42.582031 10.726562 C 42.632812 11.636719 42.683594 12.511719 42.722656 13.347656 L 45.273438 13.347656 C 45.207031 11.929688 45.125 10.433594 45.027344 8.878906 C 45.027344 8.878906 33.398438 5.144531 26.730469 0.949219 C 20.070312 5.144531 8.445312 8.878906 8.445312 8.878906 C 8.347656 10.433594 8.265625 11.929688 8.199219 13.347656 Z M 10.75 13.347656 "/></g><g clip-rule="nonzero" clip-path="url(#9d70e97a09)"><path style=" stroke:none;fill-rule:nonzero;fill:#b68c59;fill-opacity:1;" d="M 14.238281 29.804688 C 12.320312 30.6875 10.304688 31.113281 8.191406 31.082031 C 6.082031 31.109375 4.066406 30.6875 2.152344 29.804688 C 2.039062 29.765625 1.945312 29.785156 1.863281 29.871094 C 1.777344 29.957031 1.761719 30.054688 1.808594 30.164062 C 2.582031 31.253906 3.585938 32.066406 4.816406 32.597656 C 4.636719 32.695312 4.539062 32.808594 4.539062 32.929688 C 4.539062 33.410156 6.171875 33.789062 8.140625 33.789062 C 10.109375 33.789062 11.746094 33.410156 11.746094 32.929688 C 11.746094 32.816406 11.664062 32.71875 11.515625 32.621094 C 12.769531 32.097656 13.792969 31.289062 14.582031 30.1875 C 14.648438 30.074219 14.640625 29.96875 14.550781 29.871094 C 14.460938 29.773438 14.359375 29.75 14.238281 29.804688 Z M 14.238281 29.804688 "/></g><g clip-rule="nonzero" clip-path="url(#6676432760)"><path style=" stroke:none;fill-rule:nonzero;fill:#b68c59;fill-opacity:1;" d="M 51.328125 29.804688 C 50.375 30.226562 49.390625 30.542969 48.371094 30.757812 C 47.351562 30.972656 46.320312 31.082031 45.28125 31.082031 C 44.238281 31.082031 43.207031 30.972656 42.191406 30.757812 C 41.171875 30.542969 40.183594 30.226562 39.234375 29.804688 C 39.113281 29.753906 39.007812 29.777344 38.921875 29.878906 C 38.835938 29.976562 38.828125 30.085938 38.898438 30.195312 C 39.671875 31.285156 40.671875 32.097656 41.90625 32.628906 C 41.726562 32.726562 41.628906 32.839844 41.628906 32.960938 C 41.628906 33.441406 43.261719 33.824219 45.230469 33.824219 C 47.199219 33.824219 48.835938 33.441406 48.835938 32.960938 C 48.835938 32.847656 48.753906 32.75 48.605469 32.65625 C 49.859375 32.132812 50.882812 31.320312 51.671875 30.21875 C 51.726562 30.171875 51.761719 30.113281 51.765625 30.039062 C 51.773438 29.964844 51.753906 29.898438 51.707031 29.84375 C 51.660156 29.785156 51.597656 29.753906 51.523438 29.746094 C 51.449219 29.738281 51.382812 29.757812 51.328125 29.804688 Z M 51.328125 29.804688 "/></g><path style=" stroke:none;fill-rule:nonzero;fill:#ffffff;fill-opacity:1;" d="M 8.445312 16.617188 L 8.445312 16.441406 C 8.417969 16.289062 8.328125 16.210938 8.171875 16.210938 C 8.015625 16.210938 7.921875 16.289062 7.898438 16.441406 L 7.898438 16.660156 L 3.738281 29.5625 C 3.714844 29.632812 3.71875 29.699219 3.753906 29.765625 C 3.785156 29.832031 3.839844 29.875 3.910156 29.894531 C 3.9375 29.902344 3.96875 29.902344 4 29.894531 C 4.132812 29.898438 4.214844 29.835938 4.253906 29.707031 L 7.898438 18.429688 L 7.898438 30.367188 C 7.921875 30.519531 8.015625 30.59375 8.171875 30.59375 C 8.328125 30.59375 8.417969 30.519531 8.445312 30.367188 L 8.445312 18.394531 L 12.089844 29.683594 C 12.132812 29.808594 12.21875 29.871094 12.351562 29.871094 L 12.433594 29.871094 C 12.597656 29.8125 12.65625 29.699219 12.613281 29.53125 Z M 8.445312 16.617188 "/><path style=" stroke:none;fill-rule:nonzero;fill:#ffffff;fill-opacity:1;" d="M 49.742188 29.5625 L 45.574219 16.660156 L 45.574219 16.441406 C 45.574219 16.367188 45.546875 16.304688 45.496094 16.25 C 45.441406 16.199219 45.378906 16.171875 45.304688 16.171875 C 45.230469 16.171875 45.167969 16.199219 45.113281 16.25 C 45.0625 16.304688 45.035156 16.367188 45.035156 16.441406 L 45.035156 16.617188 L 40.867188 29.523438 C 40.847656 29.59375 40.851562 29.664062 40.886719 29.730469 C 40.921875 29.792969 40.976562 29.839844 41.046875 29.863281 L 41.128906 29.863281 C 41.261719 29.863281 41.347656 29.800781 41.390625 29.675781 L 45.066406 18.394531 L 45.066406 30.367188 C 45.066406 30.441406 45.09375 30.503906 45.148438 30.554688 C 45.199219 30.609375 45.261719 30.632812 45.335938 30.632812 C 45.410156 30.632812 45.476562 30.609375 45.527344 30.554688 C 45.582031 30.503906 45.605469 30.441406 45.605469 30.367188 L 45.605469 18.429688 L 49.25 29.726562 C 49.292969 29.847656 49.382812 29.910156 49.511719 29.910156 L 49.59375 29.910156 C 49.664062 29.882812 49.710938 29.835938 49.742188 29.765625 C 49.769531 29.699219 49.769531 29.632812 49.742188 29.5625 Z M 49.742188 29.5625 "/><path style=" stroke:none;fill-rule:nonzero;fill:#b68c59;fill-opacity:1;" d="M 35.566406 37.078125 C 34.640625 36.363281 33.597656 36.007812 32.425781 36.007812 L 29.828125 36.007812 C 29.71875 36.011719 29.609375 35.996094 29.507812 35.957031 C 29.402344 35.921875 29.3125 35.863281 29.234375 35.785156 C 29.15625 35.707031 29.097656 35.617188 29.058594 35.511719 C 29.019531 35.410156 29.003906 35.304688 29.011719 35.195312 C 29.011719 35.074219 28.953125 35.019531 28.832031 35.023438 L 28.332031 35.023438 L 28.113281 33.410156 L 27.558594 33.351562 L 27.558594 31.4375 L 35.835938 30.625 L 17.644531 30.625 L 25.914062 31.4375 C 25.914062 32.101562 25.914062 32.726562 25.914062 33.3125 L 25.359375 33.367188 L 25.105469 35.03125 L 24.640625 35.03125 C 24.519531 35.027344 24.460938 35.082031 24.460938 35.203125 C 24.460938 35.417969 24.386719 35.605469 24.234375 35.761719 C 24.085938 35.917969 23.902344 36.003906 23.683594 36.015625 L 21.050781 36.015625 C 19.882812 36.015625 18.832031 36.371094 17.90625 37.085938 L 17.589844 37.335938 C 17.492188 37.40625 17.464844 37.496094 17.503906 37.609375 C 17.539062 37.71875 17.617188 37.773438 17.734375 37.773438 L 35.710938 37.773438 C 35.828125 37.773438 35.90625 37.71875 35.945312 37.609375 C 35.980469 37.496094 35.953125 37.40625 35.859375 37.335938 Z M 35.566406 37.078125 "/><path style=" stroke:none;fill-rule:nonzero;fill:#b68c59;fill-opacity:1;" d="M 45.328125 14.746094 C 45.035156 14.742188 44.769531 14.824219 44.53125 14.996094 C 44.296875 15.167969 44.132812 15.390625 44.046875 15.667969 C 39.992188 16.246094 36.042969 15.832031 32.199219 14.429688 C 30.773438 13.9375 29.316406 13.570312 27.828125 13.332031 C 28.160156 12.125 28.691406 11.789062 28.691406 10.558594 C 28.691406 8.886719 27.277344 7.960938 27.289062 6.855469 L 27.289062 6.191406 C 27.277344 6.085938 27.253906 5.980469 27.214844 5.882812 C 27.132812 5.667969 26.972656 5.558594 26.738281 5.558594 C 26.507812 5.558594 26.347656 5.667969 26.265625 5.882812 C 26.226562 5.980469 26.199219 6.085938 26.191406 6.191406 L 26.191406 6.871094 C 26.191406 7.976562 24.785156 8.902344 24.785156 10.574219 C 24.785156 11.808594 25.308594 12.140625 25.644531 13.347656 C 24.15625 13.585938 22.703125 13.953125 21.28125 14.445312 C 17.4375 15.847656 13.488281 16.261719 9.433594 15.6875 C 9.339844 15.378906 9.15625 15.140625 8.882812 14.964844 C 8.613281 14.792969 8.316406 14.726562 7.996094 14.769531 C 7.675781 14.816406 7.410156 14.957031 7.195312 15.195312 C 6.976562 15.433594 6.867188 15.714844 6.859375 16.035156 C 6.855469 16.363281 6.957031 16.652344 7.171875 16.902344 C 7.386719 17.152344 7.65625 17.300781 7.984375 17.347656 C 8.3125 17.394531 8.613281 17.328125 8.890625 17.152344 C 9.167969 16.972656 9.351562 16.722656 9.441406 16.40625 C 10.628906 16.652344 11.832031 16.796875 13.042969 16.847656 C 15.980469 16.875 18.839844 16.417969 21.617188 15.476562 C 22.175781 15.304688 22.746094 15.179688 23.324219 15.101562 C 23.648438 15.058594 23.96875 15.082031 24.28125 15.175781 C 24.59375 15.269531 24.875 15.425781 25.125 15.636719 C 25.371094 15.851562 25.5625 16.105469 25.699219 16.402344 C 25.835938 16.699219 25.90625 17.007812 25.90625 17.332031 L 25.90625 17.445312 L 16.101562 18.128906 L 37.347656 18.128906 L 27.539062 17.445312 L 27.539062 17.332031 C 27.542969 17.007812 27.609375 16.699219 27.746094 16.402344 C 27.878906 16.105469 28.070312 15.851562 28.316406 15.636719 C 28.566406 15.425781 28.84375 15.269531 29.15625 15.175781 C 29.472656 15.082031 29.789062 15.058594 30.113281 15.101562 C 30.695312 15.179688 31.269531 15.304688 31.832031 15.476562 C 34.609375 16.417969 37.464844 16.875 40.402344 16.847656 C 41.617188 16.796875 42.816406 16.652344 44.003906 16.40625 C 44.09375 16.722656 44.277344 16.972656 44.554688 17.152344 C 44.832031 17.328125 45.132812 17.394531 45.460938 17.347656 C 45.789062 17.300781 46.058594 17.152344 46.273438 16.902344 C 46.488281 16.652344 46.59375 16.363281 46.585938 16.035156 C 46.582031 15.867188 46.550781 15.707031 46.484375 15.554688 C 46.421875 15.402344 46.328125 15.265625 46.214844 15.144531 C 46.097656 15.027344 45.960938 14.929688 45.808594 14.863281 C 45.65625 14.792969 45.496094 14.753906 45.328125 14.746094 Z M 45.328125 14.746094 "/><path style=" stroke:none;fill-rule:nonzero;fill:#ffffff;fill-opacity:1;" d="M 19.941406 23.671875 C 19.792969 23.671875 19.652344 23.644531 19.515625 23.589844 C 19.390625 23.542969 19.292969 23.460938 19.214844 23.355469 C 19.136719 23.246094 19.097656 23.128906 19.101562 22.996094 L 19.589844 22.996094 C 19.59375 23.082031 19.628906 23.15625 19.6875 23.214844 C 19.757812 23.273438 19.839844 23.300781 19.933594 23.296875 C 20.027344 23.304688 20.109375 23.277344 20.1875 23.226562 C 20.25 23.171875 20.28125 23.105469 20.277344 23.023438 C 20.277344 22.957031 20.261719 22.902344 20.21875 22.851562 C 20.171875 22.808594 20.117188 22.773438 20.054688 22.753906 C 19.972656 22.71875 19.890625 22.691406 19.800781 22.671875 C 19.65625 22.625 19.53125 22.582031 19.441406 22.542969 C 19.347656 22.5 19.265625 22.433594 19.207031 22.347656 C 19.132812 22.246094 19.101562 22.132812 19.109375 22.007812 C 19.097656 21.722656 19.226562 21.53125 19.492188 21.429688 C 19.625 21.375 19.761719 21.347656 19.910156 21.351562 C 20.121094 21.339844 20.308594 21.398438 20.480469 21.519531 C 20.636719 21.640625 20.71875 21.796875 20.726562 21.992188 L 20.21875 21.992188 C 20.21875 21.910156 20.1875 21.851562 20.121094 21.804688 C 20.050781 21.742188 19.96875 21.714844 19.875 21.722656 C 19.796875 21.71875 19.722656 21.742188 19.664062 21.796875 C 19.601562 21.847656 19.574219 21.910156 19.582031 21.992188 C 19.578125 22.050781 19.597656 22.101562 19.640625 22.144531 C 19.683594 22.1875 19.734375 22.222656 19.792969 22.242188 L 20.046875 22.324219 C 20.195312 22.371094 20.316406 22.414062 20.40625 22.453125 C 20.503906 22.5 20.585938 22.566406 20.652344 22.648438 C 20.722656 22.75 20.753906 22.863281 20.75 22.988281 C 20.75 23.109375 20.71875 23.222656 20.660156 23.332031 C 20.589844 23.441406 20.5 23.523438 20.382812 23.582031 C 20.242188 23.644531 20.09375 23.671875 19.941406 23.671875 Z M 23.503906 21.382812 L 23.503906 23.671875 L 23.046875 23.671875 L 23.046875 21.40625 Z M 27.800781 23.671875 L 27.34375 23.671875 L 26.273438 22.113281 L 26.273438 23.671875 L 25.816406 23.671875 L 25.816406 21.398438 L 26.273438 21.398438 L 27.3125 22.957031 L 27.3125 21.398438 L 27.769531 21.398438 Z M 30.039062 22.535156 C 30.039062 22.324219 30.085938 22.121094 30.1875 21.933594 C 30.292969 21.765625 30.429688 21.628906 30.605469 21.527344 C 30.785156 21.421875 30.980469 21.371094 31.191406 21.375 C 31.4375 21.367188 31.660156 21.433594 31.863281 21.570312 C 32.0625 21.703125 32.199219 21.882812 32.261719 22.113281 L 31.742188 22.113281 C 31.699219 22.003906 31.625 21.921875 31.519531 21.871094 C 31.417969 21.8125 31.308594 21.785156 31.191406 21.789062 C 30.914062 21.773438 30.71875 21.886719 30.597656 22.136719 C 30.535156 22.261719 30.503906 22.394531 30.507812 22.535156 C 30.503906 22.675781 30.535156 22.808594 30.597656 22.933594 C 30.71875 23.179688 30.914062 23.296875 31.191406 23.28125 C 31.308594 23.285156 31.417969 23.257812 31.519531 23.199219 C 31.621094 23.144531 31.691406 23.0625 31.742188 22.957031 L 32.261719 22.957031 C 32.199219 23.1875 32.0625 23.367188 31.863281 23.5 C 31.652344 23.632812 31.425781 23.6875 31.175781 23.671875 C 30.96875 23.675781 30.773438 23.625 30.589844 23.523438 C 30.414062 23.425781 30.277344 23.289062 30.171875 23.121094 C 30.078125 22.933594 30.035156 22.742188 30.039062 22.535156 Z M 35.007812 21.773438 L 35.007812 22.339844 L 35.777344 22.339844 L 35.777344 22.699219 L 35.007812 22.699219 L 35.007812 23.296875 L 35.875 23.296875 L 35.875 23.671875 L 34.550781 23.671875 L 34.550781 21.398438 L 35.875 21.398438 L 35.875 21.773438 Z M 35.007812 21.773438 "/><g clip-rule="nonzero" clip-path="url(#b7533a9edb)"><path style=" stroke:none;fill-rule:nonzero;fill:#b68c59;fill-opacity:1;" d="M 40.574219 34.269531 C 39.960938 35.503906 39.164062 36.605469 38.1875 37.582031 C 35.328125 40.421875 32.027344 41.636719 29.101562 42.699219 C 28.285156 43.007812 27.46875 43.300781 26.730469 43.609375 C 25.980469 43.300781 25.1875 43.007812 24.363281 42.699219 C 21.445312 41.628906 18.136719 40.421875 15.277344 37.582031 C 14.289062 36.59375 13.488281 35.472656 12.875 34.21875 C 12.125 34.695312 11.308594 34.96875 10.421875 35.03125 C 11.179688 36.664062 12.199219 38.117188 13.476562 39.390625 C 17.996094 43.859375 23.332031 44.714844 26.730469 46.394531 C 30.140625 44.714844 35.476562 43.859375 39.992188 39.367188 C 41.269531 38.101562 42.285156 36.65625 43.042969 35.03125 C 42.15625 34.976562 41.335938 34.722656 40.574219 34.269531 Z M 40.574219 34.269531 "/></g><g style="fill:#ffffff;fill-opacity:1;"><g transform="translate(22.437133, 27.65764)"><path style="stroke:none" d="M 0.15625 -0.171875 C 0.550781 -0.460938 0.851562 -0.722656 1.0625 -0.953125 C 1.28125 -1.191406 1.390625 -1.421875 1.390625 -1.640625 C 1.390625 -1.785156 1.351562 -1.898438 1.28125 -1.984375 C 1.207031 -2.078125 1.085938 -2.125 0.921875 -2.125 C 0.753906 -2.125 0.625 -2.070312 0.53125 -1.96875 C 0.445312 -1.875 0.398438 -1.738281 0.390625 -1.5625 L 0.1875 -1.5625 C 0.195312 -1.800781 0.265625 -1.984375 0.390625 -2.109375 C 0.523438 -2.242188 0.703125 -2.3125 0.921875 -2.3125 C 1.117188 -2.3125 1.28125 -2.253906 1.40625 -2.140625 C 1.539062 -2.023438 1.609375 -1.863281 1.609375 -1.65625 C 1.609375 -1.394531 1.5 -1.144531 1.28125 -0.90625 C 1.070312 -0.664062 0.8125 -0.429688 0.5 -0.203125 L 1.671875 -0.203125 L 1.671875 -0.015625 L 0.15625 -0.015625 Z M 0.15625 -0.171875 "/></g></g><g style="fill:#ffffff;fill-opacity:1;"><g transform="translate(24.873134, 27.65764)"><path style="stroke:none" d="M 0.203125 -1.15625 C 0.203125 -1.519531 0.257812 -1.800781 0.375 -2 C 0.488281 -2.207031 0.691406 -2.3125 0.984375 -2.3125 C 1.265625 -2.3125 1.460938 -2.207031 1.578125 -2 C 1.691406 -1.800781 1.75 -1.519531 1.75 -1.15625 C 1.75 -0.789062 1.691406 -0.503906 1.578125 -0.296875 C 1.460938 -0.0976562 1.265625 0 0.984375 0 C 0.691406 0 0.488281 -0.0976562 0.375 -0.296875 C 0.257812 -0.503906 0.203125 -0.789062 0.203125 -1.15625 Z M 1.53125 -1.15625 C 1.53125 -1.351562 1.515625 -1.519531 1.484375 -1.65625 C 1.460938 -1.789062 1.410156 -1.898438 1.328125 -1.984375 C 1.242188 -2.066406 1.128906 -2.109375 0.984375 -2.109375 C 0.828125 -2.109375 0.707031 -2.066406 0.625 -1.984375 C 0.539062 -1.898438 0.484375 -1.789062 0.453125 -1.65625 C 0.429688 -1.519531 0.421875 -1.351562 0.421875 -1.15625 C 0.421875 -0.957031 0.429688 -0.785156 0.453125 -0.640625 C 0.484375 -0.503906 0.539062 -0.394531 0.625 -0.3125 C 0.707031 -0.238281 0.828125 -0.203125 0.984375 -0.203125 C 1.128906 -0.203125 1.242188 -0.238281 1.328125 -0.3125 C 1.410156 -0.394531 1.460938 -0.503906 1.484375 -0.640625 C 1.515625 -0.785156 1.53125 -0.957031 1.53125 -1.15625 Z M 1.53125 -1.15625 "/></g></g><g style="fill:#ffffff;fill-opacity:1;"><g transform="translate(27.448884, 27.65764)"><path style="stroke:none" d="M 0.09375 -2.078125 L 0.09375 -2.28125 L 0.640625 -2.28125 L 0.640625 0 L 0.40625 0 L 0.40625 -2.078125 Z M 0.09375 -2.078125 "/></g></g><g style="fill:#ffffff;fill-opacity:1;"><g transform="translate(28.995601, 27.65764)"><path style="stroke:none" d="M 0.640625 -1.1875 C 0.515625 -1.226562 0.414062 -1.289062 0.34375 -1.375 C 0.28125 -1.46875 0.25 -1.578125 0.25 -1.703125 C 0.25 -1.816406 0.273438 -1.921875 0.328125 -2.015625 C 0.390625 -2.109375 0.472656 -2.179688 0.578125 -2.234375 C 0.691406 -2.285156 0.828125 -2.3125 0.984375 -2.3125 C 1.140625 -2.3125 1.273438 -2.285156 1.390625 -2.234375 C 1.503906 -2.179688 1.585938 -2.109375 1.640625 -2.015625 C 1.703125 -1.921875 1.734375 -1.816406 1.734375 -1.703125 C 1.734375 -1.578125 1.695312 -1.46875 1.625 -1.375 C 1.5625 -1.28125 1.460938 -1.21875 1.328125 -1.1875 C 1.472656 -1.144531 1.585938 -1.070312 1.671875 -0.96875 C 1.753906 -0.875 1.796875 -0.753906 1.796875 -0.609375 C 1.796875 -0.472656 1.757812 -0.351562 1.6875 -0.25 C 1.625 -0.144531 1.53125 -0.0664062 1.40625 -0.015625 C 1.289062 0.0351562 1.148438 0.0625 0.984375 0.0625 C 0.828125 0.0625 0.6875 0.0351562 0.5625 -0.015625 C 0.445312 -0.0664062 0.351562 -0.144531 0.28125 -0.25 C 0.21875 -0.351562 0.1875 -0.472656 0.1875 -0.609375 C 0.1875 -0.753906 0.226562 -0.875 0.3125 -0.96875 C 0.394531 -1.070312 0.503906 -1.144531 0.640625 -1.1875 Z M 1.515625 -1.6875 C 1.515625 -1.820312 1.46875 -1.925781 1.375 -2 C 1.28125 -2.082031 1.148438 -2.125 0.984375 -2.125 C 0.828125 -2.125 0.695312 -2.082031 0.59375 -2 C 0.5 -1.925781 0.453125 -1.820312 0.453125 -1.6875 C 0.453125 -1.550781 0.5 -1.441406 0.59375 -1.359375 C 0.695312 -1.285156 0.828125 -1.25 0.984375 -1.25 C 1.148438 -1.25 1.28125 -1.285156 1.375 -1.359375 C 1.46875 -1.441406 1.515625 -1.550781 1.515625 -1.6875 Z M 0.984375 -1.078125 C 0.816406 -1.078125 0.675781 -1.035156 0.5625 -0.953125 C 0.457031 -0.878906 0.40625 -0.765625 0.40625 -0.609375 C 0.40625 -0.453125 0.457031 -0.332031 0.5625 -0.25 C 0.664062 -0.164062 0.804688 -0.125 0.984375 -0.125 C 1.171875 -0.125 1.316406 -0.164062 1.421875 -0.25 C 1.523438 -0.34375 1.578125 -0.460938 1.578125 -0.609375 C 1.578125 -0.765625 1.519531 -0.878906 1.40625 -0.953125 C 1.300781 -1.035156 1.160156 -1.078125 0.984375 -1.078125 Z M 0.984375 -1.078125 "/></g></g><g style="fill:#ffffff;fill-opacity:1;"><g transform="translate(61.193883, 27.189199)"><path style="stroke:none" d="M 8.984375 0 L 1.046875 0 L 1.046875 -0.25 L 1.375 -0.25 C 1.976562 -0.25 2.441406 -0.507812 2.765625 -1.03125 C 2.890625 -1.257812 2.960938 -1.519531 2.984375 -1.8125 L 2.984375 -15.75 C 2.960938 -16.1875 2.796875 -16.550781 2.484375 -16.84375 C 2.179688 -17.144531 1.8125 -17.296875 1.375 -17.296875 L 1.046875 -17.296875 L 1.046875 -17.546875 L 8.328125 -17.546875 C 10.265625 -17.546875 11.804688 -17.195312 12.953125 -16.5 C 14.097656 -15.800781 14.679688 -14.722656 14.703125 -13.265625 C 14.679688 -12.523438 14.519531 -11.878906 14.21875 -11.328125 C 13.664062 -10.296875 12.796875 -9.707031 11.609375 -9.5625 C 12.898438 -9.4375 13.960938 -8.953125 14.796875 -8.109375 C 15.628906 -7.265625 16.046875 -6.191406 16.046875 -4.890625 C 16.046875 -3.316406 15.414062 -2.109375 14.15625 -1.265625 C 12.894531 -0.421875 11.171875 0 8.984375 0 Z M 10.6875 -12.9375 C 10.664062 -15.289062 9.59375 -16.46875 7.46875 -16.46875 L 6.75 -16.46875 L 6.75 -1.15625 L 7.90625 -1.15625 C 7.914062 -1.15625 7.929688 -1.15625 7.953125 -1.15625 C 9.109375 -1.15625 10.023438 -1.488281 10.703125 -2.15625 C 11.390625 -2.820312 11.734375 -3.835938 11.734375 -5.203125 C 11.734375 -6.578125 11.347656 -7.597656 10.578125 -8.265625 C 9.804688 -8.941406 8.8125 -9.28125 7.59375 -9.28125 L 7.59375 -9.5 C 8.46875 -9.5 9.195312 -9.78125 9.78125 -10.34375 C 10.363281 -10.90625 10.664062 -11.769531 10.6875 -12.9375 Z M 10.6875 -12.9375 "/></g></g><g style="fill:#ffffff;fill-opacity:1;"><g transform="translate(78.091524, 27.189199)"><path style="stroke:none" d="M 18.515625 -0.25 L 18.734375 -0.25 L 18.734375 0 L 10.734375 0 L 10.734375 -0.25 L 10.96875 -0.25 C 11.332031 -0.25 11.601562 -0.359375 11.78125 -0.578125 C 11.957031 -0.804688 12.046875 -1.019531 12.046875 -1.21875 C 12.046875 -1.425781 12.003906 -1.628906 11.921875 -1.828125 L 10.6875 -4.921875 L 4.828125 -4.921875 L 3.515625 -1.828125 C 3.429688 -1.609375 3.390625 -1.398438 3.390625 -1.203125 C 3.390625 -1.015625 3.476562 -0.804688 3.65625 -0.578125 C 3.84375 -0.359375 4.125 -0.25 4.5 -0.25 L 4.703125 -0.25 L 4.703125 0 L -0.671875 0 L -0.671875 -0.25 L -0.4375 -0.25 C -0.0625 -0.25 0.316406 -0.363281 0.703125 -0.59375 C 1.085938 -0.832031 1.40625 -1.1875 1.65625 -1.65625 L 7.453125 -14.765625 C 8.242188 -16.421875 8.660156 -17.519531 8.703125 -18.0625 L 8.9375 -18.0625 L 16.375 -1.703125 C 16.632812 -1.222656 16.953125 -0.859375 17.328125 -0.609375 C 17.710938 -0.367188 18.109375 -0.25 18.515625 -0.25 Z M 5.25 -5.96875 L 10.265625 -5.96875 L 7.828125 -12.140625 Z M 5.25 -5.96875 "/></g></g><g style="fill:#ffffff;fill-opacity:1;"><g transform="translate(96.042136, 27.189199)"><path style="stroke:none" d="M 13.265625 -0.25 C 13.703125 -0.25 14.035156 -0.359375 14.265625 -0.578125 C 14.648438 -0.960938 14.851562 -1.375 14.875 -1.8125 L 14.875 -8.203125 L 6.75 -8.203125 L 6.75 -1.828125 C 6.75 -1.390625 6.90625 -1.015625 7.21875 -0.703125 C 7.539062 -0.398438 7.914062 -0.25 8.34375 -0.25 L 8.65625 -0.25 L 8.671875 0 L 1.046875 0 L 1.046875 -0.25 L 1.375 -0.25 C 1.8125 -0.25 2.179688 -0.398438 2.484375 -0.703125 C 2.796875 -1.015625 2.960938 -1.390625 2.984375 -1.828125 L 2.984375 -15.71875 C 2.960938 -16.15625 2.796875 -16.523438 2.484375 -16.828125 C 2.179688 -17.140625 1.8125 -17.296875 1.375 -17.296875 L 1.046875 -17.296875 L 1.046875 -17.546875 L 8.671875 -17.546875 L 8.65625 -17.296875 L 8.34375 -17.296875 C 7.914062 -17.296875 7.539062 -17.140625 7.21875 -16.828125 C 6.90625 -16.523438 6.75 -16.15625 6.75 -15.71875 L 6.75 -9.28125 L 14.875 -9.28125 L 14.875 -15.71875 C 14.851562 -16.15625 14.6875 -16.523438 14.375 -16.828125 C 14.070312 -17.140625 13.703125 -17.296875 13.265625 -17.296875 L 12.9375 -17.296875 L 12.9375 -17.546875 L 20.5625 -17.546875 L 20.5625 -17.296875 L 20.234375 -17.296875 C 19.804688 -17.296875 19.429688 -17.140625 19.109375 -16.828125 C 18.796875 -16.523438 18.640625 -16.15625 18.640625 -15.71875 L 18.640625 -1.828125 C 18.640625 -1.390625 18.796875 -1.015625 19.109375 -0.703125 C 19.429688 -0.398438 19.804688 -0.25 20.234375 -0.25 L 20.5625 -0.25 L 20.5625 0 L 12.9375 0 L 12.9375 -0.25 Z M 13.265625 -0.25 "/></g></g><g style="fill:#ffffff;fill-opacity:1;"><g transform="translate(117.627997, 27.189199)"><path style="stroke:none" d="M 7.96875 -16.453125 L 6.890625 -16.453125 C 6.859375 -16.453125 6.835938 -16.453125 6.828125 -16.453125 L 6.828125 -1.828125 C 6.835938 -1.390625 7 -1.015625 7.3125 -0.703125 C 7.625 -0.398438 7.992188 -0.25 8.421875 -0.25 L 8.75 -0.25 L 8.75 0 L 1.125 0 L 1.125 -0.25 L 1.453125 -0.25 C 2.054688 -0.25 2.515625 -0.507812 2.828125 -1.03125 C 2.960938 -1.257812 3.039062 -1.519531 3.0625 -1.8125 L 3.0625 -15.71875 C 3.039062 -16.15625 2.875 -16.523438 2.5625 -16.828125 C 2.257812 -17.140625 1.890625 -17.296875 1.453125 -17.296875 L 1.125 -17.296875 L 1.125 -17.546875 L 9.734375 -17.546875 C 11.347656 -17.546875 12.71875 -17.195312 13.84375 -16.5 C 14.414062 -16.144531 14.867188 -15.65625 15.203125 -15.03125 C 15.535156 -14.40625 15.703125 -13.585938 15.703125 -12.578125 C 15.703125 -11.566406 15.347656 -10.59375 14.640625 -9.65625 C 13.941406 -8.71875 12.925781 -8.179688 11.59375 -8.046875 C 12.5625 -7.734375 13.410156 -7 14.140625 -5.84375 C 15.953125 -2.945312 17.289062 -1.222656 18.15625 -0.671875 C 18.59375 -0.410156 19.132812 -0.269531 19.78125 -0.25 L 19.78125 0 L 17.328125 0 C 15.867188 0 14.660156 -0.191406 13.703125 -0.578125 C 12.742188 -0.960938 11.988281 -1.640625 11.4375 -2.609375 C 11.113281 -3.160156 10.421875 -4.585938 9.359375 -6.890625 C 8.890625 -7.910156 8.320312 -8.472656 7.65625 -8.578125 L 7.65625 -8.828125 L 8.421875 -8.828125 C 9.179688 -8.828125 9.847656 -9.050781 10.421875 -9.5 C 10.992188 -9.957031 11.382812 -10.695312 11.59375 -11.71875 C 11.65625 -12.0625 11.6875 -12.332031 11.6875 -12.53125 C 11.6875 -13.90625 11.410156 -14.894531 10.859375 -15.5 C 10.304688 -16.113281 9.597656 -16.429688 8.734375 -16.453125 C 8.554688 -16.453125 8.300781 -16.453125 7.96875 -16.453125 Z M 7.96875 -16.453125 "/></g></g><g style="fill:#ffffff;fill-opacity:1;"><g transform="translate(135.603681, 27.189199)"><path style="stroke:none" d="M 3.90625 -15.4375 C 5.6875 -17.082031 8.082031 -17.90625 11.09375 -17.90625 C 14.113281 -17.90625 16.515625 -17.082031 18.296875 -15.4375 C 20.078125 -13.800781 20.96875 -11.578125 20.96875 -8.765625 C 20.96875 -5.960938 20.078125 -3.742188 18.296875 -2.109375 C 16.515625 -0.472656 14.113281 0.34375 11.09375 0.34375 C 8.082031 0.34375 5.6875 -0.472656 3.90625 -2.109375 C 2.125 -3.742188 1.234375 -5.960938 1.234375 -8.765625 C 1.234375 -11.578125 2.125 -13.800781 3.90625 -15.4375 Z M 6.875 -2.875 C 7.90625 -1.425781 9.304688 -0.703125 11.078125 -0.703125 C 12.859375 -0.703125 14.265625 -1.425781 15.296875 -2.875 C 16.335938 -4.320312 16.859375 -6.289062 16.859375 -8.78125 C 16.859375 -11.269531 16.335938 -13.238281 15.296875 -14.6875 C 14.265625 -16.132812 12.859375 -16.859375 11.078125 -16.859375 C 9.304688 -16.859375 7.90625 -16.132812 6.875 -14.6875 C 5.851562 -13.238281 5.34375 -11.269531 5.34375 -8.78125 C 5.34375 -6.289062 5.851562 -4.320312 6.875 -2.875 Z M 6.875 -2.875 "/></g></g><g style="fill:#ffffff;fill-opacity:1;"><g transform="translate(157.114324, 27.189199)"><path style="stroke:none" d="M 10.15625 -17.546875 C 13.113281 -17.546875 15.453125 -16.757812 17.171875 -15.1875 C 18.898438 -13.625 19.765625 -11.488281 19.765625 -8.78125 C 19.765625 -6.070312 18.898438 -3.929688 17.171875 -2.359375 C 15.453125 -0.785156 13.113281 0 10.15625 0 L 1.046875 0 L 1.046875 -0.25 L 1.375 -0.25 C 1.8125 -0.25 2.179688 -0.398438 2.484375 -0.703125 C 2.796875 -1.015625 2.960938 -1.390625 2.984375 -1.828125 L 2.984375 -15.875 C 2.984375 -16.269531 2.816406 -16.601562 2.484375 -16.875 C 2.160156 -17.15625 1.789062 -17.296875 1.375 -17.296875 L 1.046875 -17.296875 L 1.046875 -17.546875 Z M 9.828125 -1.078125 C 11.035156 -1.078125 12.078125 -1.382812 12.953125 -2 C 13.828125 -2.625 14.5 -3.515625 14.96875 -4.671875 C 15.4375 -5.835938 15.671875 -7.101562 15.671875 -8.46875 C 15.671875 -9.84375 15.53125 -11.007812 15.25 -11.96875 C 14.976562 -12.9375 14.59375 -13.753906 14.09375 -14.421875 C 13.050781 -15.804688 11.628906 -16.5 9.828125 -16.5 L 6.75 -16.5 L 6.75 -1.078125 Z M 9.828125 -1.078125 "/></g></g><g style="fill:#ffffff;fill-opacity:1;"><g transform="translate(177.371437, 27.189199)"><path style="stroke:none" d="M 1.375 -0.25 C 1.8125 -0.25 2.179688 -0.398438 2.484375 -0.703125 C 2.796875 -1.015625 2.960938 -1.390625 2.984375 -1.828125 L 2.984375 -15.75 C 2.960938 -16.1875 2.796875 -16.550781 2.484375 -16.84375 C 2.179688 -17.144531 1.8125 -17.296875 1.375 -17.296875 L 1.046875 -17.296875 L 1.046875 -17.546875 L 8.671875 -17.546875 L 8.65625 -17.296875 L 8.34375 -17.296875 C 7.914062 -17.296875 7.539062 -17.144531 7.21875 -16.84375 C 6.90625 -16.550781 6.75 -16.1875 6.75 -15.75 L 6.75 -1.828125 C 6.75 -1.390625 6.90625 -1.015625 7.21875 -0.703125 C 7.539062 -0.398438 7.914062 -0.25 8.34375 -0.25 L 8.65625 -0.25 L 8.671875 0 L 1.046875 0 L 1.046875 -0.25 Z M 1.375 -0.25 "/></g></g><g style="fill:#ffffff;fill-opacity:1;"><g transform="translate(63.530191, 37.080159)"><path style="stroke:none" d="M 3.625 -5.90625 L 3.625 -1.546875 C 3.625 -1.054688 3.472656 -0.664062 3.171875 -0.375 C 2.878906 -0.0820312 2.488281 0.0625 2 0.0625 C 1.5 0.0625 1.097656 -0.0820312 0.796875 -0.375 C 0.492188 -0.675781 0.34375 -1.085938 0.34375 -1.609375 L 1.125 -1.609375 C 1.125 -1.316406 1.195312 -1.078125 1.34375 -0.890625 C 1.488281 -0.710938 1.707031 -0.625 2 -0.625 C 2.28125 -0.625 2.488281 -0.707031 2.625 -0.875 C 2.769531 -1.050781 2.84375 -1.273438 2.84375 -1.546875 L 2.84375 -5.90625 Z M 3.625 -5.90625 "/></g></g><g style="fill:#ffffff;fill-opacity:1;"><g transform="translate(74.818424, 37.080159)"><path style="stroke:none" d="M 1.40625 -5.90625 L 1.40625 -2.171875 C 1.40625 -1.648438 1.535156 -1.257812 1.796875 -1 C 2.054688 -0.75 2.414062 -0.625 2.875 -0.625 C 3.320312 -0.625 3.671875 -0.75 3.921875 -1 C 4.179688 -1.257812 4.3125 -1.648438 4.3125 -2.171875 L 4.3125 -5.90625 L 5.09375 -5.90625 L 5.09375 -2.1875 C 5.09375 -1.6875 4.992188 -1.269531 4.796875 -0.9375 C 4.597656 -0.601562 4.328125 -0.351562 3.984375 -0.1875 C 3.648438 -0.0195312 3.273438 0.0625 2.859375 0.0625 C 2.441406 0.0625 2.0625 -0.0195312 1.71875 -0.1875 C 1.382812 -0.351562 1.117188 -0.601562 0.921875 -0.9375 C 0.734375 -1.269531 0.640625 -1.6875 0.640625 -2.1875 L 0.640625 -5.90625 Z M 1.40625 -5.90625 "/></g></g><g style="fill:#ffffff;fill-opacity:1;"><g transform="translate(87.337331, 37.080159)"><path style="stroke:none" d="M 2.53125 0.0625 C 2.132812 0.0625 1.78125 -0.00390625 1.46875 -0.140625 C 1.164062 -0.285156 0.925781 -0.476562 0.75 -0.71875 C 0.570312 -0.96875 0.484375 -1.253906 0.484375 -1.578125 L 1.3125 -1.578125 C 1.332031 -1.296875 1.441406 -1.0625 1.640625 -0.875 C 1.847656 -0.6875 2.144531 -0.59375 2.53125 -0.59375 C 2.894531 -0.59375 3.179688 -0.679688 3.390625 -0.859375 C 3.609375 -1.046875 3.71875 -1.285156 3.71875 -1.578125 C 3.71875 -1.804688 3.65625 -1.988281 3.53125 -2.125 C 3.40625 -2.269531 3.25 -2.378906 3.0625 -2.453125 C 2.875 -2.523438 2.625 -2.601562 2.3125 -2.6875 C 1.914062 -2.789062 1.597656 -2.890625 1.359375 -2.984375 C 1.128906 -3.085938 0.929688 -3.25 0.765625 -3.46875 C 0.597656 -3.6875 0.515625 -3.984375 0.515625 -4.359375 C 0.515625 -4.679688 0.597656 -4.960938 0.765625 -5.203125 C 0.929688 -5.453125 1.160156 -5.644531 1.453125 -5.78125 C 1.753906 -5.914062 2.097656 -5.984375 2.484375 -5.984375 C 3.035156 -5.984375 3.488281 -5.84375 3.84375 -5.5625 C 4.195312 -5.289062 4.394531 -4.925781 4.4375 -4.46875 L 3.59375 -4.46875 C 3.5625 -4.695312 3.441406 -4.894531 3.234375 -5.0625 C 3.023438 -5.238281 2.75 -5.328125 2.40625 -5.328125 C 2.082031 -5.328125 1.816406 -5.242188 1.609375 -5.078125 C 1.410156 -4.910156 1.3125 -4.675781 1.3125 -4.375 C 1.3125 -4.164062 1.367188 -3.988281 1.484375 -3.84375 C 1.609375 -3.707031 1.757812 -3.601562 1.9375 -3.53125 C 2.113281 -3.46875 2.363281 -3.390625 2.6875 -3.296875 C 3.082031 -3.191406 3.394531 -3.085938 3.625 -2.984375 C 3.863281 -2.878906 4.066406 -2.71875 4.234375 -2.5 C 4.410156 -2.28125 4.5 -1.984375 4.5 -1.609375 C 4.5 -1.316406 4.421875 -1.046875 4.265625 -0.796875 C 4.109375 -0.546875 3.878906 -0.335938 3.578125 -0.171875 C 3.285156 -0.015625 2.9375 0.0625 2.53125 0.0625 Z M 2.53125 0.0625 "/></g></g><g style="fill:#ffffff;fill-opacity:1;"><g transform="translate(99.10935, 37.080159)"><path style="stroke:none" d="M 4.296875 -5.90625 L 4.296875 -5.28125 L 2.6875 -5.28125 L 2.6875 0 L 1.90625 0 L 1.90625 -5.28125 L 0.28125 -5.28125 L 0.28125 -5.90625 Z M 4.296875 -5.90625 "/></g></g><g style="fill:#ffffff;fill-opacity:1;"><g transform="translate(110.490947, 37.080159)"><path style="stroke:none" d="M 1.421875 -5.90625 L 1.421875 0 L 0.65625 0 L 0.65625 -5.90625 Z M 1.421875 -5.90625 "/></g></g><g style="fill:#ffffff;fill-opacity:1;"><g transform="translate(119.368753, 37.080159)"><path style="stroke:none" d="M 0.359375 -2.96875 C 0.359375 -3.539062 0.488281 -4.054688 0.75 -4.515625 C 1.007812 -4.972656 1.363281 -5.332031 1.8125 -5.59375 C 2.269531 -5.851562 2.769531 -5.984375 3.3125 -5.984375 C 3.957031 -5.984375 4.519531 -5.828125 5 -5.515625 C 5.488281 -5.210938 5.84375 -4.773438 6.0625 -4.203125 L 5.140625 -4.203125 C 4.972656 -4.554688 4.734375 -4.828125 4.421875 -5.015625 C 4.117188 -5.210938 3.75 -5.3125 3.3125 -5.3125 C 2.90625 -5.3125 2.535156 -5.210938 2.203125 -5.015625 C 1.878906 -4.828125 1.625 -4.554688 1.4375 -4.203125 C 1.25 -3.847656 1.15625 -3.4375 1.15625 -2.96875 C 1.15625 -2.488281 1.25 -2.070312 1.4375 -1.71875 C 1.625 -1.375 1.878906 -1.101562 2.203125 -0.90625 C 2.535156 -0.71875 2.90625 -0.625 3.3125 -0.625 C 3.75 -0.625 4.117188 -0.71875 4.421875 -0.90625 C 4.734375 -1.09375 4.972656 -1.363281 5.140625 -1.71875 L 6.0625 -1.71875 C 5.84375 -1.15625 5.488281 -0.71875 5 -0.40625 C 4.519531 -0.101562 3.957031 0.046875 3.3125 0.046875 C 2.769531 0.046875 2.269531 -0.078125 1.8125 -0.328125 C 1.363281 -0.585938 1.007812 -0.945312 0.75 -1.40625 C 0.488281 -1.863281 0.359375 -2.382812 0.359375 -2.96875 Z M 0.359375 -2.96875 "/></g></g><g style="fill:#ffffff;fill-opacity:1;"><g transform="translate(132.710946, 37.080159)"><path style="stroke:none" d="M 1.421875 -5.28125 L 1.421875 -3.3125 L 3.578125 -3.3125 L 3.578125 -2.671875 L 1.421875 -2.671875 L 1.421875 -0.640625 L 3.828125 -0.640625 L 3.828125 0 L 0.65625 0 L 0.65625 -5.921875 L 3.828125 -5.921875 L 3.828125 -5.28125 Z M 1.421875 -5.28125 "/></g></g><g style="fill:#ffffff;fill-opacity:1;"><g transform="translate(143.854888, 37.080159)"><path style="stroke:none" d=""/></g></g><g style="fill:#ffffff;fill-opacity:1;"><g transform="translate(152.910927, 37.080159)"><path style="stroke:none" d="M 1.421875 -0.625 L 3.5 -0.625 L 3.5 0 L 0.65625 0 L 0.65625 -5.90625 L 1.421875 -5.90625 Z M 1.421875 -0.625 "/></g></g><g style="fill:#ffffff;fill-opacity:1;"><g transform="translate(163.367391, 37.080159)"><path style="stroke:none" d="M 4.15625 -1.3125 L 1.5625 -1.3125 L 1.09375 0 L 0.28125 0 L 2.421875 -5.875 L 3.3125 -5.875 L 5.4375 0 L 4.625 0 Z M 3.921875 -1.9375 L 2.859375 -4.921875 L 1.796875 -1.9375 Z M 3.921875 -1.9375 "/></g></g><g style="fill:#ffffff;fill-opacity:1;"><g transform="translate(175.877815, 37.080159)"><path style="stroke:none" d="M 8.078125 -5.90625 L 6.375 0 L 5.5 0 L 4.125 -4.765625 L 2.703125 0 L 1.84375 0.015625 L 0.1875 -5.90625 L 1.015625 -5.90625 L 2.3125 -0.90625 L 3.734375 -5.90625 L 4.59375 -5.90625 L 5.953125 -0.921875 L 7.25 -5.90625 Z M 8.078125 -5.90625 "/></g></g></g></svg>